
<svg width="520px" height="364px" viewBox="0 0 520 364" version="1.1" xmlns="http://www.w3.org/2000/svg" xmlns:xlink="http://www.w3.org/1999/xlink">
    <g id="Mobile" stroke="none" stroke-width="1" fill="none" fill-rule="evenodd">
        <g id="Index" transform="translate(0.000000, -2088.000000)" fill="#2C4B61">
            <g id="About" transform="translate(0.000000, 2088.000000)">
                <path d="M208.548438,0 C281.114989,0 343.762252,42.469521 372.990861,103.909197 L352.940034,103.907602 C365.526156,127.130104 372.673438,153.730384 372.673438,182 C372.673438,210.195979 365.563343,236.731306 353.038277,259.910857 L64.0585977,259.910857 C91.7988028,311.248353 146.100682,346.125 208.548438,346.125 C270.996193,346.125 325.298072,311.248353 353.038277,259.910857 L373.074547,259.911378 C380.701633,243.832556 386.040992,226.457661 388.672161,208.207136 L388.672161,208.207136 L388.230117,207.994252 C387.791922,207.775402 387.791922,207.775402 387.369125,207.532685 C383.069375,205.06431 383.069375,205.06431 380.720438,200.565498 C378.3715,196.066685 378.3715,196.066685 378.3715,189.855935 C378.3715,183.645185 378.3715,183.645185 380.720438,179.146373 C383.069375,174.64756 383.069375,174.64756 387.369125,172.179185 C388.711207,171.408731 388.711207,171.408731 390.214187,170.878208 L390.214187,170.878208 L390.019815,168.024106 C388.288153,145.220695 382.354311,123.591535 372.990861,103.909197 L520,103.909435 L520,259.909435 L373.074547,259.911378 C343.884486,321.447568 281.185788,364 208.548438,364 C135.911227,364 73.2126306,321.447732 44.0207278,259.911273 L64.0585977,259.910857 C51.5335323,236.731306 44.4234375,210.195979 44.4234375,182 C44.4234375,153.730384 51.5707188,127.130104 64.1568415,103.907602 L352.940034,103.907602 C325.169996,52.6694426 270.922556,17.875 208.548438,17.875 C146.174319,17.875 91.9268787,52.6694426 64.1568415,103.907602 L44.1065075,103.908161 C32.8486924,127.572141 26.5484375,154.050319 26.5484375,182 C26.5484375,209.878614 32.8166938,236.293198 44.0207278,259.911273 L0,259.909435 L0,103.909435 L44.1065075,103.908161 C73.335328,42.4690433 135.982294,0 208.548438,0 Z M337.6035,152.591435 C333.742894,152.591435 333.742894,152.591435 333.625906,156.409926 L333.625906,156.409926 L333.62225,156.65231 L333.62225,205.780935 L333.625906,206.02332 C333.742894,209.84181 333.742894,209.84181 337.6035,209.84181 C341.386894,209.84181 341.386894,209.84181 341.501542,206.02332 L341.501542,206.02332 L341.505125,205.780935 L341.505125,202.755185 L341.704925,203.122468 C343.44709,206.207814 343.44709,206.207814 346.68075,208.050248 C350.104625,210.00106 350.104625,210.00106 354.484,210.00106 C359.659625,210.00106 359.659625,210.00106 363.521438,207.572498 C367.38325,205.143935 367.38325,205.143935 369.493313,200.60531 C371.603375,196.066685 371.603375,196.066685 371.603375,189.855935 C371.603375,183.645185 371.603375,183.645185 369.493313,179.146373 C367.38325,174.64756 367.38325,174.64756 363.521438,172.179185 C359.659625,169.71081 359.659625,169.71081 354.484,169.71081 C350.18425,169.71081 350.18425,169.71081 346.800188,171.62181 C343.615188,173.420399 343.615188,173.420399 341.876111,176.347513 L341.876111,176.347513 L341.664375,176.71781 L341.664375,156.65231 L341.660646,156.409926 C341.541318,152.591435 341.541318,152.591435 337.6035,152.591435 Z M397.561125,169.71081 C393.508025,169.71081 393.508025,169.71081 390.214187,170.878208 C390.367007,173.413334 390.467934,175.962457 390.512523,178.524278 L390.512523,178.524278 L390.255041,178.763132 C389.873368,179.129514 389.873368,179.129514 389.519,179.544498 C386.49325,183.08781 386.49325,183.08781 386.49325,189.855935 C386.49325,196.62406 386.49325,196.62406 389.519,200.207185 C389.575399,200.273974 389.575399,200.273974 389.635891,200.33963 L389.635891,200.33963 L389.470655,201.921164 C389.241271,204.02721 388.975503,206.122585 388.672161,208.207136 C392.537958,210.00106 392.537958,210.00106 397.561125,210.00106 C403.294125,210.00106 403.294125,210.00106 407.593875,207.532685 C411.893625,205.06431 411.893625,205.06431 414.282375,200.565498 C416.671125,196.066685 416.671125,196.066685 416.671125,189.855935 C416.671125,183.645185 416.671125,183.645185 414.282375,179.146373 C411.893625,174.64756 411.893625,174.64756 407.593875,172.179185 C403.294125,169.71081 403.294125,169.71081 397.561125,169.71081 Z M455.687375,169.87006 C451.749557,169.87006 451.749557,169.87006 451.630229,173.688551 L451.630229,173.688551 L451.6265,173.930935 L451.6265,192.403935 L451.621977,192.808303 C451.513433,197.620965 451.513433,197.620965 448.799813,200.525685 C445.973125,203.551435 445.973125,203.551435 441.4345,203.551435 C437.294,203.551435 437.294,203.551435 435.383,201.321935 C433.555087,199.18937 433.555087,199.18937 433.475612,194.798405 L433.475612,194.798405 L433.472,194.39456 L433.472,173.930935 L433.468271,173.688551 C433.348943,169.87006 433.348943,169.87006 429.411125,169.87006 C425.550519,169.87006 425.550519,169.87006 425.433531,173.688551 L425.433531,173.688551 L425.429875,173.930935 L425.429875,194.314935 L425.432192,194.714565 C425.610563,210.00106 425.610563,210.00106 439.5235,210.00106 C443.584375,210.00106 443.584375,210.00106 446.769375,208.24931 C449.767022,206.600605 449.767022,206.600605 451.636143,203.470708 L451.636143,203.470708 L451.865375,203.073685 L451.865375,205.780935 L451.868958,206.02332 C451.983606,209.84181 451.983606,209.84181 455.767,209.84181 C459.550394,209.84181 459.550394,209.84181 459.665042,206.02332 L459.665042,206.02332 L459.668625,205.780935 L459.668625,173.930935 L459.664969,173.688551 C459.547981,169.87006 459.547981,169.87006 455.687375,169.87006 Z M477.1065,158.165185 C473.168682,158.165185 473.168682,158.165185 473.049354,161.983676 L473.049354,161.983676 L473.045625,162.22606 L473.045625,170.427435 L468.268125,170.427435 L468.041464,170.431128 C464.923875,170.534517 464.923875,170.534517 464.923875,173.53281 C464.923875,176.531104 464.923875,176.531104 468.041464,176.634493 L468.041464,176.634493 L468.268125,176.638185 L473.045625,176.638185 L473.045625,195.429685 L473.049606,195.898411 C473.165063,202.641056 473.165063,202.641056 476.62875,206.258685 C480.211875,210.00106 480.211875,210.00106 487.537375,210.00106 C488.811375,210.00106 488.811375,210.00106 490.443688,209.762185 C492.076,209.52331 492.076,209.52331 493.0315,209.125185 C494.14625,208.806685 494.14625,208.806685 494.584188,207.811373 C495.022125,206.81606 495.022125,206.81606 495.022125,205.54206 C495.022125,203.869935 495.022125,203.869935 494.46475,203.272748 C493.907375,202.67556 493.907375,202.67556 493.0315,202.67556 C492.23525,202.755185 492.23525,202.755185 491.200125,203.033873 C490.165,203.31256 490.165,203.31256 488.73175,203.31256 C484.670875,203.31256 484.670875,203.31256 482.879313,201.162685 C481.173063,199.115185 481.173063,199.115185 481.091813,195.189908 L481.091813,195.189908 L481.08775,194.792685 L481.08775,176.638185 L490.403875,176.638185 L490.630536,176.634493 C493.748125,176.531104 493.748125,176.531104 493.748125,173.53281 C493.748125,170.534517 493.748125,170.534517 490.630536,170.431128 L490.630536,170.431128 L490.403875,170.427435 L481.08775,170.427435 L481.08775,162.22606 L481.084094,161.983676 C480.967106,158.165185 480.967106,158.165185 477.1065,158.165185 Z M298.7465,152.591435 C297.154,152.591435 297.154,152.591435 295.959625,153.427498 C294.864781,154.193889 294.864781,154.193889 294.104473,155.796618 L294.104473,155.796618 L293.969,156.094935 L272.390625,204.506935 L272.275596,204.766888 C271.409364,206.82777 271.409364,206.82777 272.271188,208.289123 C273.186875,209.84181 273.186875,209.84181 275.575625,209.84181 C277.168125,209.84181 277.168125,209.84181 278.123625,209.005748 C278.9995,208.239357 278.9995,208.239357 279.741561,206.569721 L279.741561,206.569721 L279.875375,206.258685 L284.414,195.588935 L312.840125,195.588935 L317.458375,206.258685 L317.592742,206.557279 C318.340885,208.16305 318.340885,208.16305 319.28975,208.965935 C320.324875,209.84181 320.324875,209.84181 322.076625,209.84181 C324.38575,209.84181 324.38575,209.84181 325.221813,208.328935 C326.008695,206.905053 326.008695,206.905053 325.138055,204.775842 L325.138055,204.775842 L325.02275,204.506935 L303.444375,156.094935 L303.308625,155.796618 C302.545276,154.193889 302.545276,154.193889 301.413938,153.427498 C300.17975,152.591435 300.17975,152.591435 298.7465,152.591435 Z M352.493375,176.001185 C357.50975,176.001185 357.50975,176.001185 360.495688,179.544498 C363.481625,183.08781 363.481625,183.08781 363.481625,189.855935 C363.481625,196.62406 363.481625,196.62406 360.495688,200.207185 C357.50975,203.79031 357.50975,203.79031 352.493375,203.79031 C347.477,203.79031 347.477,203.79031 344.491063,200.207185 C341.505125,196.62406 341.505125,196.62406 341.505125,189.855935 C341.505125,183.08781 341.505125,183.08781 344.491063,179.544498 C347.477,176.001185 347.477,176.001185 352.493375,176.001185 Z M397.561125,176.001185 C402.497875,176.001185 402.497875,176.001185 405.523625,179.544498 C408.549375,183.08781 408.549375,183.08781 408.549375,189.855935 C408.549375,196.62406 408.549375,196.62406 405.523625,200.207185 C402.497875,203.79031 402.497875,203.79031 397.561125,203.79031 C392.638254,203.79031 392.638254,203.79031 389.635891,200.33963 C390.239393,194.308326 390.548438,188.190254 390.548438,182 C390.548438,180.838938 390.537565,179.680416 390.512523,178.524278 C393.32809,176.001185 393.32809,176.001185 397.561125,176.001185 Z M298.7465,162.305685 L310.05325,188.900435 L287.360125,188.900435 L298.58725,162.305685 L298.7465,162.305685 Z" id="Combined-Shape"></path>
            </g>
        </g>
    </g>
</svg>
