
<svg width="240px" height="130px" viewBox="0 0 240 130" version="1.1" xmlns="http://www.w3.org/2000/svg" xmlns:xlink="http://www.w3.org/1999/xlink">
    <g id="Symbols" stroke="none" stroke-width="1" fill="none" fill-rule="evenodd">
        <g id="infinity" transform="translate(0.000000, -1.000000)" fill="#0B81D0">
            <path d="M175,1 C210.898509,1 240,30.1014913 240,66 C240,101.898509 210.898509,131 175,131 C151.841229,131 131.51122,118.888625 119.998355,100.654254 C108.48878,118.888625 88.1587715,131 65,131 C29.1014913,131 0,101.898509 0,66 C0,30.1014913 29.1014913,1 65,1 C88.1587715,1 108.48878,13.1113753 120.001645,31.3457465 C131.51122,13.1113753 151.841229,1 175,1 Z M65,21 C40.1471863,21 20,41.1471863 20,66 C20,90.8528137 40.1471863,111 65,111 C89.8528137,111 110,90.8528137 110,66 C110,41.1471863 89.8528137,21 65,21 Z M175,21 C150.147186,21 130,41.1471863 130,66 C130,90.8528137 150.147186,111 175,111 C199.852814,111 220,90.8528137 220,66 C220,41.1471863 199.852814,21 175,21 Z" id="Combined-Shape"></path>
        </g>
    </g>
</svg>
