
<svg width="130px" height="240px" viewBox="0 0 130 240" version="1.1" xmlns="http://www.w3.org/2000/svg" xmlns:xlink="http://www.w3.org/1999/xlink">
    <g id="Symbols" stroke="none" stroke-width="1" fill="none" fill-rule="evenodd">
        <g id="infinity-ver" fill="#0B81D0">
            <path d="M120,55 C155.898509,55 185,84.1014913 185,120 C185,155.898509 155.898509,185 120,185 C96.8412285,185 76.5112204,172.888625 64.9983549,154.654254 C53.4887796,172.888625 33.1587715,185 10,185 C-25.8985087,185 -55,155.898509 -55,120 C-55,84.1014913 -25.8985087,55 10,55 C33.1587715,55 53.4887796,67.1113753 65.0016451,85.3457465 C76.5112204,67.1113753 96.8412285,55 120,55 Z M10,75 C-14.8528137,75 -35,95.1471863 -35,120 C-35,144.852814 -14.8528137,165 10,165 C34.8528137,165 55,144.852814 55,120 C55,95.1471863 34.8528137,75 10,75 Z M120,75 C95.1471863,75 75,95.1471863 75,120 C75,144.852814 95.1471863,165 120,165 C144.852814,165 165,144.852814 165,120 C165,95.1471863 144.852814,75 120,75 Z" id="inifinity-ver" transform="translate(65.000000, 120.000000) rotate(-270.000000) translate(-65.000000, -120.000000) "></path>
        </g>
    </g>
</svg>
