
<svg width="1920px" height="500px" viewBox="0 0 1920 500" version="1.1" xmlns="http://www.w3.org/2000/svg" xmlns:xlink="http://www.w3.org/1999/xlink">
    <g id="Symbols" stroke="none" stroke-width="1" fill="none" fill-rule="evenodd">
        <g id="Footer" fill="#001F34">
            <path d="M1602.78285,-0.00183027869 C1579.8962,46.6630414 1587.8547,104.631392 1626.65833,143.435029 C1658.25914,175.035831 1702.57018,186.179812 1743.13303,176.864524 C1733.82019,217.429824 1744.96417,261.740865 1776.56497,293.341666 C1815.36847,332.145167 1873.33655,340.103741 1920.00134,317.217388 L1920,500 L0,500 L-0.000321297881,220.143 L239.434172,220.143817 C249.275962,220.143817 257.275013,212.254118 257.451555,202.454494 L257.454534,202.123455 C257.454534,192.281665 249.564836,184.282614 239.765212,184.106072 L239.434172,184.103093 L-0.000321297881,184.103 L0,5.68434189e-14 Z M301.886222,114.023907 C294.064893,114.023907 286.453291,120.109193 287.724452,128.039744 C288.995614,135.970295 294.134431,140.555256 302.896587,142.063682 C336.174024,142.597665 362.98414,169.46213 362.98414,202.523907 C362.98414,235.585684 336.174024,262.452524 302.896587,262.986555 L301.886222,262.994657 L301.620166,262.994657 C294.064893,264.540335 289.020012,268.736164 287.724452,277.00807 C286.428893,285.279976 294.064893,291.023907 301.886222,291.023907 C351.272329,291.023907 391.307679,251.401107 391.307679,202.523907 C391.307679,153.646707 351.272329,114.023907 301.886222,114.023907 Z M1803.78858,143.081475 C1835.59847,111.271593 1886.0196,109.416065 1920.00074,137.514893 L1920.00074,270.977531 C1886.0196,299.076359 1835.59847,297.220832 1803.78858,265.410949 C1770.00823,231.630597 1770.00823,176.861827 1803.78858,143.081475 Z M1781.82747,-0.00126508833 C1809.91812,33.99472 1808.05517,84.422059 1776.23861,116.238614 C1742.44324,150.033986 1687.65012,150.033986 1653.85475,116.238614 C1622.03819,84.422059 1620.17524,33.99472 1648.2659,-0.00126508833 Z M1920,5.68434189e-14 L1920.00087,92.6890601 C1894.03869,79.9563701 1864.57816,76.7715819 1836.86697,83.1354761 C1843.22925,55.4223896 1840.04382,25.9610749 1827.31071,-0.00142831996 L1920,5.68434189e-14 Z" id="Combined-Shape"></path>
        </g>
    </g>
</svg>
