<?xml version="1.0" encoding="UTF-8" standalone="no"?><!DOCTYPE svg PUBLIC "-//W3C//DTD SVG 1.1//EN" "http://www.w3.org/Graphics/SVG/1.1/DTD/svg11.dtd"><svg width="100%" height="100%" viewBox="0 0 1334 1334" version="1.1" xmlns="http://www.w3.org/2000/svg" xmlns:xlink="http://www.w3.org/1999/xlink" xml:space="preserve" xmlns:serif="http://www.serif.com/" style="fill-rule:evenodd;clip-rule:evenodd;stroke-linejoin:round;stroke-miterlimit:2;"><clipPath id="_contents1"><path d="M666.667,1333.33c368.19,0 666.666,-298.476 666.666,-666.666c0,-368.19 -298.476,-666.667 -666.666,-666.667c-368.19,0 -666.667,298.477 -666.667,666.667c0,368.19 298.477,666.666 666.667,666.666Z"/></clipPath><g clip-path="url(#_contents1)"><rect x="-4.167" y="-4.167" width="1341.67" height="1341.67" style="fill:#fff;"/></g><g><clipPath id="_contents2"><path d="M666.667,0c368.19,0 666.666,298.477 666.666,666.667c0,368.19 -298.476,666.666 -666.666,666.666c-368.19,0 -666.667,-298.476 -666.667,-666.666c0,-368.19 298.477,-666.667 666.667,-666.667Zm-0,55.462c-337.56,-0 -611.205,273.646 -611.205,611.205c-0,337.559 273.646,611.205 611.205,611.205c337.559,-0 611.205,-273.646 611.205,-611.205c-0,-337.559 -273.646,-611.205 -611.205,-611.205Zm-0,21.462c325.706,-0 589.743,264.036 589.743,589.743c-0,325.706 -264.037,589.743 -589.743,589.743c-325.706,-0 -589.743,-264.037 -589.743,-589.743c-0,-325.707 264.037,-589.743 589.743,-589.743Zm-0,22.184c-313.454,0 -567.559,254.105 -567.559,567.559c0,313.453 254.105,567.558 567.559,567.558c313.453,-0 567.558,-254.105 567.558,-567.558c0,-313.454 -254.105,-567.559 -567.558,-567.559Zm214.481,239.169c5.023,0 9.136,3.898 9.47,8.832l0.022,0.649l-0.002,107.503l94.364,-44.637c5.965,-2.821 12.79,1.145 13.495,7.486l0.05,0.642l0.01,0.441l0,166.384c0,6.666 -6.669,11.178 -12.794,8.889l-0.611,-0.252l-94.514,-42.711l0.002,104.374c-0,4.857 -3.657,8.86 -8.37,9.415l-0.649,0.054l-0.473,0.012l-450.3,-0c-5.023,-0 -9.136,-3.899 -9.47,-8.832l-0.022,-0.649l0,-308.119c0,-5.018 3.903,-9.125 8.842,-9.459l0.65,-0.022l450.3,0Zm-9.494,18.961l-427.407,0l-0,289.158l427.407,0l0.002,-109.588c-0,-6.514 6.368,-10.972 12.374,-9.036l0.62,0.223l0.41,0.175l94.513,42.711l-0,-136.71l-94.363,44.639c-5.964,2.821 -12.79,-1.145 -13.495,-7.486l-0.05,-0.642l-0.009,-0.441l-0.002,-113.003Zm-248.665,77.933l0.596,0.263l104.078,50.046c6.61,3.178 7.217,12.195 1.346,16.279l-0.609,0.391l-104.078,61.805c-6.159,3.658 -13.926,-0.512 -14.392,-7.477l-0.021,-0.661l-0,-111.85c-0,-6.772 6.896,-11.287 13.08,-8.796Zm5.976,23.902l-0,80.047l74.481,-44.23l-74.481,-35.817Z" clip-rule="nonzero"/></clipPath><g clip-path="url(#_contents2)"><rect x="-2188.02" y="-8010.42" width="8000" height="62770.8" style="fill:url(#_LinearContents3);"/><rect x="-2188.02" y="-8010.42" width="8000" height="62770.8" style="fill:url(#_LinearContents4);"/></g></g><defs><linearGradient id="_LinearContents3" x1="0" y1="0" x2="1" y2="0" gradientUnits="userSpaceOnUse" gradientTransform="matrix(2.61258e-13,4266.67,-4266.67,2.61258e-13,0,0)"><stop offset="0" style="stop-color:#aec8d1;stop-opacity:0"/><stop offset="1" style="stop-color:#0b81d0;stop-opacity:0"/></linearGradient><linearGradient id="_LinearContents4" x1="0" y1="0" x2="1" y2="0" gradientUnits="userSpaceOnUse" gradientTransform="matrix(-1333.33,1333.33,-1333.33,-1333.33,1333.33,0)"><stop offset="0" style="stop-color:#aec8d1;stop-opacity:1"/><stop offset="1" style="stop-color:#0b81d0;stop-opacity:1"/></linearGradient></defs></svg>
