
<svg width="26px" height="35px" viewBox="0 0 26 35" version="1.1" xmlns="http://www.w3.org/2000/svg" xmlns:xlink="http://www.w3.org/1999/xlink">
    <g id="Symbols" stroke="none" stroke-width="1" fill="none" fill-rule="evenodd">
        <g id="icon/paper" fill="#013D65" fill-rule="nonzero">
            <path d="M23,0 C24.6568542,0 26,1.34314575 26,3 L26,32 C26,33.6568542 24.6568542,35 23,35 L3,35 C1.34314575,35 0,33.6568542 0,32 L0,4.72316935 C0,3.8590406 0.372616942,3.03687852 1.02241848,2.46725018 L3.83692545,0 L23,0 Z M23,1 L6.236,1 L6.22907681,1.08044596 L6.17381141,1.64829953 L6.11511035,2.16361034 L6.05243874,2.62744589 C6.03082702,2.77359714 6.00846439,2.9113471 5.98526171,3.04087368 L5.91304436,3.40496122 C5.80067067,3.91462109 5.66948068,4.26136042 5.51135085,4.4613919 C5.31591258,4.70861792 4.88419101,4.88486104 4.17235025,5.01156473 L3.82375862,5.06660385 L3.43442902,5.11507627 L3.00340372,5.1574505 L2.52972501,5.19419504 L2.01243515,5.22577837 L1.45057643,5.252669 L1,5.269 L1,32 C1,33.0543618 1.81587779,33.9181651 2.85073766,33.9945143 L3,34 L23,34 C24.0543618,34 24.9181651,33.1841222 24.9945143,32.1492623 L25,32 L25,3 C25,1.9456382 24.1841222,1.08183488 23.1492623,1.00548574 L23,1 Z M15.4972183,29.9999998 C15.7733564,29.9984714 15.998456,30.2210802 16.0000002,30.4972183 C16.0013579,30.7426744 15.8256212,30.9478037 15.5926111,30.9914367 L15.5027817,30.9999998 L4.56613098,31.0608464 C4.28999288,31.0623748 4.0648933,30.8397661 4.06334909,30.563628 C4.0619914,30.3181719 4.23772805,30.1130425 4.47073812,30.0694096 L4.56056754,30.060854 L15.4972183,29.9999998 Z M22,18 L22,31 L18,31 L18,18 L22,18 Z M20.999,19 L18.999,19 L18.999,30 L20.999,30 L20.999,19 Z M15.4972183,26.9999998 C15.7733564,26.9984714 15.998456,27.2210802 16.0000002,27.4972183 C16.0013579,27.7426744 15.8256212,27.9478037 15.5926111,27.9914367 L15.5027817,27.9999998 L4.56613098,28.0608464 C4.28999288,28.0623748 4.0648933,27.8397661 4.06334909,27.563628 C4.0619914,27.3181719 4.23772805,27.1130425 4.47073812,27.0694096 L4.56056754,27.060854 L15.4972183,26.9999998 Z M15.4972183,23.9999998 C15.7733564,23.9984714 15.998456,24.2210802 16.0000002,24.4972183 C16.0013579,24.7426744 15.8256212,24.9478037 15.5926111,24.9914367 L15.5027817,24.9999998 L4.56613098,25.0608464 C4.28999288,25.0623748 4.0648933,24.8397661 4.06334909,24.563628 C4.0619914,24.3181719 4.23772805,24.1130425 4.47073812,24.0694096 L4.56056754,24.060854 L15.4972183,23.9999998 Z M15.4972183,20.9999998 C15.7733564,20.9984714 15.998456,21.2210802 16.0000002,21.4972183 C16.0013579,21.7426744 15.8256212,21.9478037 15.5926111,21.9914367 L15.5027817,21.9999998 L4.56613098,22.0608464 C4.28999288,22.0623748 4.0648933,21.8397661 4.06334909,21.563628 C4.0619914,21.3181719 4.23772805,21.1130425 4.47073812,21.0694096 L4.56056754,21.060854 L15.4972183,20.9999998 Z M15.4972183,17.9999998 C15.7733564,17.9984714 15.998456,18.2210802 16.0000002,18.4972183 C16.0013579,18.7426744 15.8256212,18.9478037 15.5926111,18.9914367 L15.5027817,18.9999998 L4.56613098,19.0608464 C4.28999288,19.0623748 4.0648933,18.8397661 4.06334909,18.563628 C4.0619914,18.3181719 4.23772805,18.1130425 4.47073812,18.0694096 L4.56056754,18.060854 L15.4972183,17.9999998 Z M22,6 L22,14 L4,14 L4,6 L22,6 Z M20.999,7 L4.999,7 L4.999,13 L20.999,13 L20.999,7 Z M5.23,1 L4.212,1 L1.68161232,3.21922323 C1.36550684,3.49632729 1.14779408,3.86307369 1.05319308,4.26492097 L1.62034002,4.24259008 L2.11383893,4.21508205 L2.56873979,4.18400784 L3.17608059,4.13200093 L3.68978943,4.07528982 L3.97823347,4.03585258 L4.22204716,3.99580001 L4.42002404,3.95572228 L4.57095765,3.91620955 C4.65563087,3.89018722 4.70813761,3.86493501 4.72686925,3.84123982 C4.76118592,3.79782982 4.79692453,3.71874705 4.83337189,3.60541484 L4.88848535,3.40990737 C4.90697426,3.33629446 4.92555121,3.25429711 4.94412706,3.16409324 L4.99976212,2.86903997 C5.00900436,2.81582047 5.01822404,2.76059382 5.02741001,2.70338225 L5.08203221,2.33647182 L5.13531055,1.922991 L5.18671017,1.46400729 L5.23,1 Z" id="Combined-Shape"></path>
        </g>
    </g>
</svg>
