
<svg width="54px" height="35px" viewBox="0 0 54 35" version="1.1" xmlns="http://www.w3.org/2000/svg" xmlns:xlink="http://www.w3.org/1999/xlink">
    <g id="Symbols" stroke="none" stroke-width="1" fill="none" fill-rule="evenodd">
        <g id="icon/pc" fill="#013D65" fill-rule="nonzero">
            <path d="M45.9890202,0 L47.2049736,1.2173913 L47.204,27.838 L52.476578,27.8382297 C52.8879385,27.8382297 53.2680268,28.0460903 53.4913226,28.3848369 L53.5597751,28.5024944 C54.7133532,30.7669116 53.5551662,32.9402494 50.6086711,34.8107418 C50.4528849,34.9096378 50.2771988,34.9714255 50.0950994,34.9921847 L49.957533,35 L4.04246696,35 C3.81188795,35 3.58606163,34.9343619 3.39132893,34.8107418 C0.444833759,32.9402494 -0.713353213,30.7669116 0.440224851,28.5024944 C0.627128159,28.1356124 0.984770722,27.8910636 1.38763225,27.8458227 L1.52342203,27.8382297 L6.795,27.838 L6.79502636,1.2173913 L8.01097985,0 L45.9890202,0 Z M51.5416943,30.2728696 L2.45729996,30.2728696 L2.45836789,30.2943148 C2.50241516,30.9124083 3.01801794,31.5920255 4.15132886,32.3922929 L4.3710991,32.5437713 L4.40282554,32.5646087 L49.5961687,32.5646087 L49.7860765,32.4361781 C50.8894679,31.6680333 51.4275501,31.0108121 51.5275069,30.4130827 L51.5416943,30.2943148 L51.5416943,30.2728696 Z M44.7724813,2.43478261 L9.22651301,2.43478261 L9.226,27.838 L44.773,27.838 L44.7724813,2.43478261 Z M15.3870968,21.5833333 C16.1888004,21.5833333 16.8387097,22.2362514 16.8387097,23.0416667 C16.8387097,23.8470819 16.1888004,24.5 15.3870968,24.5 C14.5853931,24.5 13.9354839,23.8470819 13.9354839,23.0416667 C13.9354839,22.2362514 14.5853931,21.5833333 15.3870968,21.5833333 Z M15.3870968,22.1666667 C14.9081639,22.1666667 14.5188172,22.5578159 14.5188172,23.0416667 C14.5188172,23.5255174 14.9081639,23.9166667 15.3870968,23.9166667 C15.8660296,23.9166667 16.2553763,23.5255174 16.2553763,23.0416667 C16.2553763,22.5578159 15.8660296,22.1666667 15.3870968,22.1666667 Z M40.0319588,22.75 C40.1930419,22.75 40.3236255,22.8805836 40.3236255,23.0416667 C40.3236255,23.1797379 40.2276865,23.2954013 40.0988353,23.3256302 L40.0319588,23.3333333 L20.3913681,23.3333333 C20.2302851,23.3333333 20.0997014,23.2027497 20.0997014,23.0416667 C20.0997014,22.9035955 20.1956404,22.787932 20.3244916,22.7577031 L20.3913681,22.75 L40.0319588,22.75 Z M15.3870968,16.3333333 C16.1888004,16.3333333 16.8387097,16.9862514 16.8387097,17.7916667 C16.8387097,18.5970819 16.1888004,19.25 15.3870968,19.25 C14.5853931,19.25 13.9354839,18.5970819 13.9354839,17.7916667 C13.9354839,16.9862514 14.5853931,16.3333333 15.3870968,16.3333333 Z M15.3870968,16.9166667 C14.9081639,16.9166667 14.5188172,17.3078159 14.5188172,17.7916667 C14.5188172,18.2755174 14.9081639,18.6666667 15.3870968,18.6666667 C15.8660296,18.6666667 16.2553763,18.2755174 16.2553763,17.7916667 C16.2553763,17.3078159 15.8660296,16.9166667 15.3870968,16.9166667 Z M40.0319588,17.5 C40.1930419,17.5 40.3236255,17.6305836 40.3236255,17.7916667 C40.3236255,17.9297379 40.2276865,18.0454013 40.0988353,18.0756302 L40.0319588,18.0833333 L20.3913681,18.0833333 C20.2302851,18.0833333 20.0997014,17.9527497 20.0997014,17.7916667 C20.0997014,17.6535955 20.1956404,17.537932 20.3244916,17.5077031 L20.3913681,17.5 L40.0319588,17.5 Z M15.3870968,11.0833333 C16.1888004,11.0833333 16.8387097,11.7362514 16.8387097,12.5416667 C16.8387097,13.3470819 16.1888004,14 15.3870968,14 C14.5853931,14 13.9354839,13.3470819 13.9354839,12.5416667 C13.9354839,11.7362514 14.5853931,11.0833333 15.3870968,11.0833333 Z M15.3870968,11.6666667 C14.9081639,11.6666667 14.5188172,12.0578159 14.5188172,12.5416667 C14.5188172,13.0255174 14.9081639,13.4166667 15.3870968,13.4166667 C15.8660296,13.4166667 16.2553763,13.0255174 16.2553763,12.5416667 C16.2553763,12.0578159 15.8660296,11.6666667 15.3870968,11.6666667 Z M40.0319588,12.25 C40.1930419,12.25 40.3236255,12.3805836 40.3236255,12.5416667 C40.3236255,12.6797379 40.2276865,12.7954013 40.0988353,12.8256302 L40.0319588,12.8333333 L20.3913681,12.8333333 C20.2302851,12.8333333 20.0997014,12.7027497 20.0997014,12.5416667 C20.0997014,12.4035955 20.1956404,12.287932 20.3244916,12.2577031 L20.3913681,12.25 L40.0319588,12.25 Z M15.3870968,5.83333333 C16.1888004,5.83333333 16.8387097,6.48625141 16.8387097,7.29166667 C16.8387097,8.09708193 16.1888004,8.75 15.3870968,8.75 C14.5853931,8.75 13.9354839,8.09708193 13.9354839,7.29166667 C13.9354839,6.48625141 14.5853931,5.83333333 15.3870968,5.83333333 Z M15.3870968,6.41666667 C14.9081639,6.41666667 14.5188172,6.8078159 14.5188172,7.29166667 C14.5188172,7.77551744 14.9081639,8.16666667 15.3870968,8.16666667 C15.8660296,8.16666667 16.2553763,7.77551744 16.2553763,7.29166667 C16.2553763,6.8078159 15.8660296,6.41666667 15.3870968,6.41666667 Z M40.0319588,7 C40.1930419,7 40.3236255,7.13058361 40.3236255,7.29166667 C40.3236255,7.42973785 40.2276865,7.54540129 40.0988353,7.57563021 L40.0319588,7.58333333 L20.3913681,7.58333333 C20.2302851,7.58333333 20.0997014,7.45274972 20.0997014,7.29166667 C20.0997014,7.15359548 20.1956404,7.03793204 20.3244916,7.00770312 L20.3913681,7 L40.0319588,7 Z" id="Combined-Shape"></path>
        </g>
    </g>
</svg>
