<svg width="100%" height="100%" viewBox="0 0 523 545" version="1.1" xmlns="http://www.w3.org/2000/svg" xmlns:xlink="http://www.w3.org/1999/xlink">
    <linearGradient id="Gradient20" x1="0" x2="0" y1="0" y2="1">
        <stop offset="0%" stop-color="#0288BA" />
        <stop offset="100%" stop-color="#015084" />
    </linearGradient>
    <g id="Desktop/web" stroke="none" stroke-width="1" fill="none" fill-rule="evenodd">
        <g id="Talking" fill="url(#Gradient20)" fill-rule="nonzero">
            <path d="M427.640118,532.5 C430.953827,532.5 433.640118,535.186292 433.640118,538.5 C433.640118,541.738397 431.074543,544.377572 427.865057,544.495862 L427.640118,544.5 L84.8408491,544.5 C81.5271406,544.5 78.8408491,541.813708 78.8408491,538.5 C78.8408491,535.261603 81.406424,532.622428 84.6159109,532.504138 L84.8408491,532.5 L427.640118,532.5 Z M449,532 C452.313708,532 455,534.686292 455,538 C455,541.313708 452.313708,544 449,544 C445.686292,544 443,541.313708 443,538 C443,534.686292 445.686292,532 449,532 Z M494.065287,330.300228 C519.01228,377.85089 528.056162,438.376598 521.349144,511.799277 C521.073993,514.811398 518.604332,517.134767 515.605701,517.249053 L515.374022,517.253462 L443.468708,517.253442 C443.364024,517.256507 443.259547,517.256802 443.155375,517.254371 L78.8290829,517.254371 C78.7249111,517.256802 78.6204337,517.256507 78.5157494,517.253442 L8.7175255,517.253462 C5.65588958,517.253462 3.08531836,514.948304 2.75297924,511.904759 C-5.37318625,437.485746 3.52862924,377.193369 29.6560133,331.127645 C31.2111156,328.385812 34.6227033,327.314821 37.4658309,328.675929 C55.3897024,337.256732 74.7504356,342.430247 90.542597,342.430247 C92.1357332,342.430247 93.6634635,343.063845 94.788985,344.191357 C102.026279,351.441452 109.888572,369.401093 118.702102,398.552241 L119.531167,401.317963 L120.365866,404.149349 C120.645045,405.104098 120.925172,406.069806 121.206258,407.046487 L122.052403,410.009465 L122.90436,413.03837 L123.76219,416.133293 C123.905654,416.654619 124.049365,417.178701 124.193325,417.705538 L125.060075,420.89965 L125.932847,424.16 C126.078814,424.708916 126.225035,425.260596 126.37151,425.815041 L127.253426,429.174912 L128.141513,432.601241 L129.035832,436.094115 C129.185407,436.681811 129.335245,437.272284 129.485346,437.865535 L130.389122,441.458394 L131.299278,445.118019 L132.215874,448.8445 C132.36918,449.471156 132.522757,450.100601 132.676606,450.732838 L133.602974,454.559766 L134.535931,458.45377 L134.227156,458.526 L135.44387,458.56743 L136.846895,458.607839 L138.276037,458.642447 L139.731559,458.671348 L141.964879,458.704208 L143.487502,458.71926 L145.822707,458.731791 L148.034873,458.73303 L152.024045,458.716171 L167.162393,458.572963 L170.267081,458.559962 L177.321061,458.559161 L177.320156,463.163 L177.958263,462.983549 L180.104387,462.389555 L182.196177,461.821731 L183.560668,461.457738 L185.562577,460.933608 L187.510964,460.435739 L188.780304,460.118434 L190.026082,459.812826 L191.248388,459.518925 L192.447312,459.236742 L193.622945,458.966287 L194.775377,458.70757 L195.904697,458.460602 L197.010997,458.225391 L198.094367,458.001949 L199.676624,457.688875 L200.703062,457.494899 L201.706886,457.312727 L202.688185,457.14237 L203.647051,456.983837 L204.583572,456.837139 L205.49784,456.702285 L206.389944,456.579287 L207.259975,456.468154 L208.108023,456.368896 L208.934179,456.281524 L209.738532,456.206048 C209.870779,456.19446 210.002121,456.183369 210.132561,456.172774 L210.90438,456.11516 C211.031215,456.106551 211.157152,456.098438 211.282192,456.090823 L212.021679,456.051095 C212.143138,456.045468 212.263703,456.040338 212.383377,456.035706 L213.090736,456.013886 C213.206851,456.011246 213.322078,456.009103 213.43642,456.007458 L214.111854,456.00357 L214.766117,456.011648 L215.399299,456.031704 L216.011492,456.063747 L216.602784,456.107787 L217.173267,456.163836 L217.72303,456.231902 L218.252164,456.311996 C218.338639,456.326347 218.424258,456.341201 218.509023,456.356556 L219.007382,456.454711 C219.251453,456.506801 219.487873,456.563411 219.716692,456.624547 C225.170099,458.081587 227.956602,462.779484 225.57699,467.866152 C225.075123,468.938945 224.423473,469.89135 223.51349,471.00468 L223.153705,471.437197 L222.280428,472.443275 L220.949566,473.956475 L220.527888,474.450615 L220.147471,474.911743 C220.087448,474.985912 220.029099,475.058753 219.972403,475.13029 L219.651879,475.544073 L219.369952,475.92774 L219.125555,476.282447 C218.824238,476.736599 218.620157,477.116615 218.501941,477.434843 L218.445845,477.595157 L218.416773,477.659749 C218.414905,477.667301 218.416874,477.672497 218.424234,477.679695 L218.545509,477.781776 C218.563076,477.798096 218.582768,477.817095 218.604778,477.839318 L218.677958,477.916206 C218.792676,478.04108 218.932169,478.176004 219.098222,478.319961 C220.830102,479.821391 223.536311,480.965288 227.433999,481.865632 L228.257489,482.048473 C228.397595,482.078379 228.539135,482.108006 228.682118,482.137357 L229.557413,482.310192 C229.706206,482.338459 229.85646,482.36646 230.008184,482.394199 L230.936244,482.557534 L231.900015,482.714816 C232.227271,482.76626 232.560551,482.816732 232.899924,482.86627 L233.9364,483.012118 L235.267516,483.186056 L237.756257,483.484363 L241.549229,483.915524 L243.307592,484.125523 L244.863191,484.32548 L245.916847,484.472683 L246.573255,484.570992 L247.499222,484.720702 L248.367297,484.875493 L248.920785,484.982835 L249.458943,485.094421 L250.246537,485.271498 L250.764571,485.397174 C254.93905,486.439322 257.952549,488.005728 259.853334,490.927875 C262.242331,494.600566 261.364435,498.711124 258.430953,501.791291 C257.268585,503.011781 255.743576,504.145052 253.825477,505.253382 L278.864156,505.253 L285.710015,495.513558 C284.540722,493.383643 283.780712,491.1275 283.438398,488.735957 L283.389241,488.368646 L283.156349,486.499134 L284.399027,484.127338 L285.248033,482.451458 L288.506702,475.905831 L288.756652,475.417986 L289.256382,474.463884 C294.671224,464.28245 300.171973,459.101095 310.655973,456.299537 L311.143406,456.171915 L312.117681,455.921997 L313.120195,456.003461 C313.716622,456.051926 314.308065,456.102381 314.894527,456.154832 L316.638979,456.318186 C317.266936,456.379677 317.88899,456.443548 318.505147,456.509807 L334.744946,436.491825 C336.832597,433.918427 340.611123,433.524651 343.184521,435.612302 C345.693585,437.647762 346.130644,441.290611 344.21597,443.856659 L344.064044,444.051878 L332.273082,458.586037 C336.927227,459.527669 341.115451,460.666277 344.842108,462.009174 L344.84166,458.559161 L351.89564,458.559962 L355.000328,458.572963 L370.138676,458.716171 L374.127848,458.73303 L376.340014,458.731791 L378.675219,458.71926 L380.197842,458.704208 L382.431162,458.671348 L383.886684,458.642447 L385.315826,458.607839 L386.718851,458.56743 L388.096023,458.521124 L389.447604,458.468826 L390.067156,458.441 L390.356982,456.870347 C390.59093,455.607321 390.827544,454.351531 391.066826,453.102977 L391.609712,450.305942 C393.251884,441.951466 395.015677,433.926656 396.901664,426.2313 L397.534853,423.678383 C397.641139,423.25493 397.747802,422.832494 397.854843,422.411075 L398.501618,419.89476 C399.587128,415.721236 400.710401,411.649377 401.871536,407.679146 L402.572761,405.309203 C409.512834,382.124674 417.771561,362.477573 427.369133,346.360396 C428.451096,344.543457 430.409635,343.430247 432.524325,343.430247 C441.665506,343.430247 454.019686,340.507562 465.981092,336.277061 L467.60942,335.69222 C474.110284,333.321644 480.445526,330.583804 486.029987,327.740769 C488.957454,326.250403 492.539126,327.391262 494.065287,330.300228 Z M37.456,341.871 L37.2020034,342.352066 C15.3923343,383.987688 7.61128688,437.894044 14.0177921,504.151585 L14.126,505.253 L55.7520169,505.253975 C46.7866025,498.085231 40.2067261,488.959892 36.101232,477.928957 L35.7677186,477.015659 L35.6904977,476.697363 C30.5313214,455.431773 29.9212162,430.787212 33.8032255,402.764733 C34.2579376,399.482371 37.2874348,397.190107 40.5697969,397.64482 C43.852159,398.099532 46.1444222,401.129029 45.6897101,404.411391 C42.0592205,430.618263 42.5590197,453.466462 47.1347394,472.956993 L47.274,473.544 L47.370092,473.803668 C52.8332182,488.431118 63.5188216,498.841777 79.8071149,505.253895 L148.000156,505.253 L148.000156,470.733 L145.734003,470.731721 L144.076422,470.72436 L142.446866,470.711355 L140.844979,470.692558 L138.493253,470.65318 L136.958986,470.619257 L135.451146,470.579025 L133.969378,470.532338 L132.513327,470.479046 L131.082636,470.419002 L129.676952,470.352059 L128.29592,470.278068 L126.939183,470.196883 L125.606387,470.108355 L124.297177,470.012337 L123.011198,469.908681 L121.748094,469.79724 L120.507511,469.677865 C120.302605,469.6573 120.098621,469.636398 119.895554,469.615156 L118.688086,469.483605 L117.502251,469.34375 L116.337693,469.195446 C116.145353,469.170016 115.953886,469.144228 115.763282,469.118079 L114.629975,468.956822 C114.4428,468.929215 114.256474,468.901241 114.07099,468.872896 L112.968135,468.698355 L111.885137,468.514773 C111.348543,468.420697 110.819262,468.323175 110.297095,468.222125 L109.262186,468.015294 C109.091263,467.98003 108.921115,467.944368 108.751735,467.908304 L107.744614,467.687081 L106.755576,467.456079 L105.784264,467.21515 L104.830323,466.964146 C102.309328,466.281238 99.969841,465.489291 97.7815594,464.575702 L96.9679823,464.227379 C96.0269401,463.814293 95.1141145,463.377622 94.2269681,462.916312 L93.6339091,462.602955 L93.4294192,462.471856 C86.9427535,458.313226 83.1517799,450.182583 81.059849,438.322534 L80.8715443,437.217175 C80.8409548,437.031185 80.8107602,436.844315 80.7809568,436.656564 L80.6068026,435.519508 L80.4418642,434.361372 L80.2859675,433.1822 L80.1389383,431.982034 L80.0006023,430.760917 L79.8707855,429.51889 L79.7493135,428.255997 C79.7297539,428.043778 79.7105347,427.830692 79.6916524,427.616739 L79.5823711,426.322625 L79.4809992,425.00775 L79.3873625,423.672157 L79.3012868,422.315888 L79.2058724,420.631151 L79.1087058,418.658097 L79.0468602,417.18676 L78.9783304,415.214847 L78.9368531,413.713723 L78.9034261,412.181073 L78.870675,410.069042 L78.8505451,407.854269 L78.8416601,404.900676 L78.8523814,401.016052 L78.9111528,392.576722 L78.9125875,391.539724 C78.9125875,388.226015 81.598879,385.539724 84.9125875,385.539724 C88.1509845,385.539724 90.7901593,388.105299 90.9084491,391.314786 L90.9125875,391.539724 L90.8910243,395.748225 L90.8525093,401.029554 L90.8418248,404.814947 L90.8447837,406.565034 L90.8537837,408.234531 L90.8758385,410.353938 L90.920834,412.868098 L90.9718707,414.802727 L91.0195133,416.225852 L91.0756058,417.637179 L91.1405285,419.047569 L91.2146616,420.467883 L91.2774328,421.556309 L91.3546826,422.763054 C91.3681504,422.962496 91.381914,423.161094 91.3959724,423.358844 L91.4838517,424.535131 L91.5787565,425.690859 L91.6806381,426.825825 L91.7894478,427.939827 L91.9051369,429.032662 L92.0276568,430.104128 L92.1569587,431.154021 L92.2929939,432.182139 L92.4357137,433.18828 C92.4600547,433.354127 92.4846722,433.51905 92.5095652,433.683045 L92.6622207,434.65584 L92.8214391,435.60615 C92.8485197,435.76265 92.8758718,435.918205 92.9034942,436.072811 L93.0724657,436.989015 L93.2478783,437.882228 L93.3379849,438.32015 L93.522968,439.178498 C93.5543264,439.319603 93.5859482,439.45973 93.6178323,439.598873 L93.8122763,440.421899 C93.8781347,440.692285 93.9450342,440.958704 94.0129667,441.221123 L94.2198547,441.996343 L94.4328918,442.747357 C94.4689076,442.870498 94.5051777,442.992621 94.5417009,443.113724 L94.7638702,443.828048 L94.9920667,444.517659 C95.1076636,444.856252 95.2255025,445.185502 95.345556,445.505295 L95.5886076,446.132237 C96.7365523,448.998803 98.0758199,451.034906 99.5841409,452.147872 L99.729,452.251 L99.7958869,452.28657 C100.624805,452.715819 101.497054,453.120085 102.415439,453.500382 L103.112922,453.781126 C104.054551,454.149502 105.043018,454.494163 106.081131,454.816123 L106.869068,455.053353 L107.675885,455.282166 C108.220115,455.431923 108.777107,455.576131 109.347213,455.714918 L110.212249,455.919049 C110.941382,456.085796 111.691277,456.24417 112.462622,456.394421 L113.398574,456.570838 C113.556297,456.599596 113.714888,456.628034 113.874354,456.656152 L114.841686,456.821048 L115.830266,456.978384 C115.996815,457.003981 116.16426,457.029268 116.332606,457.054246 L117.353553,457.200417 L118.396405,457.339265 L119.461428,457.470884 C119.640793,457.492224 119.821094,457.513266 120.002334,457.534013 L121.101104,457.654968 L122.025156,457.748 L121.603293,455.990247 L120.769798,452.561693 L119.941417,449.188335 L119.1182,445.870246 L118.300197,442.607499 L117.487457,439.400168 L116.68003,436.248326 L115.877966,433.152046 L115.081314,430.111402 C114.948992,429.609268 114.816898,429.109456 114.685033,428.611966 L113.896592,425.654913 L113.113688,422.753678 L112.336369,419.908336 L111.564686,417.118959 L110.798688,414.38562 L110.038425,411.708394 C109.912195,411.26687 109.786206,410.827686 109.660459,410.390846 L108.908891,407.797925 C108.659342,406.942996 108.410769,406.09745 108.163181,405.261299 L107.42338,402.781042 L106.689537,400.357227 L105.961701,397.989927 C105.840899,397.600091 105.720349,397.212613 105.600052,396.827493 L104.881321,394.545104 C104.762042,394.169428 104.643018,393.796115 104.524251,393.425166 L103.814736,391.227852 C103.696999,390.866364 103.579521,390.507244 103.462303,390.150493 L102.762115,388.038418 C102.529763,387.343876 102.298458,386.65882 102.068208,385.983262 L101.380631,383.985097 C101.038434,383.000275 100.698628,382.036852 100.361243,381.09487 L99.6897087,379.239505 C99.0214177,377.412752 98.3628823,375.671871 97.7143258,374.017192 L97.0691038,372.39126 C93.7527283,364.139194 90.7047204,358.191179 87.9558739,354.592709 L87.794,354.385 L87.12046,354.362671 C71.8407797,353.767956 54.4456223,349.277225 37.8757039,342.055506 L37.456,341.871 Z M356.841721,470.587 L356.841156,505.253 L362.000156,505.253 L362.000156,470.635 L356.841721,470.587 Z M165.321,470.587 L160.000156,470.638 L160.000156,505.253 L165.320156,505.253 L165.319642,471.178438 L165.319934,471.063277 L165.321,470.587 Z M310.570921,468.938719 L310.548196,468.947076 C306.262894,470.686398 303.613,473.399172 300.703871,478.536625 L300.2817,479.295633 C300.210968,479.424998 300.140032,479.555808 300.068867,479.688084 L299.63891,480.499491 L298.856869,482.042381 L296.776864,486.22935 L295.67,488.434 L295.675455,488.449363 C297.038217,492.244294 301.660744,496.086314 309.82482,499.668146 L310.713107,500.050904 C310.863418,500.114526 311.014861,500.178062 311.167439,500.24151 L312.096526,500.621124 C312.567887,500.810387 313.049484,500.998825 313.541361,501.186391 L314.538833,501.560344 C314.707367,501.622471 314.877046,501.684498 315.047873,501.746422 L316.086607,502.116727 L317.152945,502.484495 C317.332973,502.545573 317.514154,502.606543 317.69649,502.667401 L318.80438,503.031206 C318.991342,503.091613 319.179463,503.151906 319.368743,503.212083 L320.518357,503.571735 C320.906209,503.691145 321.298713,503.810077 321.695883,503.928515 L322.879363,504.275969 L322.596156,505.253 L344.841156,505.253 L344.842721,474.970854 C339.607937,472.504162 332.521898,470.580727 323.617582,469.255915 L321.210006,472.223511 C319.122355,474.79691 315.343828,475.190685 312.77043,473.103034 C311.448192,472.030378 310.701376,470.511329 310.570921,468.938719 Z M294.043275,504.525582 L293.532156,505.253 L295.073598,505.253694 C294.722513,505.013139 294.379065,504.770443 294.043275,504.525582 Z M486.064,341.06 L486.026548,341.078943 C470.548983,348.24653 451.687696,354.199671 436.986835,355.261725 L436.036,355.323 L435.843227,355.660685 C431.433226,363.439175 427.315561,372.082124 423.492649,381.588634 L422.731997,383.501449 C422.605877,383.822171 422.480085,384.143852 422.35462,384.466492 L421.605767,386.413847 L420.864784,388.384227 L420.131677,390.377629 C419.767093,391.380085 419.405463,392.391175 419.046791,393.410896 L418.33339,395.461848 C418.096905,396.149335 417.861734,396.840658 417.62788,397.535817 L416.930264,399.632801 C415.196095,404.90403 413.535978,410.391014 411.950213,416.093641 L411.319874,418.386192 C411.006688,419.538218 410.696477,420.698869 410.389245,421.868145 L409.778752,424.218194 C409.677665,424.611785 409.576909,425.006335 409.476485,425.401842 L408.877912,427.786386 C408.778813,428.185726 408.680045,428.586024 408.581608,428.98728 L407.994966,431.406313 C407.897856,431.811402 407.801077,432.217448 407.70463,432.624452 L407.129928,435.077972 C407.034808,435.488808 406.94002,435.900602 406.845564,436.313353 L406.282811,438.801357 C406.189684,439.217939 406.096888,439.63548 406.004424,440.053978 L405.453632,442.576461 L404.910817,445.121928 L404.375985,447.690378 C404.287512,448.120368 404.199372,448.551316 404.111564,448.983221 L403.588714,451.586142 L403.073858,454.212042 L402.566999,456.860919 L402.446156,457.5 L402.701293,457.470884 L403.766315,457.339265 L404.809168,457.200417 L405.830114,457.054246 L406.081959,457.016547 L406.332455,456.978384 L407.321035,456.821048 L408.288367,456.656152 L408.52691,456.613735 L408.764147,456.570838 L409.700099,456.394421 C410.214329,456.294254 410.719026,456.190476 411.214393,456.083014 L411.950472,455.919049 L412.815508,455.714918 C413.195578,455.622393 413.569821,455.527459 413.938339,455.430078 L414.486836,455.282166 L415.293653,455.053353 L416.08159,454.816123 C416.91208,454.558555 417.710797,454.286458 418.479178,453.999314 L419.049799,453.781126 L419.747282,453.500382 C420.436071,453.215159 421.098908,452.916454 421.736977,452.603838 L422.366834,452.28657 L422.433721,452.251 L422.57858,452.147872 C424.015076,451.087905 425.298236,449.190625 426.408822,446.536087 L426.574113,446.132237 L426.817165,445.505295 L426.995581,445.018527 L427.170654,444.517659 L427.398851,443.828048 L427.62102,443.113724 L427.675615,442.931305 L427.729829,442.747357 L427.942866,441.996343 L428.149754,441.221123 L428.250877,440.824499 L428.350445,440.421899 L428.544889,439.598873 L428.592518,439.389421 L428.639753,439.178498 L428.824736,438.32015 L428.914843,437.882228 L429.090255,436.989015 L429.259227,436.072811 L429.300457,435.840191 L429.341282,435.60615 L429.5005,434.65584 L429.653156,433.683045 L429.690288,433.436357 L429.727007,433.18828 L429.869727,432.182139 L430.005762,431.154021 L430.135064,430.104128 L430.257584,429.032662 L430.373273,427.939827 L430.482083,426.825825 L430.583964,425.690859 L430.678869,424.535131 L430.766748,423.358844 L430.787615,423.061584 L430.808038,422.763054 L430.885288,421.556309 L430.948059,420.467883 L431.022192,419.047569 L431.087115,417.637179 L431.143208,416.225852 L431.19085,414.802727 L431.241887,412.868098 L431.286882,410.353938 L431.308937,408.234531 L431.317937,406.565034 L431.320896,404.814947 L431.310212,401.029554 L431.271697,395.748225 L431.250133,391.539724 L431.254272,391.314786 C431.372562,388.105299 434.011736,385.539724 437.250133,385.539724 C440.48853,385.539724 443.127705,388.105299 443.245995,391.314786 L443.250133,391.539724 L443.251568,392.576722 L443.31034,401.016052 L443.321061,404.900676 L443.312176,407.854269 L443.292046,410.069042 L443.259295,412.181073 L443.225868,413.713723 L443.184391,415.214847 L443.115861,417.18676 L443.054015,418.658097 L442.956848,420.631151 L442.861434,422.315888 L442.775358,423.672157 L442.681722,425.00775 L442.58035,426.322625 L442.471068,427.616739 L442.442492,427.937018 L442.413407,428.255997 L442.291935,429.51889 L442.162119,430.760917 L442.023783,431.982034 L441.876753,433.1822 L441.720857,434.361372 L441.555918,435.519508 L441.381764,436.656564 L441.336765,436.93753 L441.291177,437.217175 L441.102872,438.322534 C439.047009,449.978099 435.350186,458.031751 429.06642,462.253213 L428.733302,462.471856 L428.528812,462.602955 L427.935753,462.916312 C427.270393,463.262295 426.590589,463.594418 425.895269,463.913126 L425.194739,464.227379 L424.381162,464.575702 C422.436022,465.387781 420.371412,466.103748 418.166048,466.732455 L417.332398,466.964146 L416.378457,467.21515 L415.407145,467.456079 L414.418107,467.687081 L413.410986,467.908304 L413.156339,467.962099 L412.900534,468.015294 L411.865626,468.222125 L411.077015,468.371064 L410.277584,468.514773 L409.194586,468.698355 L408.091731,468.872896 L407.812873,468.915136 L407.532746,468.956822 L406.399439,469.118079 L406.112884,469.157032 L405.825028,469.195446 L404.66047,469.34375 L403.474635,469.483605 L402.267167,469.615156 L401.65521,469.677865 L400.414626,469.79724 L399.151523,469.908681 L397.865544,470.012337 L396.556334,470.108355 L395.223538,470.196883 L393.866801,470.278068 L392.485768,470.352059 L391.080084,470.419002 L389.649394,470.479046 L388.193343,470.532338 L386.711574,470.579025 L385.203735,470.619257 L383.669468,470.65318 L381.317742,470.692558 L379.715855,470.711355 L378.086299,470.72436 L376.428718,470.731721 L374.112099,470.733021 L374.000156,470.733 L374.000156,505.253 L442.177343,505.253895 C458.255203,498.924617 468.874203,488.699448 474.40001,474.368487 L474.614366,473.803668 L474.710458,473.544 L474.849718,472.956993 C479.425438,453.466462 479.925237,430.618263 476.294748,404.411391 C475.840036,401.129029 478.132299,398.099532 481.414661,397.64482 C484.697023,397.190107 487.72652,399.482371 488.181232,402.764733 C492.003518,430.356097 491.470846,454.672679 486.528846,475.713475 L486.29396,476.697363 L486.216739,477.015659 L485.883226,477.928957 C481.777732,488.959892 475.197855,498.085231 466.232441,505.253975 L509.868,505.253 L509.943832,504.327689 C515.150379,438.7649 507.201185,384.467808 486.218682,341.373611 L486.064,341.06 Z M210.178,468.169 L209.304904,468.268784 L208.153146,468.417968 C208.021354,468.436114 207.888292,468.454784 207.753962,468.473978 L206.932796,468.595429 C206.793407,468.61672 206.652756,468.638535 206.510845,468.660875 L205.644292,468.801217 L204.747643,468.954169 L203.821028,469.119748 L202.864577,469.297967 L201.878421,469.488841 L200.343771,469.798914 L199.283917,470.021491 L198.194812,470.256774 L197.076586,470.504778 L195.344927,470.900669 L194.154465,471.18054 L192.315062,471.6243 L190.411597,472.096847 L189.107246,472.427896 L187.774748,472.771776 L185.723508,473.311686 L183.609667,473.880547 L182.165878,474.275898 L179.948675,474.893123 L178.436384,475.320761 L177.320156,475.64 L177.320156,505.253 L217.387156,505.253 L218.868644,504.861742 L220.309429,504.474084 L222.41072,503.898687 L223.771596,503.519185 L225.752828,502.95614 L227.661836,502.400618 L228.894314,502.034493 L230.682635,501.4917 L231.834524,501.134138 L232.954105,500.780046 L234.041335,500.429449 L235.096173,500.082371 L236.617602,499.56841 L237.591276,499.230243 L238.532412,498.895683 L239.440967,498.564756 L240.316899,498.237488 C240.460167,498.183249 240.602074,498.129164 240.742619,498.075233 L241.56954,497.753499 C241.704634,497.700186 241.838364,497.647028 241.97073,497.594025 L242.748545,497.277882 C242.875449,497.225504 243.000987,497.173283 243.125159,497.121218 L243.853773,496.810722 L244.549535,496.504023 L244.717,496.428 L243.894755,496.30694 L243.243687,496.216864 L242.545141,496.12491 L241.399581,495.981932 L240.12477,495.83081 L235.859676,495.344889 L234.255211,495.152758 L233.268373,495.028267 L232.323107,494.903177 L231.097049,494.730738 C222.03237,493.408675 215.888522,491.419022 211.237659,487.38702 C210.734968,486.951218 210.269276,486.500778 209.84097,486.034559 C206.56158,482.464877 205.670376,478.15176 207.032261,473.894817 C207.656095,471.944855 208.600886,470.258966 209.990429,468.415104 L210.178,468.169 Z M238.07479,338.490581 C240.684993,338.918176 242.665953,340.481895 243.873779,342.682218 C244.494892,343.813711 244.852993,344.914556 245.220556,346.502215 L245.523188,347.891567 L245.800888,349.199911 L245.952226,349.876185 C246.026251,350.197425 246.09892,350.497736 246.175232,350.797002 C246.558238,352.299002 247.005049,353.64075 247.591668,354.968502 C249.102669,358.388501 251.493404,361.578739 255.240495,364.705286 C258.528588,367.448848 262.754738,370.034776 268.054943,372.4297 L268.632,372.687 L268.976818,372.549595 C276.134841,369.639856 281.38385,366.188379 285.077522,362.311928 L285.390322,361.978623 C287.999568,359.155464 289.714446,356.214215 290.838049,353.024207 C291.211916,351.962765 291.512954,350.898662 291.779942,349.737324 L291.936299,349.027186 L292.187067,347.761658 L292.589486,345.67121 C292.873328,344.295608 293.145369,343.344659 293.653423,342.344796 C294.808879,340.070833 296.941431,338.411659 299.863544,338.411659 C300.801122,338.411659 302.139828,338.645266 303.731163,339.068877 L304.428197,339.261931 C304.546803,339.296003 304.66659,339.331012 304.787503,339.366944 L305.526068,339.593466 C305.776474,339.672575 306.030954,339.755244 306.289073,339.841347 L307.07392,340.109824 L307.473723,340.251547 L308.286463,340.549489 C308.42327,340.600724 308.560718,340.652739 308.69875,340.705516 L309.533538,341.031205 C309.673696,341.08697 309.81433,341.143466 309.955388,341.200677 L310.806379,341.552398 C311.376513,341.792431 311.951684,342.043397 312.528427,342.304281 C319.449317,345.43487 326.321721,349.791126 332.526807,355.398078 C349.712387,370.927071 359.029033,393.231127 356.824032,422.619514 C356.576102,425.923934 353.696353,428.40171 350.391933,428.15378 C347.087512,427.90585 344.609737,425.026102 344.857667,421.721681 C346.780083,396.099602 338.964133,377.388213 324.481508,364.301626 C319.246778,359.571493 313.420606,355.878419 307.582792,353.237748 C306.304069,352.659331 305.067365,352.152421 303.909452,351.723845 L303.651,351.629 L303.643705,351.665736 C303.301273,353.261577 302.909104,354.754378 302.413275,356.257753 L302.156472,357.010847 C300.507799,361.691575 297.964813,366.05314 294.202901,370.123464 C288.854668,375.910161 281.332848,380.753327 271.296996,384.525622 L270.575869,384.793248 L268.385355,385.595887 L266.227997,384.707975 C258.54023,381.543894 252.375104,377.943068 247.55252,373.919137 C242.379875,369.603116 238.867864,364.916629 236.615238,359.818036 C235.738854,357.83443 235.085325,355.871921 234.547323,353.762087 C234.48157,353.50423 234.418732,353.249361 234.356998,352.990531 L234.173304,352.195214 L233.917974,351.0142 L233.897,350.914 L233.512145,351.022806 C231.990954,351.462475 230.278307,352.086025 228.481029,352.876372 L227.939413,353.118464 C221.821419,355.89729 215.755562,360.095052 210.469217,365.659605 C195.840626,381.058067 189.099014,404.310683 193.978155,436.925283 C194.46843,440.202522 192.209149,443.256695 188.93191,443.74697 C185.654671,444.237245 182.600498,441.977964 182.110223,438.700725 C176.6987,402.527422 184.519671,375.551971 201.769239,357.394595 C205.086105,353.903171 208.832155,350.777754 212.668248,348.117902 L213.554945,347.512399 C213.998938,347.213826 214.443782,346.921553 214.888957,346.635733 L215.779593,346.072742 C218.303437,344.502238 220.826739,343.142229 223.254702,342.020544 L224.107517,341.634596 C229.764498,339.128186 234.831898,337.959342 238.07479,338.490581 Z M217.979704,397.290052 C221.218101,397.290052 223.857276,399.855627 223.975566,403.065114 L223.979704,403.290052 L223.979704,435.813004 C223.979704,439.126712 221.293413,441.813004 217.979704,441.813004 C214.741307,441.813004 212.102132,439.247429 211.983842,436.037942 L211.979704,435.813004 L211.979704,403.290052 C211.979704,399.976344 214.665996,397.290052 217.979704,397.290052 Z M319.092034,397.290052 C322.330431,397.290052 324.969606,399.855627 325.087896,403.065114 L325.092034,403.290052 L325.092034,430.57093 C325.092034,433.884638 322.405743,436.57093 319.092034,436.57093 C315.853638,436.57093 313.214463,434.005355 313.096173,430.795868 L313.092034,430.57093 L313.092034,403.290052 C313.092034,399.976344 315.778326,397.290052 319.092034,397.290052 Z M267.632087,174 C284.944653,174 301.011779,190.271548 301.33139,206.681496 L301.332643,206.724763 C316.84636,217.648589 327,235.876864 327,256.5 C327,264.621923 325.422032,272.529288 322.398771,279.865421 L322.091632,280.597118 L321.983,280.55001 C321.994311,281.031914 322,281.515268 322,282 C322,313.388665 298.146306,339 268.5,339 C239.704594,339 216.374056,314.837745 215.058524,284.687979 L214.886746,284.777201 C210.386161,276.135495 208,266.485511 208,256.5 C208,235.575151 218.452905,217.115747 234.351674,206.250027 C234.925959,189.941165 250.503228,174 267.632087,174 Z M69.0476083,181.461631 C74.3285278,181.769939 78.3504681,182.661585 83.396423,184.601944 L84.3864594,184.990717 C85.0558256,185.258797 85.7446933,185.544836 86.4579669,185.849835 L87.546795,186.32168 L88.6759104,186.822713 L89.8489916,187.353687 L92.7352026,188.683926 L93.6963599,189.120057 L94.6091723,189.527013 L95.4776715,189.905987 L96.3058894,190.258171 L97.0978578,190.584758 L97.8576085,190.88694 C97.9817727,190.935336 98.1047626,190.982765 98.2266621,191.029252 L98.9456457,191.297064 L99.6424912,191.543454 C100.444131,191.818875 101.208804,192.052994 101.965321,192.254332 L102.612438,192.419079 C103.151157,192.550009 103.689915,192.665457 104.23921,192.768529 L104.904094,192.886473 C105.127856,192.92394 105.353977,192.959626 105.583127,192.993729 C109.935722,193.641499 113.334216,193.392937 117.879634,192.392397 L121.484192,191.559307 C122.72078,191.285094 123.718176,191.103001 124.704768,190.990656 C127.593087,190.661757 130.155093,190.992189 132.601412,192.295309 C136.948396,194.610885 139.258945,198.472686 139.640488,203.363551 C139.781277,205.168279 139.690701,207.009277 139.363026,209.229095 L139.237522,210.028848 C139.147277,210.573246 139.043867,211.140849 138.92722,211.736117 L138.74231,212.650327 L138.537486,213.609383 L138.312692,214.616632 L138.067871,215.67542 C137.917196,216.3173 137.783547,216.941579 137.64903,217.622858 L137.46761,218.573866 L137.130078,220.394557 L136.964447,221.223576 C136.375633,224.030335 135.67036,225.877897 134.192269,227.909424 C132.673956,229.996235 130.565604,231.818389 127.242319,233.994107 L126.421084,234.523385 L126.349926,234.567354 C126.570717,235.219409 126.780397,235.904581 126.979091,236.621277 L127.192313,237.418724 C127.401156,238.228619 127.596877,239.075624 127.779642,239.957644 L127.958094,240.851258 C127.987118,241.002113 128.015784,241.153921 128.044092,241.306673 L128.209657,242.234427 C128.236538,242.390914 128.263063,242.548325 128.289233,242.706651 L128.441994,243.667498 C128.466746,243.829442 128.491143,243.992281 128.515188,244.156005 L128.655227,245.148896 C128.677863,245.316123 128.700148,245.484215 128.722082,245.653164 L128.849482,246.677051 C128.870016,246.849385 128.890201,247.022556 128.910038,247.196554 L129.024882,248.250389 C129.043328,248.427657 129.061427,248.605732 129.07918,248.784604 L129.181552,249.867339 L129.275654,250.968757 L129.361523,252.088394 L129.439197,253.225783 L129.508711,254.380458 L129.570103,255.551953 L129.62341,256.739803 C129.631623,256.939115 129.6395,257.139089 129.647043,257.339715 L129.68829,258.551223 L129.721544,259.777921 C129.726423,259.983611 129.730969,260.189914 129.735185,260.396821 L129.756518,261.64543 C129.759414,261.854713 129.761981,262.064581 129.764219,262.275023 L129.773714,263.544495 L129.775362,264.827293 L129.7692,266.122952 L129.755266,267.431005 L129.733596,268.750986 L129.704227,270.08243 L129.667196,271.424871 L129.622539,272.777843 L129.570294,274.14088 L129.510496,275.513516 L129.4396,276.965606 L129.361605,278.402201 L129.276454,279.822962 L129.184089,281.227548 L129.084452,282.615619 L128.977487,283.986836 L128.863134,285.340858 L128.741336,286.677346 L128.612037,287.99596 L128.475178,289.29636 L128.330701,290.578206 L128.178549,291.841159 L128.018665,293.084877 L127.85099,294.309022 C127.793793,294.71377 127.735289,295.1152 127.675467,295.513254 L127.492038,296.697232 L127.300646,297.860616 L127.101233,299.003068 C127.033419,299.380358 126.964258,299.754103 126.893742,300.124246 L126.678114,301.223812 C126.495018,302.131017 126.303387,303.015354 126.10307,303.875938 L125.858512,304.897182 C125.775596,305.233758 125.691282,305.566477 125.605558,305.895283 L125.344151,306.869902 C125.211324,307.351284 125.075306,307.823732 124.936064,308.287056 L124.653271,309.201482 C122.547794,315.817222 119.744148,320.442753 116.140038,322.474881 C110.650495,325.570083 104.554756,326.847779 98.1637819,326.399742 L97.9975083,332.172901 C97.9020177,335.485233 95.1394314,338.092999 91.8270991,337.997508 C88.590047,337.904188 86.0258999,335.263626 86.0001465,332.052063 L86.0024917,331.827099 L86.2367128,323.684623 C78.7652805,320.852997 71.1594747,315.904035 63.8632761,308.96877 C61.4614766,306.685785 61.3651588,302.888016 63.6481443,300.486217 C65.9311298,298.084417 69.7288985,297.988099 72.1306981,300.271085 C86.2501006,313.692018 100.204426,317.450043 109.952202,312.184277 L110.246297,312.021947 C110.234849,312.028402 110.231455,312.028268 110.235427,312.021066 L110.268759,311.977771 L110.451551,311.752402 C110.472549,311.725431 110.494873,311.696331 110.518439,311.665044 C110.892072,311.168986 111.308428,310.442666 111.736099,309.505664 C112.690013,307.415694 113.597884,304.5095 114.400405,300.945685 C115.980451,293.929058 117.072547,284.726496 117.523255,274.960308 C117.962285,265.447136 117.761277,256.018449 116.956727,248.5827 C116.912195,248.171129 116.865947,247.766976 116.818038,247.370505 L116.669377,246.204395 C116.369467,243.972681 116.014312,242.013706 115.614607,240.380173 C109.89649,242.873827 104.280265,244.224818 96.7590997,245.147476 L95.4108858,245.306084 C95.1827476,245.331825 94.9528574,245.357231 94.721164,245.382321 C89.8224567,245.912804 86.4274216,245.675564 81.4183856,244.769483 L79.002705,244.322636 L78.6228711,244.25598 C75.5900966,243.733711 73.6073722,243.699158 70.9309234,244.270864 C67.006376,245.109171 65.0227809,246.897435 64.1664367,250.225031 L64.0976666,250.505906 L62.3762673,250.104593 C63.5807449,252.802563 64.253805,255.758861 64.253805,258.871414 C64.253805,262.185122 61.5675135,264.871414 58.253805,264.871414 C55.0154081,264.871414 52.3762333,262.305839 52.2579435,259.096352 L52.253805,258.871414 C52.253805,252.831282 46.1015451,247.484719 39.1341412,247.484719 C36.9184008,247.484719 36.1093788,248.001542 35.4116659,249.506358 C34.7517493,250.929656 34.3432964,253.019906 34.1617528,255.934507 L34.1178483,256.749955 L34.0850848,257.606989 C34.0805465,257.753333 34.0764678,257.901439 34.0728464,258.051323 L34.0565869,258.972067 C34.0529839,259.28617 34.0511916,259.607499 34.0511916,259.936172 C34.0511916,261.456678 35.0209838,263.152092 36.5989361,264.779102 L36.9891362,265.168146 C38.2605732,266.395172 39.8665731,267.571444 41.6483881,268.590154 L42.2167257,268.906489 C45.4683242,270.667967 49.2294105,271.888893 52.5903149,271.957222 L52.8858036,271.960244 C56.1995121,271.960244 58.8858036,274.646536 58.8858036,277.960244 C58.8858036,281.273953 56.1995121,283.960244 52.8858036,283.960244 C49.7312686,283.960244 46.4289897,283.398922 43.2065714,282.379883 L43.207096,311.279132 C43.207096,314.592841 40.5208045,317.279132 37.207096,317.279132 C33.9686991,317.279132 31.3295243,314.713557 31.2112345,311.504071 L31.207096,311.279132 L31.2061499,276.047874 C25.7905728,271.749194 22.0511916,266.065569 22.0511916,259.936172 L22.0529007,259.330818 L22.0668897,258.151846 C22.0930442,256.726117 22.1528322,255.393453 22.2533356,254.140034 C15.070544,247.527414 12.9698439,237.691876 15.6847315,225.52976 C17.561894,217.120474 21.3293419,209.326203 26.4605226,202.08978 C29.0802964,198.395155 31.3437185,195.693871 34.2436986,192.630215 L35.2352969,191.593716 C35.4049467,191.418109 35.5769016,191.240919 35.751332,191.061913 L36.8289817,189.964229 C42.8624664,183.859463 54.2574106,180.598157 69.0476083,181.461631 Z M446.582055,177.815835 C447.057944,177.815835 447.545222,177.823777 448.042755,177.839344 L448.796606,177.868373 L449.720337,177.917969 L449.954367,177.93284 L450.189591,177.948686 L451.141958,178.021698 L451.624704,178.063891 L452.11158,178.109807 L453.096989,178.212599 L454.096713,178.329664 L455.109285,178.46059 L456.133235,178.604964 L456.390828,178.64311 L456.649017,178.682065 L457.687279,178.845839 L457.948106,178.888739 L458.209391,178.932409 L459.258659,179.114657 L460.313429,179.308706 L461.37223,179.514144 L462.433593,179.730559 L462.699163,179.78633 L462.964777,179.842755 L464.02723,180.074863 L465.088572,180.316919 L465.353562,180.378939 L465.618367,180.441549 L466.675289,180.697754 L467.727426,180.962876 L468.251242,181.098653 L469.29345,181.37638 L470.3272,181.661994 L470.584145,181.734582 L470.840445,181.807631 L471.858756,182.104305 L472.864937,182.407837 L473.857519,182.717816 L474.835032,183.033829 L475.317679,183.19397 L475.796008,183.355465 L476.738977,183.682312 L477.66247,184.013957 L478.565018,184.349989 L479.445151,184.689995 L480.301401,185.033565 L480.511559,185.119966 L480.72011,185.206558 L481.537779,185.5547 L481.737948,185.642148 L481.936372,185.729747 L482.712154,186.081535 C485.356139,187.3071 487.461464,188.567335 488.751002,189.784548 L488.958324,189.987006 L489.025709,190.0541 L492.430095,193.280269 L493.09752,193.934621 C494.781168,195.608238 496.262807,197.256486 497.699185,199.11555 C502.067708,204.769613 505.292384,211.528764 507.181179,219.990159 C509.968769,232.477966 508.047621,244.693991 501.511016,256.362751 L501.174669,256.955605 L499.869664,256.205632 C499.880669,256.644391 499.886112,257.091929 499.886112,257.548444 C499.886112,263.327936 497.010422,268.911277 492.64576,273.337673 L492.665323,273.612269 L492.671761,273.890309 L492.671761,311.956163 L492.667622,312.181101 C492.549333,315.390588 489.910158,317.956163 486.671761,317.956163 C483.433364,317.956163 480.794189,315.390588 480.675899,312.181101 L480.671761,311.956163 L480.671736,281.021867 C477.791899,282.060193 474.806877,282.637275 471.883858,282.637275 C468.570149,282.637275 465.883858,279.950983 465.883858,276.637275 C465.883858,273.398878 468.449433,270.759703 471.65892,270.641413 L471.883858,270.637275 L472.164721,270.633627 C474.948468,270.561696 477.953189,269.431652 480.582697,267.737688 L480.938885,267.503243 L481.45813,267.143072 C485.035216,264.584165 487.732689,261.01525 487.879788,257.821264 L487.886112,257.548444 L487.880392,256.523624 L487.869482,255.889186 L487.852066,255.292034 L487.846612,255.148397 L487.840696,255.006976 L487.812187,254.462968 L487.775395,253.952534 L487.764819,253.829997 L487.75367,253.709442 L487.703118,253.246582 C487.372494,250.577894 486.505583,249.500771 484.424682,248.59922 L484.205059,248.506524 L483.830074,248.357976 L483.222515,248.136362 L482.786384,247.987259 C482.393468,247.855722 481.634612,247.866365 480.641222,248.137361 C479.387614,248.479343 478.020772,249.172709 476.772216,250.128827 C474.192174,252.104569 472.626403,254.745488 472.521487,257.277598 L472.515856,257.548444 L472.511718,257.773383 C472.393428,260.982869 469.754253,263.548444 466.515856,263.548444 C463.202148,263.548444 460.515856,260.862153 460.515856,257.548444 C460.515856,255.166476 460.994463,252.845068 461.844555,250.660666 L459.602044,251.182937 L459.533274,250.902061 C458.67693,247.574466 456.693334,245.786201 452.768787,244.947894 C451.567426,244.691276 450.356457,244.552102 449.04117,244.512887 L448.470813,244.50215 L447.693388,244.502805 L447.088049,244.515911 L446.618625,244.534703 L445.941481,244.573692 L445.170707,244.630871 L443.195249,244.809694 L440.003451,245.128336 C439.656582,245.162274 439.315221,245.194746 438.978909,245.225722 L438.478171,245.271059 L437.017962,245.393356 C431.294886,245.840813 426.910716,245.782289 421.192251,245.028854 C417.373215,244.525679 413.506712,243.17942 409.806489,241.23411 L409.479703,243.29378 L409.103093,245.742571 L408.746941,248.136843 L408.520806,249.702977 L408.303665,251.245239 L407.994732,253.514189 L407.799904,254.997402 L407.613934,256.457248 L407.436781,257.893869 L407.187498,260.005569 L406.957834,262.065823 L406.815559,263.410984 L406.681906,264.733639 L406.556834,266.033931 L406.440305,267.312006 L406.33228,268.568005 L406.23272,269.802074 L406.141585,271.014355 L406.058836,272.204992 L405.984434,273.37413 L405.918339,274.521911 L405.860513,275.64848 L405.810916,276.75398 L405.769508,277.838555 L405.736252,278.902348 C405.731386,279.077923 405.726858,279.252638 405.722668,279.426497 L405.701564,280.459387 L405.688512,281.471856 C405.687006,281.638907 405.685833,281.805113 405.684994,281.970476 L405.683948,282.952581 L405.690857,283.914623 L405.70568,284.856745 L405.72838,285.779092 L405.758917,286.681807 L405.797252,287.565034 L405.843344,288.428916 L405.897157,289.273597 C405.906766,289.412786 405.916696,289.55118 405.926945,289.688783 L405.992262,290.504933 C406.003785,290.639384 406.015625,290.773049 406.027781,290.905933 L406.104516,291.693875 L406.188812,292.46319 L406.280632,293.214024 L406.379935,293.946519 L406.486683,294.660819 C406.505093,294.77836 406.523811,294.89515 406.542837,295.01119 L406.6979,295.915797 C407.753792,301.803593 409.272451,304.882502 412.457428,308.113301 L412.947823,308.59943 C413.115553,308.762099 413.287601,308.925519 413.464114,309.090058 L414.007206,309.587405 C414.100005,309.67098 414.193958,309.754927 414.289084,309.839293 L415.513742,310.901037 L416.343362,311.616072 C417.871181,312.942173 421.186447,313.649499 425.28837,313.521426 L426.020201,313.490109 L426.767142,313.441183 C428.903725,313.277365 431.207538,312.898326 433.553481,312.276987 C441.554358,310.157902 447.845544,305.903736 449.933702,301.255 L450.047394,300.991454 C451.313918,297.929334 454.822977,296.473714 457.885097,297.740238 C460.947218,299.006761 462.402837,302.51582 461.136314,305.577941 C457.615362,314.090678 448.034778,320.513416 437.666672,323.583399 L437.66622,331.493384 C437.66622,334.807093 434.979929,337.493384 431.66622,337.493384 C428.427823,337.493384 425.788648,334.927809 425.670359,331.718322 L425.66622,331.493384 L425.666162,325.565567 C419.072266,325.764263 412.996298,324.35747 408.86469,321.003532 L408.36498,320.581007 L407.033021,319.434824 C406.300639,318.802648 405.606954,318.177426 404.949818,317.552406 L404.304784,316.927203 C399.029706,311.713577 396.242975,306.357726 394.700951,296.952771 L394.636967,296.55416 L394.515163,295.744174 L394.4016,294.917032 C394.383361,294.777736 394.365467,294.637719 394.347918,294.496976 L394.246773,293.643785 L394.153942,292.77302 L394.069456,291.884512 L393.993344,290.978094 L393.925635,290.053599 C393.915052,289.898001 393.904821,289.741643 393.894941,289.584521 L393.839893,288.632596 L393.793322,287.662176 L393.755257,286.673093 L393.725728,285.66518 L393.704765,284.638269 L393.692397,283.592193 L393.688653,282.526784 L393.693563,281.441875 L393.707156,280.337299 L393.729462,279.212888 C393.733908,279.023824 393.738717,278.833927 393.743892,278.643192 L393.779322,277.488715 L393.823539,276.313986 L393.876572,275.118835 L393.93845,273.903097 L394.047917,272.04052 L394.177452,270.13068 L394.275006,268.830916 L394.381553,267.509727 L394.497122,266.166945 L394.621742,264.802405 L394.755444,263.415937 L394.898256,262.007374 L395.129621,259.852738 L395.38165,257.647447 L395.654443,255.390937 L395.84789,253.857863 L396.050638,252.301607 L396.262718,250.722001 L396.598399,248.308445 L396.833937,246.669732 L397.204943,244.166731 L397.597275,241.60931 L397.870728,239.87385 L398.298827,237.224473 L398.748519,234.51917 C398.799688,234.215453 398.851259,233.910689 398.903232,233.604876 L398.941234,233.400958 C391.584251,226.469157 386.407846,217.62585 386.228482,210.086562 L386.22367,209.683938 L386.22367,209.002069 L386.376675,208.337589 L386.468455,207.959874 C387.847557,202.567945 391.984902,197.989945 398.185714,193.584219 L398.63213,193.269808 L399.524719,192.656773 L399.980857,192.350899 L400.604935,191.938716 L401.503516,191.357579 L402.087745,190.988685 L402.959334,190.452469 L403.846198,189.923992 L404.771937,189.388844 L405.760153,188.832615 L406.834449,188.240895 L408.441539,187.371821 L409.808473,186.641251 C417.879034,182.342178 434.533163,177.815835 446.582055,177.815835 Z M268.5,237 C245.679255,237 227,257.055621 227,282 C227,306.944379 245.679255,327 268.5,327 C291.320745,327 310,306.944379 310,282 C310,257.055621 291.320745,237 268.5,237 Z M267.5,208 C241.2916,208 220,229.689574 220,256.5 C220,256.958201 220.006215,257.415442 220.018604,257.871627 C228.530313,238.481876 246.990533,225 268.5,225 C288.407533,225 305.703096,236.548509 314.917987,253.640003 C313.468646,228.163839 292.769789,208 267.5,208 Z M446.582055,189.815835 C443.248647,189.815835 439.386308,190.2619 435.481321,190.983052 L434.699899,191.1309 L433.508927,191.36961 C432.715414,191.533954 431.923518,191.708466 431.137317,191.891712 L429.962797,192.172952 L428.799879,192.466218 C428.157603,192.632285 427.522114,192.803421 426.895773,192.978796 L425.963417,193.244936 L424.865195,193.571821 L423.792339,193.905892 C420.624688,194.914685 417.838417,196.005458 415.801747,197.048743 L415.450191,197.232333 L413.797277,198.116788 L412.372733,198.889987 L411.730242,199.24446 L410.835889,199.746805 L410.27666,200.067723 L409.477468,200.537725 L408.706826,201.005591 L408.198354,201.322712 L407.427723,201.815804 L406.899436,202.161736 L406.249602,202.5957 C402.130361,205.385814 399.376355,208.072828 398.395689,210.128876 L398.306336,210.32586 L398.270976,210.413 L398.294188,210.597416 C398.761533,213.823815 401.523957,218.790199 405.748579,223.254332 C410.897814,228.695498 417.159273,232.393783 422.75976,233.131673 C427.301466,233.730064 430.813622,233.80781 435.418243,233.479172 L436.242596,233.416982 L437.527321,233.308182 L438.877655,233.181184 L441.392931,232.928709 L443.155152,232.759713 L444.782393,232.622961 L445.754963,232.559704 L446.468721,232.526867 L447.014781,232.510739 L447.768506,232.500774 L448.56891,232.502551 C450.886434,232.521497 453.073756,232.742326 455.27551,233.212634 C461.043337,234.444676 465.492745,237.285676 468.346474,241.534808 C473.599058,236.923034 480.6239,234.608749 486.595831,236.607974 C490.132317,237.791885 492.870229,239.330443 494.916741,241.402652 C496.722069,235.238177 496.896985,228.999673 495.469426,222.604514 C493.969933,215.887103 491.511475,210.734001 488.203338,206.452368 C487.123769,205.055111 485.992105,203.79413 484.669477,202.47696 L484.164269,201.980011 L481.0757,199.057067 L480.365433,198.367411 L480.332549,198.338763 L480.297078,198.30933 L480.12971,198.183961 L480.031011,198.116842 L479.922513,198.046879 L479.676743,197.898756 L479.393658,197.740263 L479.074512,197.572075 L478.720564,197.394862 L478.127135,197.113593 L477.691676,196.916761 L477.225811,196.713259 L476.472753,196.396967 L475.936371,196.179729 L475.083427,195.845986 L474.176205,195.504797 L473.543331,195.274322 L472.55507,194.925767 L471.523841,194.575817 L470.814576,194.342863 L470.089355,194.11097 L468.974355,193.766591 L467.83052,193.428381 L466.75445,193.12374 C459.398284,191.082028 451.887738,189.815835 446.582055,189.815835 Z M45.3639452,198.399535 L44.3528368,199.429533 L43.4040603,200.412232 C43.2506469,200.572715 43.0994719,200.731706 42.9503559,200.889448 L42.0789339,201.822821 C39.9549751,204.12836 38.2135846,206.26075 36.2493818,209.030835 C31.9788512,215.053496 28.8939937,221.435592 27.396484,228.144116 C26.2701182,233.189994 26.2396474,237.179615 27.2442879,240.317355 C30.0988997,237.186375 34.1337527,235.484719 39.1341412,235.484719 C45.094269,235.484719 50.7752213,237.572051 55.2221362,241.058598 C58.0683813,236.69773 62.5663413,233.786877 68.4242005,232.535603 C72.5711394,231.649792 75.9173815,231.664559 80.0617393,232.330512 L80.9341914,232.477929 L83.5151759,232.954049 C87.4999984,233.676999 89.8559129,233.839025 93.429234,233.452069 L94.680595,233.311171 C94.885283,233.28719 95.0880759,233.262946 95.289035,233.238418 L96.4732756,233.087672 C103.808407,232.113457 108.694203,230.672187 114.455103,227.621951 C115.11847,227.038162 115.881391,226.626185 116.685885,226.385917 L116.871598,226.280019 L117.844511,225.708313 C118.008683,225.610507 118.173907,225.511426 118.340243,225.411048 L119.172859,224.903335 L120.095565,224.325089 L120.655865,223.963513 L121.173937,223.620245 L121.651193,223.294575 L122.08904,222.985792 L122.488889,222.693186 L122.852148,222.416047 L123.180227,222.153663 L123.474535,221.905324 C123.567166,221.824806 123.654403,221.746511 123.736481,221.67032 L123.967475,221.44794 C124.003473,221.411889 124.03824,221.376334 124.071806,221.341262 L124.259013,221.136486 C124.345643,221.036869 124.421986,220.94132 124.488836,220.84944 L124.542263,220.773585 L124.642044,220.615236 L124.734166,220.441565 C124.748999,220.410912 124.763602,220.379296 124.778018,220.346557 L124.86263,220.135346 C124.904171,220.021705 124.94483,219.89504 124.985801,219.750983 L125.068514,219.438387 L125.154181,219.071651 L125.244928,218.64301 L125.759593,215.900551 C125.919313,215.061938 126.076275,214.29529 126.250862,213.51868 L126.644599,211.810169 L126.801065,211.110081 L127.011872,210.130039 L127.194711,209.230882 L127.301455,208.674589 L127.396352,208.151559 L127.479636,207.660718 L127.55154,207.200992 L127.612299,206.771307 L127.662146,206.370589 L127.701314,205.997763 L127.730037,205.651755 L127.748548,205.331491 L127.757082,205.035897 L127.755871,204.763899 L127.74515,204.514422 L127.725152,204.286393 L127.69611,204.078737 L127.658259,203.89038 C127.651229,203.860536 127.643842,203.831451 127.636102,203.803103 L127.585474,203.641681 C127.494174,203.386787 127.368599,203.201116 127.213616,203.062292 L127.117137,202.984439 L127.013832,202.916755 L126.94523,202.880431 L126.893778,202.869871 L126.804612,202.863439 L126.668515,202.863918 L126.356211,202.883679 L126.062459,202.913604 L125.891742,202.934632 L125.519254,202.989947 L125.098761,203.064123 L124.622345,203.158575 L123.974841,203.298795 L121.160262,203.954299 C114.974618,205.372152 110.064003,205.792753 103.816696,204.863005 L102.908316,204.720003 C99.3256728,204.123958 96.3158562,203.229593 92.5215427,201.681482 L91.5558352,201.280629 L90.5527274,200.851302 L89.5075063,200.392267 L88.4154591,199.902291 L87.2718728,199.380139 L85.4928864,198.557638 L84.4654288,198.087804 L83.4831319,197.645834 L82.5427665,197.230939 L81.6411037,196.842329 C81.4938724,196.779707 81.3481191,196.718147 81.2037767,196.657633 L80.3541133,196.306968 L79.5350799,195.980612 L78.7434475,195.677775 C78.6136128,195.629218 78.4847852,195.581608 78.3568975,195.534929 L77.6003121,195.265889 C75.2367659,194.448456 73.163951,193.955076 70.9204532,193.672842 L70.2057684,193.590603 C69.8450509,193.552861 69.4788674,193.520086 69.1054013,193.491835 L68.3482211,193.441233 C56.711742,192.761877 48.6575227,195.067046 45.3639452,198.399535 Z M267.632087,186 C259.748552,186 251.927667,191.999509 248.352138,199.201715 C254.359667,197.125441 260.79965,196 267.5,196 C274.469374,196 281.157054,197.21763 287.369425,199.454591 C286.085934,196.874279 284.241307,194.432751 282.037149,192.355933 L281.529151,191.889455 C277.588215,188.362961 272.598317,186 267.632087,186 Z M242,0 C262.163506,0 281.184865,4.15163672 297.558403,11.4140833 C351.936877,13.9020819 395.453572,45.4335905 396.318468,85.374876 L396.331589,86.5877709 L396.328555,87.1847852 C396.138315,105.895443 386.995083,124.054629 367.593357,138.35477 L367.002285,138.786923 L366.739098,138.976 L366.704652,139.39276 C366.210512,146.0659 367.396251,151.417731 370.017979,157.233147 L370.276169,157.797437 L371.269654,159.821904 L372.447121,162.272479 L372.967125,163.380353 L373.431377,164.395207 L373.720171,165.05091 L373.940281,165.581644 L373.995624,165.725404 C375.388398,169.444827 375.535301,172.810952 373.790417,176.084152 L373.61563,176.400632 L372.607104,178.165102 L370.733873,178.953445 L370.410232,179.08531 C364.140396,181.556426 356.906264,179.585985 348.064853,174.354661 L347.589664,174.071299 L346.662711,173.506262 L345.959813,173.067472 L345.250254,172.615951 L344.2937,171.994332 C343.972838,171.783423 343.649957,171.568826 343.325029,171.35059 C340.664298,169.563525 337.8999,167.544493 334.904349,165.226248 L334.150572,164.640415 L333.719045,164.302893 L332.412834,163.272362 L330.601348,161.823203 L328.64285,160.236034 L324.920098,157.188 L323.951621,157.318521 L322.06512,157.581463 L320.062387,157.872856 L318.655416,158.08371 L316.713655,158.381432 L303.198452,160.51729 L299.180118,161.128044 L297.407404,161.381028 L295.938595,161.574073 L294.854377,161.700042 L293.789771,161.802035 L292.970743,161.860156 L292.53865,161.882405 C291.900096,161.910849 291.296703,161.918144 290.620904,161.918144 C286.405166,161.918144 282.214739,161.744427 278.065027,161.400029 C267.098676,164.285434 255.371817,165.894169 243.216906,165.994956 L242,166 L241.357131,165.99503 L240.697489,165.980035 L240.01822,165.954893 L239.316468,165.919477 L238.589377,165.873664 L237.834093,165.817329 L237.047758,165.750348 L235.803792,165.62964 L234.473902,165.484278 L233.534813,165.373465 L232.0403,165.186077 L229.872312,164.896057 L217.96532,163.192787 L214.442,162.701 L213.51486,163.4752 C207.483645,168.461382 200.488666,173.449886 193.904919,177.279561 L193.009814,177.794498 L192.188757,178.256507 C180.96073,184.505268 171.728099,187.040469 164.622834,184.019787 L164.291333,183.874116 L162.427916,183.028347 L161.469647,181.220207 C161.083727,180.49202 160.773869,179.74254 160.54208,178.971896 C159.646363,175.993847 159.958244,173.182072 161.119398,169.956289 L161.143838,169.889197 L161.170534,169.817409 L161.373821,169.297316 L161.738433,168.411724 L162.523974,166.570571 L164.049227,163.066985 L164.29395,162.465631 C166.57738,156.743663 167.611269,151.158884 167.11318,143.846345 L167.061987,143.155675 L167.027,142.754 L166.799572,142.60269 C145.656289,128.366544 133.500216,105.024412 133.015099,84.2864577 L133.003974,83.6588441 L133,83 C133,36.7187224 182.117252,0 242,0 Z M242,12 C188.11209,12 145,44.2294262 145,83 C145,100.687027 155.968458,121.670464 175.235642,133.776785 L175.822033,134.140913 L178.269717,135.6429 L178.63516,138.491332 C180.106433,149.959127 178.814789,158.507523 175.388679,167.039688 L175.171774,167.572954 L175.130262,167.672639 L173.637865,171.107322 L172.727,173.23 L172.872559,173.211991 C175.515315,172.831899 178.990492,171.548975 182.920915,169.592292 L183.414562,169.344214 L184.307355,168.884074 L185.213815,168.402436 L186.133011,167.899868 L186.36469,167.771022 L186.597093,167.640912 L187.533644,167.10801 L188.480599,166.555592 L189.437028,165.984226 L189.677506,165.83849 L189.918503,165.691613 L190.887392,165.092885 L191.863424,164.476622 L192.353827,164.162093 L192.845665,163.843392 L193.833185,163.193761 L194.82505,162.528294 L195.820329,161.847558 L196.818089,161.152119 L197.817399,160.442543 L198.817325,159.719397 L199.067294,159.536556 L199.317228,159.352911 L200.316332,158.61047 L200.565877,158.422938 L200.8153,158.234656 L201.811485,157.474194 L202.804557,156.702426 L203.299636,156.312479 L203.793586,155.919917 L204.777639,155.127235 L205.267508,154.727256 L206.242349,153.920375 L206.727088,153.513614 L207.209884,153.104735 L208.16918,152.280902 L210.658567,150.105233 L213.341273,150.451688 L215.229572,150.699338 L217.239277,150.973773 L231.196512,152.96404 L232.998571,153.209197 L234.375841,153.386148 L235.235454,153.491035 L236.442444,153.629121 L237.195314,153.708569 L238.252357,153.809203 L238.91204,153.864155 L239.538243,153.909571 L240.133136,153.945604 L240.698887,153.972404 L241.237664,153.990122 L241.368398,153.99315 L241.497616,153.995622 L242,154 C253.835051,154 265.18243,152.44913 275.688889,149.621585 L275.741801,149.125486 L277.016017,149.256387 C313.827681,138.902569 339.988101,112.804329 339.988101,83 C339.988101,58.2553434 321.955894,36.0652695 294.767024,23.319039 C293.851321,23.2915783 292.931654,23.2733359 292.008408,23.2642255 L290.620904,23.2573981 L290.62188,21.4791098 C276.290577,15.4649249 259.690062,12 242,12 Z M323.397831,27.250248 L324.167683,27.8926015 C341.423523,42.5029105 351.988101,61.7645468 351.988101,83 C351.988101,108.871223 336.30749,131.812783 311.950315,146.982984 L312.863933,146.837891 L316.871987,146.216963 L318.325667,145.99916 L320.400184,145.697461 L322.36153,145.424277 L324.225489,145.17793 L325.421819,145.027778 L328.528748,144.654875 L330.500649,146.25415 L334.990908,149.926196 L338.116808,152.468073 L339.865335,153.867006 L341.120123,154.857043 L342.23896,155.728681 C344.806818,157.71612 347.169714,159.451415 349.408237,160.977793 L350.01572,161.388931 L350.432075,161.666925 C354.688497,164.491916 358.319593,166.378794 361.098263,167.347403 L361.415083,167.455091 L361.664098,167.535 L361.06629,166.291264 L359.503067,163.081659 L359.138878,162.299006 C355.31254,153.861291 353.734294,145.753021 355.045148,135.465187 L355.134741,134.791125 L355.500821,132.145401 L357.711748,130.646845 L358.268155,130.266639 C376.341183,117.815981 384.331589,102.378672 384.331589,86.5877709 C384.331589,59.7594685 359.186819,36.3156987 323.397831,27.250248 Z M205.5,75 C211.29899,75 216,79.7010101 216,85.5 C216,91.2989899 211.29899,96 205.5,96 C199.70101,96 195,91.2989899 195,85.5 C195,79.7010101 199.70101,75 205.5,75 Z M243.5,75 C249.29899,75 254,79.7010101 254,85.5 C254,91.2989899 249.29899,96 243.5,96 C237.70101,96 233,91.2989899 233,85.5 C233,79.7010101 237.70101,75 243.5,75 Z M281.5,75 C287.29899,75 292,79.7010101 292,85.5 C292,91.2989899 287.29899,96 281.5,96 C275.70101,96 271,91.2989899 271,85.5 C271,79.7010101 275.70101,75 281.5,75 Z" id="Combined-Shape"></path>
        </g>
    </g>
</svg>
