<svg width="578px" height="558px" viewBox="0 0 578 558" version="1.1" xmlns="http://www.w3.org/2000/svg" xmlns:xlink="http://www.w3.org/1999/xlink">
    <g id="Desktop/index" stroke="none" stroke-width="1" fill="none" fill-rule="evenodd">
        <g id="aa" transform="translate(-1.000000, -2.000000)">
            <g id="circle-line" transform="translate(6.686888, 7.000000)">
                <path class='svg-01' d="M519.79489,322.308607 C517.298069,322.483815 515.613087,319.979249 515.823383,317.575551 C517.151255,302.39791 530.531616,291.170454 545.709256,292.498326 C560.886896,293.826197 572.114352,307.206558 570.786481,322.384198 C570.576184,324.787897 568.587231,326.978591 566.053424,326.355705 C563.519617,325.732818 562.352347,324.068405 562.075517,321.70448 L562.08267,321.622714 C562.989949,311.252471 555.317948,302.110167 544.947705,301.202889 C534.681165,300.304683 525.618193,307.814291 524.557628,318.026809 C523.85363,320.678669 522.29171,322.1334 519.79489,322.308607 Z" id="deco-arrow" fill="#013D65" fill-rule="nonzero" transform="translate(543.349405, 309.427323) rotate(4.000000) translate(-543.349405, -309.427323) "></path>
                <path class='svg-0' d="M548,274 C548,122.673979 425.326021,0 274,0 C122.673979,0 0,122.673979 0,274 C0,425.326021 122.673979,548 274,548 C406.92588,548 517.743862,453.344836 542.727899,327.760556" id="Path" stroke="#013D65" stroke-width="10" stroke-linecap="round"></path>
            </g>
        </g>
    </g>
</svg>
