<?xml version="1.0" encoding="UTF-8" standalone="no"?><!DOCTYPE svg PUBLIC "-//W3C//DTD SVG 1.1//EN" "http://www.w3.org/Graphics/SVG/1.1/DTD/svg11.dtd"><svg width="100%" height="100%" viewBox="0 0 2737 2748" version="1.1" xmlns="http://www.w3.org/2000/svg" xmlns:xlink="http://www.w3.org/1999/xlink" xml:space="preserve" xmlns:serif="http://www.serif.com/" style="fill-rule:evenodd;clip-rule:evenodd;stroke-linejoin:round;stroke-miterlimit:2;"><path d="M1040.61,848.456l-0,74.299l-395.237,0c-15.192,0 -26.963,10.682 -27.814,23.345l-0.049,1.47l-0.001,764.603l1355.99,0l0.002,-412.261l74.301,-0l-0,656.783c-0,54.258 -44.653,97.692 -99.46,99.079l-2.704,0.034l-460.362,0.003c8.421,16.052 18.346,30.288 28.795,43.249l1.752,2.157l4.285,5.135l4.321,5.005l4.343,4.885l4.351,4.772l4.344,4.668l6.471,6.824l10.545,10.964l8.089,8.476l5.786,6.226l3.698,4.104l3.553,4.076l2.235,2.59l2.288,2.615l1.856,2.11l1.868,2.123l0.935,1.067l1.868,2.143l0.899,1.039l1.787,2.087c16.28,19.175 29.634,39.588 10.673,58.403l-1.067,1.025l-600.652,0c-20.57,-20.84 -8.074,-39.767 8.008,-58.066l1.8,-2.031l1.821,-2.026l2.75,-3.031l0.917,-1.008l2.737,-3.02c1.813,-2.011 3.597,-4.017 5.31,-6.02l3.552,-4.076l3.698,-4.104l5.787,-6.226l8.088,-8.476l10.545,-10.964l6.471,-6.824l4.344,-4.668l4.351,-4.772l4.344,-4.885l4.321,-5.005l4.284,-5.135c11.089,-13.535 21.657,-28.459 30.548,-45.406l-466.606,-0.003c-55.131,-0 -100.673,-42.558 -102.128,-96.454l-0.036,-2.659l0,-1009.12c0,-54.259 44.653,-97.693 99.461,-99.079l2.703,-0.035l395.237,0Zm373.215,1207.35l-230.392,-0c-14.047,37.02 -35.77,69.429 -65.463,102.626l-3.599,3.974l-13.458,14.135l395.433,-0l-13.458,-14.135l-3.6,-3.974c-28.669,-32.052 -49.908,-63.37 -63.983,-98.813l-1.48,-3.813Zm559.678,-269.335l-1355.99,0l0.001,170.222c0,12.802 11.208,23.959 26.126,24.767l1.737,0.047l1300.27,0c15.192,0 26.963,-10.682 27.814,-23.345l0.049,-1.469l-0.002,-170.222Zm-682.64,55.726c23.083,0 41.795,18.712 41.795,41.793c-0,23.082 -18.712,41.793 -41.795,41.793c-23.082,0 -41.793,-18.711 -41.793,-41.793c-0,-23.081 18.711,-41.793 41.793,-41.793Zm0,9.288c-17.952,-0 -32.506,14.553 -32.506,32.505c-0,17.953 14.554,32.506 32.506,32.506c17.954,0 32.507,-14.553 32.507,-32.506c0,-17.952 -14.553,-32.505 -32.507,-32.505Zm924.568,-293.266c39.887,-0 72.222,37.463 72.222,83.676c0,46.214 -32.335,144.102 -72.222,144.102c-39.887,-0 -72.222,-97.888 -72.222,-144.102c0,-46.213 32.335,-83.676 72.222,-83.676Zm-409.315,-1155.56l25.805,10.425l500.177,482.941l-5.618,36.35l-20.136,36.838l-54.863,-0.004l0.003,515.805l-74.301,0l-0.002,-515.805l-128.822,0l0.004,233.156c0,19.896 -15.64,36.138 -35.296,37.104l-1.854,0.046l-560.321,-0c-9.784,-0 -19.143,-3.858 -26.073,-10.686l-1.447,-1.508l-320.962,-353.915c-11.062,-12.197 -12.726,-30.143 -4.312,-44.11l1.104,-1.725l143.801,-211.623l-141.927,-150.668c-6.88,-14.855 -8.05,-27.952 -3.512,-39.293l0.597,-1.408c5.014,-11.194 14.417,-18.376 28.21,-21.545l1.747,-0.375l677.998,0Zm-510.929,268.689l-118.097,173.796l290.257,320.069l506.715,0l-0.003,-196.004l-389.424,0.004l-28.634,-20.992l-260.814,-276.873Zm495.918,-194.39l-576.957,-0l384.935,408.642l615.25,-0l-423.228,-408.642Z" style="fill:url(#_Radial1);fill-rule:nonzero;"/><defs><radialGradient id="_Radial1" cx="0" cy="0" r="1" gradientUnits="userSpaceOnUse" gradientTransform="matrix(1293.92,-1396,1396,1293.92,543.207,2241.55)"><stop offset="0" style="stop-color:#0e5891;stop-opacity:1"/><stop offset="1" style="stop-color:#1779c6;stop-opacity:1"/></radialGradient></defs></svg>
