<?xml version="1.0" encoding="UTF-8" standalone="no"?><!DOCTYPE svg PUBLIC "-//W3C//DTD SVG 1.1//EN" "http://www.w3.org/Graphics/SVG/1.1/DTD/svg11.dtd"><svg width="100%" height="100%" viewBox="0 0 343 343" version="1.1" xmlns="http://www.w3.org/2000/svg" xmlns:xlink="http://www.w3.org/1999/xlink" xml:space="preserve" xmlns:serif="http://www.serif.com/" style="fill-rule:evenodd;clip-rule:evenodd;stroke-linejoin:round;stroke-miterlimit:2;"><g><clipPath id="_web1"><path d="M171.155,342.262c94.5,-0 171.107,-76.607 171.107,-171.107c-0,-94.499 -76.607,-171.106 -171.107,-171.106c-94.499,-0 -171.107,76.607 -171.107,171.106c0,94.5 76.608,171.107 171.107,171.107Z"/></clipPath><g clip-path="url(#_web1)"><rect x="-0.93" y="-0.93" width="344.169" height="344.169" style="fill:#fff;"/></g><g><clipPath id="_web2"><path d="M171.155,0c94.527,0 171.155,76.629 171.155,171.155c0,94.527 -76.628,171.155 -171.155,171.155c-94.526,0 -171.155,-76.628 -171.155,-171.155c-0,-94.526 76.629,-171.155 171.155,-171.155Zm0,14.239c-86.662,-0 -156.916,70.254 -156.916,156.916c-0,86.663 70.254,156.917 156.916,156.917c86.663,-0 156.917,-70.254 156.917,-156.917c-0,-86.662 -70.254,-156.916 -156.917,-156.916Zm0,5.51c83.62,-0 151.407,67.787 151.407,151.406c-0,83.62 -67.787,151.407 -151.407,151.407c-83.619,-0 -151.406,-67.787 -151.406,-151.407c-0,-83.619 67.787,-151.406 151.406,-151.406Zm0,5.695c-80.474,0 -145.711,65.237 -145.711,145.711c0,80.474 65.237,145.711 145.711,145.711c80.474,-0 145.711,-65.237 145.711,-145.711c-0,-80.474 -65.237,-145.711 -145.711,-145.711Zm44.133,65.182l2.826,2.826l-0,61.797l12.252,0c1,0 1.92,0.528 2.428,1.379l0.09,0.163c2.681,5.257 -0.011,10.302 -6.859,14.644c-0.396,0.251 -0.847,0.399 -1.313,0.432l-0.2,0.008l-106.713,-0c-0.536,-0 -1.061,-0.153 -1.514,-0.44c-6.848,-4.342 -9.54,-9.387 -6.858,-14.644c0.454,-0.89 1.342,-1.47 2.331,-1.536l0.186,-0.006l12.252,0l0,-61.797l2.826,-2.826l88.266,-0Zm12.905,70.275l-114.078,0l0.002,0.05c0.105,1.472 1.363,3.094 4.142,5.015l0.304,0.207l0.073,0.048l105.036,0l0.441,-0.298c2.638,-1.834 3.886,-3.396 4.065,-4.815l0.015,-0.157l0,-0.05Zm-15.732,-64.623l-82.614,-0l0.001,58.971l82.614,0l-0.001,-58.971Zm-41.176,8.478c1.344,-0 2.659,0.121 3.936,0.353l0.02,0.016c5.665,1.056 10.558,4.305 13.765,8.833l-0.098,0.051c2.532,3.573 4.019,7.937 4.019,12.649c0,11.121 -8.289,20.307 -19.027,21.715l-0.054,0.038c-0.841,0.098 -1.695,0.149 -2.561,0.149l-0.13,-0.002l-0.129,0.002c-0.65,-0 -1.293,-0.029 -1.928,-0.084l-0.633,-0.065l-0.055,-0.038c-10.738,-1.408 -19.027,-10.594 -19.027,-21.715c-0,-5.75 2.216,-10.983 5.84,-14.89c3.075,-3.333 7.177,-5.702 11.803,-6.607l0.063,-0.052c1.277,-0.232 2.593,-0.353 3.937,-0.353l0.259,-0Zm0.648,32.143l-0.001,9.314l0.08,-0.001c0.51,-0.021 1.017,-0.06 1.518,-0.119c3.013,-2.224 5.355,-4.927 6.965,-8.07c-2.743,-0.702 -5.619,-1.085 -8.562,-1.124Zm-2.074,0.03c-2.743,0.115 -5.42,0.529 -7.977,1.221c1.603,3.08 3.913,5.733 6.87,7.922c0.367,0.047 0.736,0.082 1.107,0.108l-0,-9.251Zm12.662,1.675l-0.109,0.221c-1.176,2.331 -2.702,4.414 -4.525,6.245c2.79,-0.999 5.32,-2.621 7.403,-4.745l0.342,-0.359l0.127,-0.137l-0.13,-0.058c-1.01,-0.437 -2.047,-0.826 -3.108,-1.167Zm-22.655,0.158l-0.063,0.021c-0.733,0.249 -1.455,0.521 -2.164,0.817l-0.704,0.303l-0.12,0.054l0.138,0.147c2.067,2.175 4.594,3.844 7.389,4.886c-1.803,-1.83 -3.313,-3.906 -4.476,-6.228Zm-6.673,-10.809l-1.695,0.001c0.251,3.886 1.621,7.468 3.792,10.425c1.196,-0.57 2.441,-1.077 3.726,-1.518c-0.501,-1.259 -0.906,-2.582 -1.209,-3.97c-2.413,-0.489 -4.286,-2.469 -4.614,-4.938Zm37.619,0l-1.694,0c-0.329,2.469 -2.202,4.45 -4.616,4.939l0.026,-0.117c-0.292,1.37 -0.684,2.678 -1.169,3.923c1.31,0.428 2.579,0.925 3.802,1.486c2.089,-2.918 3.406,-6.428 3.651,-10.231Zm-20.954,5.054l-10.367,0.001l0.471,0.001c0.272,1.12 0.619,2.198 1.039,3.234c2.802,-0.788 5.774,-1.267 8.858,-1.389l-0.001,-1.847Zm2.074,0l0,1.819l0.241,0.003c3.197,0.06 6.282,0.503 9.192,1.277c0.395,-0.994 0.723,-2.027 0.984,-3.098l-10.417,-0.001Zm11.405,-10.626l-24.364,0c-2.034,0 -3.691,1.616 -3.756,3.634l-0.002,0.124l-0,1.037c-0,2.034 1.616,3.691 3.634,3.757l0.124,0.001l24.364,0c2.034,0 3.691,-1.616 3.757,-3.634l0.002,-0.124l-0,-1.037c-0,-2.034 -1.616,-3.69 -3.635,-3.756l-0.124,-0.002Zm-6.285,2.059c0.023,0.247 0.075,0.547 0.148,0.867l0.058,0.244l0.457,1.744c0.009,0.038 0.019,0.103 0.037,0.196c0.019,0.047 0.028,0.103 0.037,0.14c0.029,0.14 0.038,0.159 0.056,0.271c0.1,-0.365 0.133,-0.465 0.166,-0.567l0.012,-0.04l0.606,-1.912c0.101,-0.304 0.183,-0.607 0.229,-0.824l0.023,-0.119l1.167,0c0.032,0.176 0.112,0.476 0.204,0.781l0.048,0.152l0.625,1.988c0.028,0.093 0.065,0.214 0.149,0.55c0.019,-0.074 0.019,-0.074 0.047,-0.214c0.007,-0.024 0.054,-0.235 0.075,-0.321l0.009,-0.034l0.457,-1.791c0.089,-0.329 0.149,-0.645 0.179,-0.916l0.017,-0.195l1.679,0c-0.088,0.24 -0.142,0.386 -0.185,0.511l-0.06,0.179c-0.03,0.09 -0.06,0.189 -0.103,0.325l-0.053,0.17l-1.036,3.35c-0.138,0.433 -0.199,0.665 -0.243,0.892l-0.018,0.097l-1.316,0c-0.031,-0.194 -0.101,-0.473 -0.193,-0.793l-0.059,-0.196l-0.653,-2.062c-0.065,-0.187 -0.121,-0.383 -0.149,-0.523c-0.052,0.194 -0.092,0.341 -0.126,0.449l-0.023,0.074l-0.663,2.062c-0.096,0.312 -0.192,0.658 -0.241,0.886l-0.02,0.103l-1.306,0c-0.057,-0.269 -0.1,-0.446 -0.216,-0.817l-0.055,-0.172l-1.036,-3.35c-0.112,-0.366 -0.206,-0.654 -0.315,-0.955l-0.086,-0.23l1.67,0Zm-8.304,0c0.022,0.247 0.074,0.547 0.147,0.867l0.058,0.244l0.457,1.744c0.01,0.038 0.019,0.103 0.038,0.196c0.018,0.047 0.028,0.103 0.037,0.14c0.028,0.14 0.037,0.159 0.056,0.271c0.099,-0.365 0.133,-0.465 0.165,-0.567l0.012,-0.04l0.607,-1.912c0.101,-0.304 0.182,-0.607 0.228,-0.824l0.024,-0.119l1.166,0c0.032,0.176 0.112,0.476 0.205,0.781l0.047,0.152l0.625,1.988c0.028,0.093 0.066,0.214 0.149,0.55c0.019,-0.074 0.019,-0.074 0.047,-0.214c0.003,-0.01 0.012,-0.049 0.024,-0.098l0.036,-0.159c0.008,-0.033 0.015,-0.061 0.019,-0.079l0.005,-0.019l0.457,-1.791c0.09,-0.329 0.15,-0.645 0.179,-0.916l0.017,-0.195l1.68,0c-0.089,0.24 -0.142,0.386 -0.185,0.511l-0.061,0.179c-0.029,0.09 -0.06,0.189 -0.102,0.325l-0.053,0.17l-1.036,3.35c-0.139,0.433 -0.199,0.665 -0.243,0.892l-0.018,0.097l-1.316,0c-0.031,-0.194 -0.101,-0.473 -0.194,-0.793l-0.058,-0.196l-0.653,-2.062c-0.066,-0.187 -0.121,-0.383 -0.15,-0.523c-0.052,0.194 -0.092,0.341 -0.125,0.449l-0.024,0.074l-0.662,2.062c-0.096,0.312 -0.192,0.658 -0.241,0.886l-0.021,0.103l-1.306,0c-0.057,-0.269 -0.1,-0.446 -0.216,-0.817l-0.054,-0.172l-1.036,-3.35c-0.112,-0.366 -0.206,-0.654 -0.316,-0.955l-0.085,-0.23l1.67,0Zm-8.305,0c0.023,0.247 0.075,0.547 0.147,0.867l0.059,0.244l0.457,1.744c0.009,0.038 0.018,0.103 0.037,0.196c0.019,0.047 0.028,0.103 0.037,0.14c0.028,0.14 0.038,0.159 0.056,0.271c0.087,-0.319 0.124,-0.435 0.153,-0.528l0.025,-0.079l0.606,-1.912c0.101,-0.304 0.183,-0.607 0.229,-0.824l0.023,-0.119l1.166,0c0.033,0.176 0.112,0.476 0.205,0.781l0.047,0.152l0.626,1.988c0.028,0.093 0.065,0.214 0.149,0.55c0.019,-0.074 0.019,-0.074 0.047,-0.214c0.007,-0.024 0.054,-0.235 0.075,-0.321l0.009,-0.034l0.457,-1.791c0.089,-0.329 0.149,-0.645 0.179,-0.916l0.017,-0.195l1.679,0c-0.199,0.539 -0.221,0.607 -0.348,1.015l-0.053,0.17l-1.036,3.35c-0.138,0.433 -0.199,0.665 -0.243,0.892l-0.018,0.097l-1.316,0c-0.031,-0.194 -0.101,-0.473 -0.193,-0.793l-0.059,-0.196l-0.653,-2.062c-0.065,-0.187 -0.121,-0.383 -0.149,-0.523c-0.052,0.194 -0.093,0.341 -0.126,0.449l-0.023,0.074l-0.663,2.062c-0.096,0.312 -0.192,0.658 -0.241,0.886l-0.02,0.103l-1.306,0c-0.058,-0.269 -0.1,-0.446 -0.217,-0.817l-0.054,-0.172l-1.036,-3.35c-0.112,-0.366 -0.206,-0.654 -0.315,-0.955l-0.086,-0.23l1.67,0Zm26.576,-9.505l-0.094,0.044c-1.158,0.522 -2.359,0.987 -3.596,1.39c0.493,1.297 0.891,2.65 1.188,4.058c2.573,0.528 4.528,2.752 4.646,5.453l1.676,-0c-0.158,-4.087 -1.552,-7.856 -3.82,-10.945Zm-31.587,-0.189l-0.038,0.051c-2.328,3.114 -3.762,6.935 -3.923,11.082l1.676,-0c0.119,-2.7 2.074,-4.924 4.647,-5.452l0.116,-0.526c0.295,-1.279 0.675,-2.512 1.134,-3.697c-1.244,-0.424 -2.45,-0.912 -3.612,-1.458Zm5.598,2.076l-0.118,0.303c-0.389,1.027 -0.712,2.089 -0.968,3.182l-0.453,0.001l10.368,-0.001l0,-2.104c-3.073,-0.122 -6.035,-0.598 -8.829,-1.381Zm20.305,0.136c-2.974,0.789 -6.13,1.232 -9.402,1.273l-0.001,2.076l10.434,-0c-0.269,-1.152 -0.614,-2.269 -1.031,-3.349Zm-9.401,-10.108l-0.002,9.305l0.219,-0.001c2.867,-0.055 5.669,-0.436 8.344,-1.119c-1.419,-2.901 -3.402,-5.494 -5.901,-7.728l-0.223,-0.196c-0.797,-0.136 -1.611,-0.224 -2.437,-0.261Zm-2.075,0.03c-0.649,0.046 -1.29,0.123 -1.92,0.231l-0.222,0.196c-2.462,2.2 -4.424,4.75 -5.838,7.598c2.558,0.694 5.236,1.108 7.98,1.223l0,-9.248Zm8.597,1.389l0.16,0.184c1.555,1.812 2.867,3.816 3.898,5.999c1.063,-0.339 2.103,-0.729 3.115,-1.167l0.026,-0.012c-1.981,-2.163 -4.435,-3.886 -7.199,-5.004Zm-14.603,0l-0.213,0.088c-2.603,1.088 -4.924,2.716 -6.824,4.743l0.119,0.053c0.955,0.425 1.935,0.806 2.936,1.144c1.055,-2.198 2.396,-4.211 3.982,-6.028Z" clip-rule="nonzero"/></clipPath><g clip-path="url(#_web2)"><rect x="-624.105" y="-1377.56" width="1877.82" height="14734" style="fill:url(#_LinearWeb3);"/><rect x="-624.105" y="-1377.56" width="1877.82" height="14734" style="fill:url(#_LinearWeb4);"/></g></g></g><defs><linearGradient id="_LinearWeb3" x1="0" y1="0" x2="1" y2="0" gradientUnits="userSpaceOnUse" gradientTransform="matrix(6.13243e-14,1001.5,-1001.5,6.13243e-14,-2.49384e-14,0)"><stop offset="0" style="stop-color:#32b6e7;stop-opacity:0"/><stop offset="1" style="stop-color:#015084;stop-opacity:0"/></linearGradient><linearGradient id="_LinearWeb4" x1="0" y1="0" x2="1" y2="0" gradientUnits="userSpaceOnUse" gradientTransform="matrix(-342.31,342.31,-342.31,-342.31,342.31,0)"><stop offset="0" style="stop-color:#32b6e7;stop-opacity:1"/><stop offset="1" style="stop-color:#015084;stop-opacity:1"/></linearGradient></defs></svg>
