<?xml version="1.0" encoding="UTF-8" standalone="no"?><!DOCTYPE svg PUBLIC "-//W3C//DTD SVG 1.1//EN" "http://www.w3.org/Graphics/SVG/1.1/DTD/svg11.dtd"><svg width="100%" height="100%" viewBox="0 0 1459 1459" version="1.1" xmlns="http://www.w3.org/2000/svg" xmlns:xlink="http://www.w3.org/1999/xlink" xml:space="preserve" xmlns:serif="http://www.serif.com/" style="fill-rule:evenodd;clip-rule:evenodd;stroke-linejoin:round;stroke-miterlimit:2;"><clipPath id="_clip1"><path d="M729.167,1458.33c402.707,0 729.166,-326.459 729.166,-729.166c0,-402.708 -326.459,-729.167 -729.166,-729.167c-402.708,0 -729.167,326.459 -729.167,729.167c0,402.707 326.459,729.166 729.167,729.166Z"/></clipPath><g clip-path="url(#_clip1)"><rect x="-4.167" y="-4.167" width="1466.67" height="1466.67" style="fill:#fff;"/></g><g><clipPath id="_clip2"><path d="M729.167,0c402.707,0 729.166,326.459 729.166,729.167c0,402.707 -326.459,729.166 -729.166,729.166c-402.708,0 -729.167,-326.459 -729.167,-729.166c0,-402.708 326.459,-729.167 729.167,-729.167Zm-0,60.661c-369.206,0 -668.506,299.3 -668.506,668.506c0,369.205 299.3,668.505 668.506,668.505c369.205,0 668.505,-299.3 668.505,-668.505c0,-369.206 -299.3,-668.506 -668.505,-668.506Zm-0,23.474c356.241,0 645.031,288.791 645.031,645.032c-0,356.241 -288.79,645.031 -645.031,645.031c-356.241,0 -645.032,-288.79 -645.032,-645.031c0,-356.241 288.791,-645.032 645.032,-645.032Zm-0,24.265c-342.84,-0 -620.767,277.927 -620.767,620.767c-0,342.84 277.927,620.767 620.767,620.767c342.84,-0 620.766,-277.927 620.766,-620.767c0,-342.84 -277.926,-620.767 -620.766,-620.767Zm-0,226.827c71.805,0 126.926,55.545 126.926,129.694c0,28.191 -13.108,53.064 -41.348,86.949l-1.614,1.927l-3.036,3.58l-5.023,5.83l-16.768,19.191l-4.571,5.324l-6.386,7.599l-1.011,1.224l-0.996,1.213l-3.837,4.741l-0.923,1.158l-0.908,1.149l-3.495,4.498l-1.664,2.194l-1.61,2.16l-3.062,4.225l-2.857,4.111c-8.676,12.773 -14.406,24.06 -18.189,35.898c0.435,0.016 0.867,0.03 1.297,0.046l5.344,0.242c3.534,0.192 7.008,0.446 10.413,0.758l5.055,0.512c1.666,0.185 3.315,0.384 4.944,0.597l4.827,0.679c0.794,0.12 1.582,0.243 2.366,0.369l4.637,0.799c3.047,0.558 6.003,1.167 8.859,1.823l4.208,1.02c0.689,0.176 1.371,0.355 2.046,0.536l3.97,1.123c0.648,0.193 1.289,0.388 1.922,0.586l3.716,1.22c18.741,6.463 30.333,15.39 30.333,25.252c0,13.361 -21.277,25.008 -52.786,31.133l-4.57,0.836l-4.701,0.76c-1.589,0.239 -3.198,0.466 -4.827,0.679l-4.944,0.597c-1.667,0.184 -3.353,0.355 -5.055,0.511l-5.159,0.425c-0.867,0.062 -1.739,0.122 -2.615,0.178l-5.3,0.288c-4.453,0.201 -8.995,0.306 -13.608,0.306c-4.613,-0 -9.155,-0.105 -13.609,-0.306l-5.3,-0.288c-0.876,-0.056 -1.747,-0.116 -2.615,-0.178l-5.158,-0.425c-1.703,-0.156 -3.388,-0.327 -5.055,-0.511l-4.945,-0.597c-1.628,-0.213 -3.238,-0.44 -4.826,-0.679l-4.702,-0.76l-4.57,-0.836c-31.508,-6.125 -52.786,-17.772 -52.786,-31.133c-0,-9.862 11.592,-18.789 30.334,-25.252l3.715,-1.22c0.634,-0.198 1.275,-0.393 1.923,-0.586l3.97,-1.123c0.674,-0.181 1.357,-0.36 2.045,-0.536l4.208,-1.02c2.856,-0.656 5.813,-1.265 8.859,-1.823l4.637,-0.799l4.765,-0.719c2.413,-0.34 4.872,-0.649 7.373,-0.926l5.055,-0.512c3.405,-0.312 6.879,-0.566 10.412,-0.758l5.344,-0.242l0.462,-0.016c-4.74,-11.908 -11.191,-23.375 -20.388,-36.42l-1.652,-2.318l-3.452,-4.709l-3.692,-4.868l-3.941,-5.044l-1.026,-1.291l-1.041,-1.304l-4.334,-5.346l-4.608,-5.572l-4.893,-5.817l-7.523,-8.818l-6.993,-8.232l-6.484,-7.772l-1.033,-1.254l-1.018,-1.242l-3.94,-4.854l-3.727,-4.684l-3.518,-4.522l-3.314,-4.373l-3.113,-4.234l-2.918,-4.106c-2.257,-3.236 -4.33,-6.36 -6.228,-9.396l-1.392,-2.261l-2.175,-3.701c-10.093,-17.705 -14.06,-32.821 -14.06,-50.863c0,-74.149 55.122,-129.694 126.927,-129.694Zm-5.603,336.854c-24.204,0.469 -46.542,3.96 -62.973,9.625c-2.936,1.013 -5.547,2.048 -7.841,3.067l-2.602,1.211c-0.409,0.2 -0.805,0.398 -1.188,0.595l-2.151,1.158c-1.335,0.756 -2.473,1.475 -3.416,2.138l-1.271,0.948c-1.502,1.201 -2.236,2.132 -2.236,2.631c-0,0.312 0.286,0.793 0.869,1.403l0.84,0.791c1.147,0.989 2.877,2.2 5.214,3.523l2.151,1.158c3.067,1.574 6.934,3.253 11.631,4.873c17.691,6.1 42.231,9.68 68.576,9.68c26.344,-0 50.884,-3.58 68.575,-9.68c4.698,-1.62 8.564,-3.299 11.631,-4.873l2.152,-1.158c4.672,-2.645 6.922,-4.844 6.922,-5.717c0,-0.374 -0.413,-0.992 -1.253,-1.784l-0.983,-0.847l-1.271,-0.948c-0.943,-0.663 -2.08,-1.382 -3.415,-2.138l-2.152,-1.158c-0.383,-0.197 -0.779,-0.395 -1.188,-0.595l-2.601,-1.211c-2.295,-1.019 -4.906,-2.054 -7.842,-3.067c-16.35,-5.638 -38.55,-9.122 -62.618,-9.618l-3.251,14.222l40.149,0.002l-0,14.285l-85.71,-0l-0,-14.285l41.699,-0.002l-4.447,-14.229Zm5.603,-322.569c-63.892,0 -112.642,49.125 -112.642,115.409c-0,16.353 4.06,30.373 14.654,47.812l1.161,1.882l2.307,3.597l1.222,1.838l1.268,1.866l2.675,3.822l0.699,0.975l0.71,0.983l2.964,4.018l3.161,4.161l3.362,4.315l3.569,4.479l3.78,4.653l6.074,7.329l4.326,5.134l12.18,14.287l5.082,6.043l4.791,5.797l4.51,5.57l4.241,5.365c4.793,6.148 9.056,11.918 12.86,17.458l1.603,2.36l3.043,4.647c3.854,6.042 7.169,11.872 10.048,17.703l1.208,2.499l0.421,0.913l1.02,-2.449c5.603,-13.139 13.671,-26.107 25.339,-41.341l1.692,-2.192l4.109,-5.203l1.07,-1.33l1.088,-1.343l4.526,-5.501l4.816,-5.723l1.25,-1.469l1.269,-1.483l5.268,-6.095l14.389,-16.449l6.456,-7.516l3.773,-4.496c25.733,-31.034 37.299,-53.198 37.299,-76.916c0,-66.284 -48.75,-115.409 -112.641,-115.409Zm-56.23,51.633l9.578,10.598c-14.72,13.304 -23.271,32.142 -23.271,52.374c0,19.525 7.963,37.751 21.746,50.955l1.682,1.56l-9.547,10.627c-17.799,-15.99 -28.166,-38.739 -28.166,-63.142c0,-23.475 9.594,-45.422 26.175,-61.295l1.803,-1.677Zm110.09,-0l1.803,1.677c16.581,15.873 26.175,37.82 26.175,61.295c-0,23.808 -9.867,46.041 -26.877,61.96l-1.289,1.182l-9.547,-10.627l1.682,-1.56c13.783,-13.204 21.746,-31.43 21.746,-50.955c-0,-19.654 -8.069,-37.993 -22.025,-51.22l-1.246,-1.154l9.578,-10.598Zm-53.86,15.872c26.012,0 47.1,21.088 47.1,47.1c-0,26.013 -21.088,47.1 -47.1,47.1c-26.013,0 -47.1,-21.087 -47.1,-47.1c-0,-26.012 21.087,-47.1 47.1,-47.1Zm-0,14.285c-18.124,0 -32.815,14.692 -32.815,32.815c-0,18.124 14.691,32.815 32.815,32.815c18.123,0 32.815,-14.691 32.815,-32.815c-0,-18.123 -14.692,-32.815 -32.815,-32.815Z" clip-rule="nonzero"/></clipPath><g clip-path="url(#_clip2)"><rect x="-400.521" y="-6710.42" width="8000" height="62770.8" style="fill:url(#_Linear3);"/><rect x="-400.521" y="-6710.42" width="8000" height="62770.8" style="fill:url(#_Linear4);"/></g></g><defs><linearGradient id="_Linear3" x1="0" y1="0" x2="1" y2="0" gradientUnits="userSpaceOnUse" gradientTransform="matrix(2.61258e-13,4266.67,-4266.67,2.61258e-13,0,0)"><stop offset="0" style="stop-color:#56c4f2;stop-opacity:0"/><stop offset="1" style="stop-color:#013d65;stop-opacity:0"/></linearGradient><linearGradient id="_Linear4" x1="0" y1="0" x2="1" y2="0" gradientUnits="userSpaceOnUse" gradientTransform="matrix(-1458.33,1458.33,-1458.33,-1458.33,1458.33,0)"><stop offset="0" style="stop-color:#56c4f2;stop-opacity:1"/><stop offset="1" style="stop-color:#013d65;stop-opacity:1"/></linearGradient></defs></svg>
