<svg width="100%" height="100%" viewBox="0 0 322 331" version="1.1" xmlns="http://www.w3.org/2000/svg" xmlns:xlink="http://www.w3.org/1999/xlink">
  <defs>
    <radialGradient id="GradientSolution" cx="0" cy="1" r="0.9">
      <stop offset="0%" stop-color="#0E5891" />
      <stop offset="100%" stop-color="#1779C6" />
    </radialGradient>
  </defs>
  <g id="Symbols" stroke="none" stroke-width="1" fill="none" fill-rule="evenodd">
    <g id="icon/solution" transform="translate(-4.000000, 0.000000)" fill="url(#GradientSolution)" fill-rule="nonzero">
      <path d="M93.5320863,80.2424242 L93.5320863,93.6161616 L22.3895178,93.6161616 C19.654908,93.6161616 17.5362568,95.5389011 17.3830708,97.8182818 L17.3741948,98.0827809 L17.374,235.711424 L261.453,235.711424 L261.453249,161.504416 L274.827444,161.504416 L274.827444,279.7253 C274.827444,289.491862 266.78996,297.309853 256.924556,297.559505 L256.437926,297.565657 L173.572695,297.566158 C175.088523,300.455593 176.875091,303.018115 178.755756,305.351111 L179.071321,305.739396 L179.84249,306.66353 L180.620282,307.564521 L181.402076,308.443815 L182.18525,309.302856 L182.967185,310.143091 L184.132028,311.371339 L186.030106,313.344854 L187.485986,314.87046 L188.527631,315.991213 L189.193211,316.729924 L189.832653,317.463555 L190.235059,317.929792 L190.646865,318.400572 L190.980858,318.780252 L191.317058,319.162473 L191.485457,319.354485 L191.821796,319.740209 L191.983644,319.927308 L192.305162,320.302922 C195.235584,323.754391 197.639397,327.428785 194.22629,330.815555 L194.034319,331 L85.9169429,331 C82.2142853,327.248742 84.4636775,323.841941 87.3584024,320.548075 L87.6824246,320.182542 L88.0101405,319.817869 L88.5051015,319.272315 L88.6701829,319.090817 L89.1628794,318.547258 C89.4892611,318.185317 89.8102641,317.824189 90.1186092,317.463555 L90.7580515,316.729924 L91.4236314,315.991213 L92.465276,314.87046 L93.9211562,313.344854 L95.8192342,311.371339 L96.9840778,310.143091 L97.7660121,309.302856 L98.5491865,308.443815 L99.3309801,307.564521 L100.108772,306.66353 L100.879942,305.739396 C102.876016,303.302978 104.778185,300.616769 106.378567,297.566158 L22.3895178,297.565657 C12.4658513,297.565657 4.26830802,289.905192 4.00645274,280.204027 L4,279.7253 L4,98.0827809 C4,88.3162184 12.0374841,80.4982281 21.9028876,80.2485756 L22.3895178,80.2424242 L93.5320863,80.2424242 Z M160.710841,297.565657 L119.240421,297.565657 C116.711842,304.229327 112.801791,310.062982 107.456982,316.03839 L106.809107,316.753626 L104.386706,319.29798 L175.564557,319.29798 L173.142155,316.753626 L172.494281,316.03839 C167.333775,310.269031 163.510785,304.631816 160.977349,298.252081 L160.710841,297.565657 Z M261.453,249.085424 L17.374,249.085424 L17.3741948,279.7253 C17.3741948,282.029798 19.3915642,284.037889 22.0767962,284.183475 L22.3895178,284.191919 L256.437926,284.191919 C259.172536,284.191919 261.291187,282.26918 261.444373,279.989799 L261.453249,279.7253 L261.453,249.085424 Z M138.577835,259.116162 C142.732664,259.116162 146.100819,262.484201 146.100819,266.638889 C146.100819,270.793576 142.732664,274.161616 138.577835,274.161616 C134.423005,274.161616 131.05485,270.793576 131.05485,266.638889 C131.05485,262.484201 134.423005,259.116162 138.577835,259.116162 Z M138.577835,260.787879 C135.346301,260.787879 132.726625,263.407465 132.726625,266.638889 C132.726625,269.870313 135.346301,272.489899 138.577835,272.489899 C141.809369,272.489899 144.429045,269.870313 144.429045,266.638889 C144.429045,263.407465 141.809369,260.787879 138.577835,260.787879 Z M305,208 C312.179702,208 318,214.743403 318,223.061811 C318,231.38022 312.179702,249 305,249 C297.820298,249 292,231.38022 292,223.061811 C292,214.743403 297.820298,208 305,208 Z M231.323195,0 L235.968154,1.87645818 L326,88.8057511 L324.988654,95.3488318 L321.364284,101.979677 L311.489,101.979 L311.489455,194.823913 L298.115261,194.823913 L298.115,101.979 L274.927,101.979 L274.927848,143.947133 C274.927848,147.528278 272.112633,150.451916 268.574504,150.625818 L268.240751,150.634002 L167.382887,150.634002 C165.621776,150.634002 163.937165,149.939596 162.689804,148.710626 L162.429337,148.439152 L104.656165,84.7344428 C102.665041,82.5388919 102.365472,79.3087452 103.879974,76.7945624 L104.078744,76.4841452 L129.963,38.392 L104.416024,11.2718303 C103.177701,8.59788506 102.966998,6.24027439 103.783915,4.19899829 L103.891382,3.94548635 C104.793934,1.93057146 106.486546,0.63792146 108.969219,0.0675363434 L109.283668,0 L231.323195,0 Z M139.356,48.364 L118.098599,79.6472929 L170.344891,137.259682 L261.553556,137.259682 L261.553,101.979 L191.456622,101.979677 L186.302603,98.2011232 L139.356,48.364 Z M228.621273,13.3737374 L124.768979,13.3737374 L194.057338,86.9292929 L304.802358,86.9292929 L228.621273,13.3737374 Z" id="Combined-Shape"></path>
    </g>
  </g>
</svg>
