<?xml version="1.0" encoding="UTF-8" standalone="no"?><!DOCTYPE svg PUBLIC "-//W3C//DTD SVG 1.1//EN" "http://www.w3.org/Graphics/SVG/1.1/DTD/svg11.dtd"><svg width="100%" height="100%" viewBox="0 0 379 379" version="1.1" xmlns="http://www.w3.org/2000/svg" xmlns:xlink="http://www.w3.org/1999/xlink" xml:space="preserve" xmlns:serif="http://www.serif.com/" style="fill-rule:evenodd;clip-rule:evenodd;stroke-linejoin:round;stroke-miterlimit:2;"><path d="M193.714,321.143c15.78,-0 28.572,12.792 28.572,28.571c-0,15.78 -12.792,28.572 -28.572,28.572c-15.779,-0 -28.571,-12.792 -28.571,-28.572c-0,-15.779 12.792,-28.571 28.571,-28.571Zm-135.083,-35.43c11.158,-11.157 29.248,-11.157 40.406,0c11.158,11.158 11.158,29.249 0,40.407c-11.158,11.157 -29.248,11.157 -40.406,-0c-11.158,-11.158 -11.158,-29.249 0,-40.407Zm227.082,-6.465c11.158,-11.157 29.249,-11.157 40.407,0c11.157,11.158 11.157,29.249 -0,40.407c-11.158,11.157 -29.249,11.157 -40.407,-0c-11.157,-11.158 -11.157,-29.249 0,-40.407Zm-98.284,-39.248c14.201,-0 25.714,11.513 25.714,25.714c-0,14.202 -11.513,25.715 -25.714,25.715c-14.202,-0 -25.715,-11.513 -25.715,-25.715c0,-14.201 11.513,-25.714 25.715,-25.714Zm44.538,-25.714c7.101,-12.299 22.827,-16.513 35.126,-9.412c12.299,7.1 16.513,22.827 9.412,35.126c-7.1,12.299 -22.827,16.513 -35.126,9.412c-12.299,-7.101 -16.513,-22.827 -9.412,-35.126Zm-124.203,-9.412c12.299,-7.101 28.025,-2.887 35.126,9.412c7.101,12.299 2.887,28.025 -9.412,35.126c-12.299,7.101 -28.026,2.887 -35.126,-9.412c-7.101,-12.299 -2.887,-28.026 9.412,-35.126Zm-79.193,-39.731c15.78,-0 28.572,12.792 28.572,28.571c-0,15.78 -12.792,28.572 -28.572,28.572c-15.779,-0 -28.571,-12.792 -28.571,-28.572c0,-15.779 12.792,-28.571 28.571,-28.571Zm321.143,-9.143c15.78,-0 28.572,12.792 28.572,28.571c-0,15.78 -12.792,28.572 -28.572,28.572c-15.779,-0 -28.571,-12.792 -28.571,-28.572c-0,-15.779 12.792,-28.571 28.571,-28.571Zm-161.714,9.714c12.624,0 22.857,10.234 22.857,22.857c0,12.624 -10.233,22.858 -22.857,22.858c-12.624,-0 -22.857,-10.234 -22.857,-22.858c-0,-12.623 10.233,-22.857 22.857,-22.857Zm53.379,-37.983c12.299,-7.101 28.026,-2.887 35.126,9.412c7.101,12.299 2.887,28.025 -9.412,35.126c-12.299,7.101 -28.025,2.887 -35.126,-9.412c-7.101,-12.299 -2.887,-28.025 9.412,-35.126Zm-143.027,9.412c7.1,-12.299 22.827,-16.513 35.126,-9.412c12.299,7.101 16.513,22.827 9.412,35.126c-7.101,12.299 -22.827,16.513 -35.126,9.412c-12.299,-7.101 -16.513,-22.827 -9.412,-35.126Zm89.077,-51.429c14.201,0 25.714,11.513 25.714,25.715c-0,14.201 -11.513,25.714 -25.714,25.714c-14.202,-0 -25.715,-11.513 -25.715,-25.714c0,-14.202 11.513,-25.715 25.715,-25.715Zm-135.263,-27.083c11.158,-11.158 29.248,-11.158 40.406,0c11.158,11.158 11.158,29.248 0,40.406c-11.158,11.158 -29.248,11.158 -40.406,0c-11.158,-11.158 -11.158,-29.248 0,-40.406Zm227.082,-6.465c11.158,-11.158 29.249,-11.158 40.407,0c11.157,11.158 11.157,29.248 -0,40.406c-11.158,11.158 -29.249,11.158 -40.407,0c-11.157,-11.158 -11.157,-29.248 0,-40.406Zm-94.677,-52.166c15.78,-0 28.572,12.792 28.572,28.571c-0,15.78 -12.792,28.572 -28.572,28.572c-15.779,-0 -28.571,-12.792 -28.571,-28.572c0,-15.779 12.792,-28.571 28.571,-28.571Z" style="fill:url(#_Radial1);"/><defs><radialGradient id="_Radial1" cx="0" cy="0" r="1" gradientUnits="userSpaceOnUse" gradientTransform="matrix(0,378.286,-378.286,0,189.143,189.143)"><stop offset="0" style="stop-color:#0b81d0;stop-opacity:1"/><stop offset="1" style="stop-color:#002e4d;stop-opacity:1"/></radialGradient></defs></svg>
