
<svg width="62px" height="35px" viewBox="0 0 62 35" version="1.1" xmlns="http://www.w3.org/2000/svg" xmlns:xlink="http://www.w3.org/1999/xlink">
    <g id="Symbols" stroke="none" stroke-width="1" fill="none" fill-rule="evenodd">
        <g id="icon/media" fill="#013D65" fill-rule="nonzero">
            <g id="Group">
                <path d="M49.3884691,0 C49.951566,0 50.4080463,0.454203877 50.4080463,1.01449275 L50.4080463,1.01449275 L50.4079056,12.5180797 L60.5440178,7.7416541 C61.2060553,7.42967549 61.9668742,7.8932722 61.9989498,8.61133332 L61.9989498,8.61133332 L62,8.65851882 L62,26.4628526 C62,27.1999205 61.2350258,27.6909759 60.5601301,27.3871398 L60.5601301,27.3871398 L50.4079056,22.8167029 L50.4080463,33.9855072 C50.4080463,34.5288177 49.9788123,34.9723751 49.4393563,34.9987584 L49.4393563,34.9987584 L49.3884691,35 L1.01957713,35 C0.456480232,35 0,34.5457961 0,33.9855072 L0,33.9855072 L0,1.01449275 C0,0.454203877 0.456480232,0 1.01957713,0 L1.01957713,0 Z M47.1562369,2.93489153 L3.21584844,2.93489153 L3.21584844,31.9801134 L47.1562369,31.9801134 L47.1562369,20.9388452 C47.1562369,20.2178005 49.1612141,19.4616351 49.8248742,19.7253106 L49.8248742,19.7253106 L59.2188819,23.9093575 L59.2188819,10.8764637 L49.8248742,15.6133085 C49.1628366,15.9252871 47.1883125,14.8391731 47.1562369,14.1211119 L47.1562369,14.1211119 L47.1562369,2.93489153 Z M18.1874042,10.8228865 C18.1874042,10.0748551 19.7758293,8.51900156 20.4438493,8.84457792 L20.4438493,8.84457792 L32.4338901,15.1857253 C33.1549224,15.5371386 33.1215309,17.0861179 32.4338901,17.5 L32.4338901,17.5 L20.4438493,24.9720003 C19.7732937,25.375599 18.1874042,23.8416386 18.1874042,23.054306 L18.1874042,23.054306 Z M21.0117979,12.6319273 L21.0117979,21.1975289 L28.8751618,16.4645542 L21.0117979,12.6319273 Z" id="Combined-Shape"></path>
            </g>
        </g>
    </g>
</svg>
