
<svg width="54px" height="35px" viewBox="0 0 54 35" version="1.1" xmlns="http://www.w3.org/2000/svg" xmlns:xlink="http://www.w3.org/1999/xlink">
    <g id="Symbols" stroke="none" stroke-width="1" fill="none" fill-rule="evenodd">
        <g id="icon/web" fill="#013D65" fill-rule="nonzero">
            <g id="PC">
                <path d="M45.9890202,0 L47.2049736,1.2173913 L47.204,27.838 L52.476578,27.8382297 C52.8879385,27.8382297 53.2680268,28.0460903 53.4913226,28.3848369 L53.5597751,28.5024944 C54.7133532,30.7669116 53.5551662,32.9402494 50.6086711,34.8107418 C50.4528849,34.9096378 50.2771988,34.9714255 50.0950994,34.9921847 L49.957533,35 L4.04246696,35 C3.81188795,35 3.58606163,34.9343619 3.39132893,34.8107418 C0.444833759,32.9402494 -0.713353213,30.7669116 0.440224851,28.5024944 C0.627128159,28.1356124 0.984770722,27.8910636 1.38763225,27.8458227 L1.52342203,27.8382297 L6.795,27.838 L6.79502636,1.2173913 L8.01097985,0 L45.9890202,0 Z M51.5416943,30.2728696 L2.45729996,30.2728696 L2.45836789,30.2943148 C2.50241516,30.9124083 3.01801794,31.5920255 4.15132886,32.3922929 L4.3710991,32.5437713 L4.40282554,32.5646087 L49.5961687,32.5646087 L49.7860765,32.4361781 C50.8894679,31.6680333 51.4275501,31.0108121 51.5275069,30.4130827 L51.5416943,30.2943148 L51.5416943,30.2728696 Z M44.7724813,2.43478261 L9.22651301,2.43478261 L9.226,27.838 L44.773,27.838 L44.7724813,2.43478261 Z M27.0557612,6.08695652 C27.2477114,6.08695652 27.4383212,6.09270228 27.6274284,6.10403139 L27.6959593,6.11020712 C28.0532404,6.13239925 28.4046386,6.17627072 28.7494985,6.23893192 L28.7602812,6.24639546 C31.1966997,6.70157002 33.3012853,8.10092623 34.6808253,10.0507866 L34.637735,10.0720031 C35.7274126,11.6111627 36.3678783,13.4915681 36.3678783,15.5217391 C36.3678783,20.3121424 32.801932,24.2686894 28.18267,24.8757784 C28.1744328,24.8810254 28.1660095,24.886784 28.1575773,24.892534 C27.7961015,24.9348606 27.428458,24.9565217 27.0557612,24.9565217 L27.0001217,24.9549565 L26.9442388,24.9565217 C26.6957743,24.9565217 26.4495557,24.9468946 26.2059131,24.9279352 L25.8424227,24.892534 C25.8339905,24.886784 25.8255672,24.8810254 25.8171529,24.8752581 C21.1982336,24.2688731 17.6321217,20.3122536 17.6321217,15.5217391 C17.6321217,13.0421077 18.587565,10.7858959 20.1499748,9.1019925 C20.1739344,9.07610069 20.1981166,9.05019462 20.2224432,9.02442662 C20.2382373,9.00811304 20.2539457,8.99167708 20.2697128,8.97529805 C21.5775947,7.60922595 23.294471,6.63906599 25.2232077,6.2614866 L25.2505015,6.23893192 C25.6625963,6.16405413 26.0840271,6.11600686 26.5129234,6.09666309 L26.7761217,6.08995652 L26.7744397,6.09108017 L26.783,6.09 L26.9442388,6.08695652 L27.0557612,6.08695652 Z M27.3380257,19.9335524 L27.3371217,23.9439565 L27.4425146,23.9417643 C27.5401257,23.9370726 27.6374047,23.930718 27.7343187,23.9227214 L28.0211217,23.8929565 L28.1690077,23.7847396 C29.3941039,22.8479869 30.3518104,21.7210873 31.018422,20.4185732 C29.8395803,20.1154784 28.6033002,19.9505924 27.3380257,19.9335524 Z M26.442,19.946 L26.9449201,19.9330182 C25.5886658,19.9475889 24.2653515,20.1319236 23.0095628,20.4723527 C23.6992442,21.7984181 24.6925486,22.9407065 25.9645259,23.8839572 C26.1228567,23.9042918 26.282098,23.920044 26.4421873,23.9312138 L26.442,19.946 Z M31.8891211,20.6676803 L31.8214997,20.8063967 C31.3185697,21.7931639 30.6693466,22.6760096 29.8962788,23.4538509 C31.0577042,23.0372123 32.1145326,22.369615 32.9937768,21.4975851 L33.229113,21.2547252 L33.2834723,21.195658 L33.2275342,21.1707498 C32.7926941,20.9823306 32.3459684,20.8144108 31.8891211,20.6676803 Z M22.1433368,20.7367671 L22.0975883,20.7510343 C21.8211992,20.8452879 21.548708,20.9473735 21.2805162,21.0571324 L20.8815032,21.227506 L20.8299933,21.2508152 L20.8892316,21.313896 C21.6980865,22.1660751 22.6702604,22.8376386 23.7441665,23.2898619 L24.0691217,23.4179565 L23.9588328,23.3056295 C23.2314955,22.545706 22.6197098,21.6891108 22.1433368,20.7367671 Z M19.2713897,16.080639 L18.5422669,16.0805547 C18.6502415,17.7544767 19.2398324,19.2970635 20.1737314,20.5708445 C20.6888683,20.3253375 21.2245329,20.1066861 21.7777869,19.9166677 C21.5621238,19.3749676 21.3875874,18.80531 21.2572244,18.2079234 C20.2193546,17.9969588 19.4131735,17.1439982 19.2713897,16.080639 Z M35.4577072,16.0809537 L34.7286103,16.080639 C34.5867846,17.1443127 33.7801686,17.9974632 32.7408005,18.2075415 L32.7529365,18.1566554 C32.6283955,18.7464344 32.459685,19.310079 32.2510587,19.8467598 C32.8145843,20.0310326 33.3604403,20.2452801 33.8859672,20.4867954 C34.7852043,19.2306624 35.3519857,17.718744 35.4577072,16.0809537 Z M26.4421217,18.2569565 L22.1840875,18.2579509 C22.3010698,18.7404405 22.4502283,19.2047028 22.6307602,19.6506346 C23.8370718,19.3111704 25.1156662,19.1048491 26.4421523,19.0522466 L26.4421217,18.2569565 Z M27.3371217,18.2569565 L27.3371217,19.0419565 L27.6139911,19.0459847 C28.927303,19.0839464 30.195021,19.2725105 31.3933625,19.5917671 C31.5631725,19.1638628 31.7043362,18.7191584 31.8161116,18.2581114 L32.0152754,18.2572678 L27.3371217,18.2569565 Z M32.241551,13.6794443 L21.758449,13.6794443 C20.8832253,13.6794443 20.170402,14.3755853 20.1422391,15.2449898 L20.1413748,15.2984307 L20.1413748,15.7450476 C20.1413748,16.6213062 20.8366936,17.3349724 21.7050713,17.3631686 L21.758449,17.364034 L32.241551,17.364034 C33.1167747,17.364034 33.829598,16.6678929 33.8577609,15.7984885 L33.8586252,15.7450476 L33.8586252,15.2984307 C33.8586252,14.422172 33.1633064,13.7085058 32.2949287,13.6803097 L32.241551,13.6794443 Z M22.3910039,14.5664255 C22.4000372,14.6659094 22.4203621,14.7857423 22.4485912,14.914054 L22.4793296,15.0447523 L22.676055,15.7964085 C22.6800698,15.8124868 22.6840846,15.8406236 22.6921142,15.8808191 C22.7001438,15.9009169 22.7041586,15.9250342 22.7081735,15.9411124 C22.7202179,16.0014057 22.7242327,16.0094448 22.7322623,16.0576794 C22.7724103,15.9102959 22.7874659,15.8634011 22.8006627,15.8216238 L22.8085436,15.7964085 L23.0695059,14.9724003 C23.1086503,14.8548284 23.1410196,14.7372565 23.1615328,14.6468166 L23.1779056,14.5664255 L23.6797563,14.5664255 C23.6918007,14.6327481 23.7196534,14.7397687 23.7531519,14.8535723 L23.788156,14.9683808 L24.0571479,15.8245454 C24.0667835,15.8567018 24.0789885,15.8965758 24.1019853,15.9853275 L24.121,16.06 L24.1274814,16.0368373 C24.1307527,16.0228433 24.1334292,16.0094448 24.1414588,15.9692493 L24.1482338,15.9419917 L24.1482338,15.9419917 L24.1708171,15.8437639 L24.1708171,15.8437639 L24.1775921,15.8165063 L24.3743175,15.0447523 C24.4104508,14.912107 24.4352924,14.7839838 24.4488423,14.6722528 L24.4586284,14.5664255 L25.1812933,14.5664255 C25.1009972,14.7841513 25.0876146,14.8232303 25.0412398,14.9721026 L25.0086567,15.0769087 L24.5630134,16.519928 C24.508412,16.690357 24.4820749,16.7887556 24.4634462,16.8789222 L24.4505988,16.9460005 L23.8845113,16.9460005 C23.8724669,16.8706339 23.8468725,16.7658743 23.8128094,16.6452878 L23.7761116,16.519928 L23.4950752,15.6316069 C23.4669716,15.5512158 23.4428828,15.4668052 23.4308384,15.406512 C23.4121026,15.4761842 23.3969356,15.5315647 23.3841477,15.5750354 L23.3666015,15.6316069 L23.0815503,16.519928 C23.0430082,16.645338 23.0044661,16.7836106 22.9823686,16.8812375 L22.9691358,16.9460005 L22.4070631,16.9460005 C22.3845802,16.8398843 22.3672362,16.7672108 22.3262531,16.6333115 L22.2906337,16.519928 L21.8449904,15.0769087 C21.8048423,14.9456033 21.7700474,14.837522 21.7322784,14.7300362 L21.6723538,14.5664255 L22.3910039,14.5664255 Z M25.9641803,14.5664255 C25.9732136,14.6659094 25.9935386,14.7857423 26.0217677,14.914054 L26.052506,15.0447523 L26.2492315,15.7964085 C26.2532463,15.8124868 26.2572611,15.8406236 26.2652907,15.8808191 C26.2733203,15.9009169 26.2773351,15.9250342 26.2813499,15.9411124 C26.2933943,16.0014057 26.2974091,16.0094448 26.3054387,16.0576794 C26.3455868,15.9102959 26.3606423,15.8634011 26.3738391,15.8216238 L26.38172,15.7964085 L26.6426824,14.9724003 C26.6818267,14.8548284 26.7141961,14.7372565 26.7347092,14.6468166 L26.7510821,14.5664255 L27.2529327,14.5664255 C27.2649771,14.6327481 27.2928298,14.7397687 27.3263284,14.8535723 L27.3613325,14.9683808 L27.6303244,15.8245454 L27.6381613,15.8507529 L27.6381613,15.8507529 L27.6598091,15.9272852 C27.6658474,15.9495803 27.6728563,15.9761629 27.6811405,16.0085575 L27.694,16.06 L27.7006578,16.0368373 C27.7039291,16.0228433 27.7066057,16.0094448 27.7146353,15.9692493 L27.7214103,15.9419917 L27.7214103,15.9419917 L27.7439936,15.8437639 L27.7439936,15.8437639 L27.7507685,15.8165063 L27.947494,15.0447523 C27.9836272,14.912107 28.0084688,14.7839838 28.0220188,14.6722528 L28.0318049,14.5664255 L28.7544698,14.5664255 C28.6741737,14.7841513 28.660791,14.8232303 28.6144163,14.9721026 L28.5818332,15.0769087 L28.1361898,16.519928 C28.0815885,16.690357 28.0552513,16.7887556 28.0366227,16.8789222 L28.0237753,16.9460005 L27.4576878,16.9460005 C27.4456434,16.8706339 27.420049,16.7658743 27.3859859,16.6452878 L27.349288,16.519928 L27.0682517,15.6316069 C27.0401481,15.5512158 27.0160592,15.4668052 27.0040148,15.406512 C26.985279,15.4761842 26.970112,15.5315647 26.9573241,15.5750354 L26.9397779,15.6316069 L26.6547268,16.519928 L26.5989692,16.7110014 C26.5817537,16.7734492 26.5665938,16.832424 26.555545,16.8812375 L26.5423122,16.9460005 L25.9802395,16.9460005 C25.9577566,16.8398843 25.9404127,16.7672108 25.8994295,16.6333115 L25.8638102,16.519928 L25.4181668,15.0769087 C25.3780188,14.9456033 25.3432238,14.837522 25.3054549,14.7300362 L25.2455302,14.5664255 L25.9641803,14.5664255 Z M29.5373568,14.5664255 C29.5463901,14.6659094 29.566715,14.7857423 29.5949441,14.914054 L29.6256825,15.0447523 L29.8224079,15.7964085 C29.8264227,15.8124868 29.8304375,15.8406236 29.8384671,15.8808191 C29.8464967,15.9009169 29.8505116,15.9250342 29.8545264,15.9411124 C29.8665708,16.0014057 29.8705856,16.0094448 29.8786152,16.0576794 C29.9187632,15.9102959 29.9338188,15.8634011 29.9470156,15.8216238 L29.9548965,15.7964085 L30.2158588,14.9724003 C30.2550032,14.8548284 30.2873725,14.7372565 30.3078857,14.6468166 L30.3242585,14.5664255 L30.8261092,14.5664255 C30.8381536,14.6327481 30.8660063,14.7397687 30.8995048,14.8535723 L30.9345089,14.9683808 L31.2035008,15.8245454 L31.2113377,15.8507529 L31.2113377,15.8507529 L31.2329856,15.9272852 C31.2390238,15.9495803 31.2460328,15.9761629 31.254317,16.0085575 L31.267,16.06 L31.2790386,16.0128689 C31.2811204,16.0027456 31.2837969,15.9893471 31.2878117,15.9692493 C31.2908228,15.9602053 31.3073839,15.8855924 31.31717,15.8437639 L31.323945,15.8165063 L31.5206704,15.0447523 C31.5568037,14.912107 31.5816453,14.7839838 31.5951952,14.6722528 L31.6049813,14.5664255 L32.3276462,14.5664255 C32.2473501,14.7841513 32.2339675,14.8232303 32.1875927,14.9721026 L32.1550096,15.0769087 L31.7093663,16.519928 C31.6547649,16.690357 31.6284278,16.7887556 31.6097991,16.8789222 L31.5969517,16.9460005 L31.0308642,16.9460005 C31.0188198,16.8706339 30.9932254,16.7658743 30.9591623,16.6452878 L30.9224645,16.519928 L30.6414281,15.6316069 C30.6133245,15.5512158 30.5892357,15.4668052 30.5771913,15.406512 C30.5584555,15.4761842 30.5432885,15.5315647 30.5305006,15.5750354 L30.5129544,15.6316069 L30.2279032,16.519928 C30.1893611,16.645338 30.150819,16.7836106 30.1287215,16.8812375 L30.1154887,16.9460005 L29.553416,16.9460005 C29.5309331,16.8398843 29.5135891,16.7672108 29.472606,16.6333115 L29.4369866,16.519928 L28.9913433,15.0769087 C28.9511952,14.9456033 28.9164003,14.837522 28.8786313,14.7300362 L28.8187067,14.5664255 L29.5373568,14.5664255 Z M33.8248258,10.4706665 L33.4868885,10.621512 C33.081144,10.794022 32.6641198,10.950555 32.236991,11.0901272 C32.4493659,11.6484823 32.621085,12.2315091 32.749157,12.8381352 C33.8560292,13.0651838 34.6971766,14.0228667 34.7483367,15.1860139 L35.4681217,15.1859565 L35.4685614,15.1691163 C35.3974107,13.4148615 34.7977995,11.7969511 33.8248258,10.4706665 Z M20.23505,10.3905349 L20.2068407,10.4277813 C19.2119839,11.7663594 18.5993704,13.406571 18.5307521,15.1864729 L19.2521217,15.1859565 L19.2545333,15.1332515 C19.3244852,14.0542418 20.0748417,13.1609138 21.0803586,12.8790147 L21.2501217,12.8379565 L21.3266607,12.5014355 C21.4500012,11.9892868 21.6049189,11.4944175 21.7894545,11.0175017 C21.2548937,10.8360813 20.7355536,10.6257343 20.23505,10.3905349 Z M31.379836,11.3428214 C30.1012993,11.6829896 28.7445266,11.8736704 27.3378564,11.8915864 L27.3371217,12.7859565 L32.0152754,12.7862104 L31.8236668,12.7855579 C31.7077502,12.2891295 31.5594918,11.8078816 31.379836,11.3428214 Z M22.6442459,11.2851038 L22.5636765,11.4923828 C22.4092115,11.9108431 22.2798749,12.3421316 22.1763395,12.7855307 L21.9847246,12.7862104 L26.4411217,12.7859565 L26.4419083,11.8795686 C25.1202616,11.8271434 23.8462183,11.6221463 22.6442459,11.2851038 Z M27.3375394,6.98910562 L27.3371217,10.9959565 L27.6206981,10.9919968 C28.7867293,10.9559083 29.9261881,10.7941301 31.0168703,10.515346 C30.4074782,9.2643058 29.5544013,8.14770184 28.4794249,7.18568293 L28.3839516,7.10129902 C28.0416599,7.04305717 27.6924247,7.00522773 27.3375394,6.98910562 Z M26.4421468,7.00194387 C26.4052081,7.0045722 26.3683345,7.00743597 26.3315273,7.01053368 C26.0901253,7.03085024 25.8515831,7.06123004 25.6163209,7.10125265 L25.5205751,7.18568293 C24.4614751,8.13349372 23.6177685,9.23135713 23.0094189,10.4579797 C24.1105202,10.7576671 25.2625583,10.936216 26.4430497,10.9856223 L26.4421468,7.00194387 Z M30.1425038,7.60065396 L30.1672339,7.62949975 C30.8546275,8.42292061 31.4337905,9.30257083 31.8869781,10.2627934 C32.3446689,10.1179017 32.7920616,9.94976753 33.2275342,9.76107422 L33.2387735,9.75597602 C32.3868307,8.82421339 31.3312147,8.0822188 30.1425038,7.60065396 Z M23.8573639,7.60119763 L23.6793586,7.67519492 C22.6523478,8.11876237 21.7296973,8.75852401 20.9585165,9.54731503 L20.9511217,9.55395652 L20.893875,9.61415239 C20.8724482,9.63654845 20.8511419,9.65906111 20.8299573,9.68168931 L20.8815032,9.70431799 C21.2920572,9.88702256 21.7135118,10.0513327 22.144353,10.19665 C22.598791,9.25013557 23.1752979,8.38350094 23.8573639,7.60119763 Z" id="Combined-Shape"></path>
            </g>
        </g>
    </g>
</svg>
