
<svg width="100%" height="100%" viewBox="0 0 327 327" version="1.1" xmlns="http://www.w3.org/2000/svg" xmlns:xlink="http://www.w3.org/1999/xlink">
    <g id="Symbols" stroke="none" stroke-width="1" fill="none" fill-rule="evenodd">
        <g id="icon/mission" transform="translate(-2.000000, -2.000000)" fill="#05588F" fill-rule="nonzero">
            <path d="M165.5,2.15833355 L202.591316,39.2496499 C204.95572,41.614054 204.95572,45.4475105 202.591316,47.8119146 C200.278312,50.1249187 196.559433,50.1752014 194.185304,47.9627627 L194.029052,47.8119146 L165.499792,19.2821227 L19.2826556,165.49926 L165.499792,311.716396 L311.716929,165.49926 L260.679741,114.462604 C258.366737,112.1496 258.316454,108.430721 260.528893,106.056592 L260.679741,105.90034 C262.992745,103.587336 266.711624,103.537053 269.085753,105.749491 L269.242006,105.90034 L328.841666,165.5 L165.5,328.841666 L2.15833355,165.5 L165.5,2.15833355 Z M164.045872,222 C164.884666,222 165.828309,222.611354 166.876802,223.834061 C169.812582,226.075691 172.853211,228.368268 175.998689,230.71179 C179.144168,233.055313 180.716907,235.347889 180.716907,237.58952 C181.346003,240.442504 180.926606,242.989811 179.458716,245.231441 C177.990826,247.473071 176.051114,249.20524 173.639581,250.427948 C171.228047,251.650655 168.711664,252.160116 166.090433,251.956332 C163.469201,251.752547 161.214941,250.52984 159.327654,248.28821 C158.069463,246.861718 157.335518,245.231441 157.125819,243.39738 C156.916121,241.563319 156.968545,239.627365 157.283093,237.58952 C157.597641,235.551674 158.017038,233.615721 158.541284,231.781659 C159.065531,229.947598 159.327654,228.317322 159.327654,226.89083 C159.327654,226.279476 159.537353,225.56623 159.95675,224.751092 C160.376147,223.935953 160.952818,223.273654 161.686763,222.764192 C162.420708,222.254731 163.207077,222 164.045872,222 Z M164.799848,78.1428036 C172.793604,77.5239881 180.326182,78.9163229 187.397582,82.3198081 C194.468983,85.7232933 199.336975,91.4473366 202.001561,99.4919379 C204.666146,108.567898 204.666146,116.6125 202.001561,123.625742 C199.336975,130.638984 195.852517,136.827139 191.548187,142.190207 C188.883601,145.490556 186.014048,148.584633 182.939526,151.472439 C179.865004,154.360245 177.046693,157.351186 174.484591,160.445264 C171.92249,163.539341 169.92405,166.83969 168.489274,170.346311 C167.054497,173.852933 166.747045,177.875233 167.566917,182.413213 C169.001694,185.301019 169.616598,187.518441 169.41163,189.06548 C169.206662,190.612519 168.38679,191.901718 166.952013,192.933077 C163.262587,194.995795 159.573161,194.067572 155.883734,190.148407 C153.424117,187.466873 151.73313,184.218092 150.810774,180.402063 C149.888417,176.586034 149.683449,172.770005 150.195869,168.953977 C150.708289,165.137948 151.835614,161.373487 153.577843,157.660594 C155.320072,153.947701 157.625963,150.647352 160.495517,147.759546 C163.365071,144.87174 166.337108,141.829231 169.41163,138.632018 C172.486152,135.434804 175.253222,132.082887 177.712839,128.576266 C180.172456,125.069645 182.017169,121.511456 183.246978,117.901699 C184.476787,114.291942 184.784239,110.527481 184.169335,106.608316 C183.964367,105.164413 183.144494,103.875214 181.709717,102.740719 C180.27494,101.606224 178.430227,100.678001 176.175578,99.9560496 C173.920929,99.2340982 171.410069,98.8215545 168.643,98.7184186 C165.87593,98.6152827 163.057619,98.9762584 160.188065,99.8013457 C155.473798,101.245248 151.374436,103.772078 147.889978,107.381835 C144.40552,110.991592 142.560807,114.859189 142.355839,118.984626 C143.790616,122.284975 143.688131,124.553965 142.048387,125.791596 C140.61361,126.822955 139.127591,127.338635 137.59033,127.338635 C136.053069,127.338635 134.669534,126.926091 133.439726,126.101004 C128.520491,121.15048 126.419568,115.787412 127.136956,110.011801 C127.854344,104.23619 130.057752,98.9762584 133.747178,94.2320063 C137.231636,89.4877542 141.689692,85.7232933 147.121347,82.9386236 C152.553003,80.1539539 158.445836,78.5553472 164.799848,78.1428036 Z M274.863961,36.2720779 C278.964466,40.372583 278.964466,47.0208153 274.863961,51.1213203 L235.265981,90.7193001 C231.165476,94.8198052 224.517244,94.8198052 220.416739,90.7193001 C216.316234,86.618795 216.316234,79.9705627 220.416739,75.8700577 L260.014719,36.2720779 C264.115224,32.1715729 270.763456,32.1715729 274.863961,36.2720779 Z" id="Combined-Shape"></path>
        </g>
    </g>
</svg>
