
<svg width="80px" height="53px" viewBox="0 0 80 53" version="1.1" xmlns="http://www.w3.org/2000/svg" xmlns:xlink="http://www.w3.org/1999/xlink">
    <g id="Symbols" stroke="none" stroke-width="1" fill="none" fill-rule="evenodd">
        <g id="logo" transform="translate(-1.000000, 0.000000)">
            <g transform="translate(1.877909, 0.000000)">
                <path d="M3.98701772,38.6253455 C3.93739401,36.5362499 3.93739401,34.5323581 3.93739401,32.7843763 C3.93739401,30.354167 3.93739401,28.3930973 3.98701772,27.2845366 C4.08624951,24.001661 8.00606943,22.083083 11.5289465,22.083083 C12.5213114,22.083083 13.0671097,21.4436619 13.0671097,20.8467325 C13.0671097,20.2498031 12.5709351,19.6955228 11.5289465,19.6955228 C10.9335402,19.6955228 6.46792195,19.9514171 4.28472874,22.5520652 C4.23510502,22.6373633 4.13587323,22.7226615 4.08624951,22.7226615 C4.08624951,22.7226615 4.03664144,22.6373633 4.03664144,22.5094162 C4.03664144,21.9126442 4.08624951,21.6141008 4.08624951,20.9746797 C4.08624951,20.164505 3.34198763,19.7808209 2.5977101,19.7808209 C1.85344823,19.7808209 1.05956263,20.2071541 1.05956263,20.8893816 L1.05956263,20.9320306 C1.1091707,22.8079596 1.15879442,25.0675726 1.15879442,27.4551329 C1.15879442,31.1216926 1.05956263,35.1292875 0.960315192,38.5827122 L0.960315192,38.6253455 C0.960315192,39.3927609 1.75421644,39.8191099 2.54810204,39.8191099 C3.29236391,39.8191099 3.98701772,39.4353943 3.98701772,38.6679788 L3.98701772,38.6253455 Z" id="Fill-1" fill="#001D32"></path>
                <path d="M26.2691157,38.4588253 C26.2193512,36.0014685 26.1697431,32.7543174 26.1697431,29.6388904 C26.1697431,25.8651572 26.2193512,22.2668989 26.2691157,20.424019 L26.2691157,20.3801109 C26.2691157,19.5902378 25.4752301,19.19538 24.7309526,19.19538 C23.937067,19.19538 23.1431814,19.6341459 23.1431814,20.424019 L23.1431814,20.4679271 C23.1927895,21.6965661 23.1927895,23.4955379 23.1927895,25.5579581 C23.1927895,29.6388904 23.1431814,34.7728295 23.1431814,38.5027019 C23.1431814,39.3803124 23.937067,39.8191099 24.6813445,39.8191099 C25.4752301,39.8191099 26.2691157,39.3803124 26.2691157,38.5027019 L26.2691157,38.4588253 Z" id="Fill-2" fill="#001D32"></path>
                <path d="M40.9049045,38.4588253 C40.8552965,36.0014685 40.8056884,32.7543174 40.8056884,29.6388904 C40.8056884,25.8651572 40.8552965,22.2668989 40.9049045,20.424019 L40.9049045,20.3801109 C40.9049045,19.5902378 40.1110189,19.19538 39.3667414,19.19538 C38.5728558,19.19538 37.7789702,19.6341459 37.7789702,20.424019 L37.7789702,20.4679271 C37.8285783,21.6965661 37.8285783,23.4955379 37.8285783,25.5579581 C37.8285783,29.6388904 37.7789702,34.7728295 37.7789702,38.5027019 C37.7789702,39.3803124 38.5728558,39.8191099 39.3171333,39.8191099 C40.1110189,39.8191099 40.9049045,39.3803124 40.9049045,38.5027019 L40.9049045,38.4588253 Z" id="Fill-3" fill="#001D32"></path>
                <path d="M55.3813841,30.5379829 C55.3813841,26.8456133 55.792959,2.96528969 55.792959,1.51821196 C55.792959,0.470241249 54.9349115,0 54.190634,0 C53.4959645,0 52.751687,0.661296428 52.751687,1.609333 C52.751687,1.609333 52.6028628,28.9911284 52.6028628,32.1846141 C52.6028628,34.3801749 52.6028628,39.8191099 58.9539476,39.8191099 C60.9385833,39.8191099 62.12949,39.5696207 62.12949,38.2722554 C62.12949,37.6235805 61.6828608,36.9749057 60.9385833,36.9749057 L60.740151,36.9749057 C60.2439139,37.0248098 59.7974412,37.0746982 59.3508121,37.0746982 C55.4806003,37.0746982 55.3813841,34.4300633 55.3813841,30.5379829 Z" id="Fill-4" fill="#001D32"></path>
                <path d="M68.2920015,30.5379829 C68.2920015,28.4270907 68.4259589,19.7488734 68.5406678,12.4318063 C68.6267386,6.94990756 68.7018549,2.23207216 68.7018549,1.61232316 C68.7018549,0.564352449 67.8455289,0 67.1012513,0 C66.4065819,0 65.6623043,0.577414706 65.6623043,1.52545128 L65.6623043,11.6265103 C65.6623043,13.3729183 65.5134801,28.9911284 65.5134801,32.1846141 C65.5134801,34.3801749 65.5134801,39.8191099 71.8645649,39.8191099 C73.8492007,39.8191099 75.0401073,39.5696207 75.0401073,38.2722554 C75.0401073,37.6235805 74.5934782,36.9749057 73.8492007,36.9749057 L73.6507684,36.9749057 C73.1545312,37.0248098 72.7080586,37.0746982 72.2614295,37.0746982 C68.3912176,37.0746982 68.2920015,34.4300633 68.2920015,30.5379829 Z" id="Fill-5" fill="#001D32"></path>
                <path d="M0.974330826,51.8890225 L0.974330826,45.0357335 L0.00190467579,45.0357335 L0.00190467579,51.8890225 L0.974330826,51.8890225 Z M8.54640041,51.8890225 L8.54640041,45.7627378 L10.9774658,45.7627378 L10.9774658,45.0357335 L5.14290889,45.0357335 L5.14290889,45.7627378 L7.57397426,45.7627378 L7.57397426,51.8890225 L8.54640041,51.8890225 Z" id="IT" fill="#001D32" fill-rule="nonzero"></path>
                <path d="M22.571322,52.0603547 C23.2967828,52.0603547 23.8794667,51.8797613 24.3193738,51.5185745 C24.7592809,51.1573876 24.9792344,50.6788922 24.9792344,50.0830882 C24.9792344,49.6632471 24.8619258,49.3036038 24.6273087,49.0041583 C24.3926916,48.7047128 23.9790246,48.3867448 23.3863077,48.0502545 L23.3863077,48.0502545 L22.8954641,47.7724185 C22.4694488,47.5285402 22.1761774,47.3186196 22.0156499,47.1426568 C21.8551224,46.966694 21.7748587,46.7644911 21.7748587,46.5360481 C21.7748587,46.2643862 21.8844496,46.0390303 22.1036314,45.8599804 C22.3228131,45.6809305 22.6006492,45.5914055 22.9371395,45.5914055 C23.2921522,45.5914055 23.8308454,45.7334106 24.5532191,46.0174208 L24.5532191,46.0174208 L24.5532191,45.1283455 C23.9666764,44.9523827 23.4094608,44.8644012 22.8815723,44.8644012 C22.2888554,44.8644012 21.8010988,45.0349617 21.4183024,45.3760826 C21.0355061,45.7172035 20.844108,46.1517082 20.844108,46.6795967 C20.844108,47.0716542 20.9637318,47.4150905 21.2029795,47.7099054 C21.4422272,48.0047203 21.8535789,48.3188294 22.4370346,48.6522326 L22.4370346,48.6522326 L22.9093559,48.9254381 C23.3199358,49.1569681 23.6016307,49.3668887 23.7544405,49.5551998 C23.9072503,49.7435109 23.9836552,49.9719538 23.9836552,50.2405287 C23.9836552,50.5677578 23.8671185,50.831702 23.6340449,51.0323614 C23.4009713,51.2330208 23.0930364,51.3333504 22.71024,51.3333504 C22.2132222,51.3333504 21.5788299,51.1543005 20.8070632,50.7962008 L20.8070632,50.7962008 L20.8070632,51.7593657 C21.5232627,51.9600251 22.111349,52.0603547 22.571322,52.0603547 Z M33.5700361,51.8890225 L33.5700361,51.1620182 L30.5138397,51.1620182 L30.5138397,48.6800162 L32.9078602,48.6800162 L32.9078602,47.9622731 L30.5138397,47.9622731 L30.5138397,45.7627378 L33.3709203,45.7627378 L33.3709203,45.0357335 L29.5414135,45.0357335 L29.5414135,51.8890225 L33.5700361,51.8890225 Z M38.8499584,51.8890225 L38.8499584,48.9902665 L39.7575561,48.9902665 L41.707039,51.8890225 L42.901734,51.8890225 L40.6142172,48.6800162 C41.5372503,48.2972199 41.9987669,47.6489358 41.9987669,46.7351639 C41.9987669,46.1825789 41.8235758,45.7611942 41.4731937,45.4710099 C41.1228116,45.1808256 40.6188478,45.0357335 39.9613025,45.0357335 L39.9613025,45.0357335 L37.8867934,45.0357335 L37.8867934,51.8890225 L38.8499584,51.8890225 Z M39.1648392,48.2632622 L38.8499584,48.2632622 L38.8499584,45.7627378 L39.4611977,45.7627378 C40.486104,45.7627378 40.9985571,46.116207 40.9985571,46.8231453 C40.9985571,47.7832232 40.3873178,48.2632622 39.1648392,48.2632622 L39.1648392,48.2632622 Z M49.8764561,51.8890225 L52.3630887,45.0357335 L51.5110581,45.0357335 L49.4643326,50.6480215 L47.3435175,45.0357335 L46.3710913,45.0357335 L48.9595971,51.8890225 L49.8764561,51.8890225 Z M57.4624175,51.8890225 L57.4624175,45.0357335 L56.4899913,45.0357335 L56.4899913,51.8890225 L57.4624175,51.8890225 Z M63.7749637,52.0603547 C64.5004244,52.0603547 65.0831084,51.8797613 65.5230154,51.5185745 C65.9629225,51.1573876 66.182876,50.6788922 66.182876,50.0830882 C66.182876,49.6632471 66.0655675,49.3036038 65.8309504,49.0041583 C65.5963333,48.7047128 65.1826663,48.3867448 64.5899494,48.0502545 L64.5899494,48.0502545 L64.0991057,47.7724185 C63.6730904,47.5285402 63.3798191,47.3186196 63.2192916,47.1426568 C63.0587641,46.966694 62.9785003,46.7644911 62.9785003,46.5360481 C62.9785003,46.2643862 63.0880912,46.0390303 63.307273,45.8599804 C63.5264548,45.6809305 63.8042908,45.5914055 64.1407811,45.5914055 C64.4957938,45.5914055 65.0344871,45.7334106 65.7568608,46.0174208 L65.7568608,46.0174208 L65.7568608,45.1283455 C65.170318,44.9523827 64.6131024,44.8644012 64.0852139,44.8644012 C63.492497,44.8644012 63.0047404,45.0349617 62.6219441,45.3760826 C62.2391478,45.7172035 62.0477496,46.1517082 62.0477496,46.6795967 C62.0477496,47.0716542 62.1673734,47.4150905 62.4066212,47.7099054 C62.6458689,48.0047203 63.0572206,48.3188294 63.6406762,48.6522326 L63.6406762,48.6522326 L64.1129975,48.9254381 C64.5235774,49.1569681 64.8052723,49.3668887 64.9580821,49.5551998 C65.110892,49.7435109 65.1872969,49.9719538 65.1872969,50.2405287 C65.1872969,50.5677578 65.0707601,50.831702 64.8376865,51.0323614 C64.604613,51.2330208 64.296678,51.3333504 63.9138817,51.3333504 C63.4168639,51.3333504 62.7824716,51.1543005 62.0107048,50.7962008 L62.0107048,50.7962008 L62.0107048,51.7593657 C62.7269044,51.9600251 63.3149907,52.0603547 63.7749637,52.0603547 Z M74.7736778,51.8890225 L74.7736778,51.1620182 L71.7174813,51.1620182 L71.7174813,48.6800162 L74.1115019,48.6800162 L74.1115019,47.9622731 L71.7174813,47.9622731 L71.7174813,45.7627378 L74.5745619,45.7627378 L74.5745619,45.0357335 L70.7450552,45.0357335 L70.7450552,51.8890225 L74.7736778,51.8890225 Z" id="SERVISE" fill="#001D32" fill-rule="nonzero"></path>
                <path d="M72.6515648,10.9891351 C72.6515648,10.3382255 72.189756,9.75121084 71.2645733,9.79669268 C66.6657332,10.0226855 52.486589,9.86452199 48.3775698,9.79669268 C47.7692842,9.78662058 47.2201526,10.3382255 47.2201526,10.9892925 C47.2201526,11.640202 47.7689712,12.1716628 48.3929061,12.1686726 C52.8161618,12.1472694 67.0178409,12.029237 71.382725,12.1686726 C72.0711348,12.190548 72.6515648,11.640202 72.6515648,10.9891351 Z" id="Fill-6" fill="#001D32"></path>
                <path d="M17.2833261,10.9892925 C17.2833261,10.3383829 16.6875598,9.78898123 16.1105725,9.80991231 C13.4974636,9.90465302 11.1578406,9.90182024 8.8097045,9.80991231 C8.2158474,9.78662058 7.63695097,10.3383829 7.63695097,10.9892925 C7.63695097,11.640202 8.35487519,12.1885021 8.8097045,12.1686726 C11.7582861,12.0393091 13.4014555,12.0393091 16.1105725,12.1686726 C16.570034,12.190548 17.2833261,11.640202 17.2833261,10.9892925 Z" id="Fill-7" fill="#001D32"></path>
                <path d="M2.2427542,8.67207957 C3.48056159,8.67207957 4.4855084,9.71029293 4.4855084,10.9891351 C4.4855084,12.2681346 3.48056159,13.306348 2.2427542,13.306348 C1.0049468,13.306348 0,12.2681346 0,10.9891351 C0,9.71029293 1.0049468,8.67207957 2.2427542,8.67207957 Z M2.2427542,10.0590395 C2.73964865,10.0590395 3.14305458,10.4757727 3.14305458,10.9891351 C3.14305458,11.5024975 2.73964865,11.9193881 2.2427542,11.9193881 C1.7458754,11.9193881 1.34246946,11.5024975 1.34246946,10.9891351 C1.34246946,10.4757727 1.7458754,10.0590395 2.2427542,10.0590395 Z" id="Fill-8" fill="#004370"></path>
                <path d="M39.3420156,6.69369847 C33.6697946,6.69369847 30.8336841,15.2847291 25.161463,15.2847291 C22.325509,15.2847291 20.4347686,13.1370108 20.4347686,10.9891351 C20.4347686,8.84141678 22.325509,6.69369847 25.161463,6.69369847 C30.8336841,6.69369847 33.6697946,15.2847291 39.3420156,15.2847291 C42.1779696,15.2847291 44.06871,13.1370108 44.06871,10.9891351 C44.06871,8.84141678 42.1779696,6.69369847 39.3420156,6.69369847 Z" id="Stroke-9" stroke="#0061A1" stroke-width="2.3058727" stroke-linecap="square" stroke-linejoin="round"></path>
                <path d="M74.3167997,7.73978066 C76.0834417,7.73978066 77.5176939,9.19582886 77.5176939,10.9891351 C77.5176939,12.7825987 76.0834417,14.2386469 74.3167997,14.2386469 C76.0834417,14.2386469 77.5176939,12.7825987 77.5176939,10.9891351 C77.5176939,9.19582886 76.0834417,7.73978066 74.3167997,7.73978066 Z" id="Stroke-10" stroke="#0B81D0" stroke-width="2.3058727" stroke-linecap="round" stroke-linejoin="round"></path>
            </g>
        </g>
    </g>
</svg>
