
<svg width="159px" height="98px" viewBox="0 0 159 98" version="1.1" xmlns="http://www.w3.org/2000/svg" xmlns:xlink="http://www.w3.org/1999/xlink">
    <g id="Symbols" stroke="none" stroke-width="1" fill="none" fill-rule="evenodd">
        <g id="Footer" transform="translate(-99.000000, -351.000000)">
            <g id="Group" transform="translate(96.000000, 351.500000)">
                <g id="logo" transform="translate(2.000000, 0.000000)">
                    <path d="M9.72985437,77.2506909 C9.63060693,73.0724999 9.63060693,69.0647162 9.63060693,65.5687526 C9.63060693,60.708334 9.63060693,56.7861947 9.72985437,54.5690733 C9.92831794,48.003322 17.7679578,44.166166 24.813712,44.166166 C26.7984417,44.166166 27.8900383,42.8873238 27.8900383,41.693465 C27.8900383,40.4996062 26.8976891,39.3910455 24.813712,39.3910455 C23.6228993,39.3910455 14.6916628,39.9028342 10.3252764,45.1041305 C10.226029,45.2747267 10.0275654,45.4453229 9.92831794,45.4453229 C9.92831794,45.4453229 9.8291018,45.2747267 9.8291018,45.0188324 C9.8291018,43.8252883 9.92831794,43.2282015 9.92831794,41.9493594 C9.92831794,40.32901 8.43979418,39.5616418 6.95123913,39.5616418 C5.46271537,39.5616418 3.87494418,40.4143081 3.87494418,41.7787631 L3.87494418,41.8640613 C3.97416031,45.6159191 4.07340775,50.1351453 4.07340775,54.9102657 C4.07340775,62.2433853 3.87494418,70.258575 3.6764493,77.1654243 L3.6764493,77.2506909 C3.6764493,78.7855219 5.2642518,79.6382197 6.85202299,79.6382197 C8.34054675,79.6382197 9.72985437,78.8707885 9.72985437,77.3359576 L9.72985437,77.2506909 Z" id="Fill-1" fill="#FFFFFF"></path>
                    <path d="M54.2940504,76.9176506 C54.1945213,72.0029371 54.0953051,65.5086348 54.0953051,59.2777808 C54.0953051,51.7303144 54.1945213,44.5337977 54.2940504,40.848038 L54.2940504,40.7602219 C54.2940504,39.1804757 52.7062792,38.3907599 51.2177241,38.3907599 C49.6299529,38.3907599 48.0421817,39.2682918 48.0421817,40.848038 L48.0421817,40.9358541 C48.1413979,43.3931322 48.1413979,46.9910758 48.1413979,51.1159162 C48.1413979,59.2777808 48.0421817,69.545659 48.0421817,77.0054038 C48.0421817,78.7606249 49.6299529,79.6382197 51.118508,79.6382197 C52.7062792,79.6382197 54.2940504,78.7606249 54.2940504,77.0054038 L54.2940504,76.9176506 Z" id="Fill-2" fill="#FFFFFF"></path>
                    <path d="M83.565628,76.9176506 C83.4664118,72.0029371 83.3671957,65.5086348 83.3671957,59.2777808 C83.3671957,51.7303144 83.4664118,44.5337977 83.565628,40.848038 L83.565628,40.7602219 C83.565628,39.1804757 81.9778568,38.3907599 80.4893017,38.3907599 C78.9015305,38.3907599 77.3137593,39.2682918 77.3137593,40.848038 L77.3137593,40.9358541 C77.4129755,43.3931322 77.4129755,46.9910758 77.4129755,51.1159162 C77.4129755,59.2777808 77.3137593,69.545659 77.3137593,77.0054038 C77.3137593,78.7606249 78.9015305,79.6382197 80.3900856,79.6382197 C81.9778568,79.6382197 83.565628,78.7606249 83.565628,77.0054038 L83.565628,76.9176506 Z" id="Fill-3" fill="#FFFFFF"></path>
                    <path d="M112.518587,61.0759658 C112.518587,53.6912267 113.341737,5.93057939 113.341737,3.03642391 C113.341737,0.940482497 111.625642,0 110.137087,0 C108.747748,0 107.259193,1.32259286 107.259193,3.218666 C107.259193,3.218666 106.961545,57.9822568 106.961545,64.3692283 C106.961545,68.7603499 106.961545,79.6382197 119.663714,79.6382197 C123.632986,79.6382197 126.014799,79.1392415 126.014799,76.5445107 C126.014799,75.2471611 125.121541,73.9498114 123.632986,73.9498114 L123.236121,73.9498114 C122.243647,74.0496196 121.350701,74.1493964 120.457443,74.1493964 C112.717019,74.1493964 112.518587,68.8601266 112.518587,61.0759658 Z" id="Fill-4" fill="#FFFFFF"></path>
                    <path d="M138.339822,61.0759658 C138.339822,56.8541814 138.607737,39.4977469 138.837155,24.8636126 C139.009296,13.8998151 139.159529,4.46414433 139.159529,3.22464631 C139.159529,1.1287049 137.446877,0 135.958322,0 C134.568983,0 133.080428,1.15482941 133.080428,3.05090256 L133.080428,23.2530206 C133.080428,26.7458366 132.782779,57.9822568 132.782779,64.3692283 C132.782779,68.7603499 132.782779,79.6382197 145.484949,79.6382197 C149.45422,79.6382197 151.836034,79.1392415 151.836034,76.5445107 C151.836034,75.2471611 150.942775,73.9498114 149.45422,73.9498114 L149.057356,73.9498114 C148.064881,74.0496196 147.171936,74.1493964 146.278678,74.1493964 C138.538254,74.1493964 138.339822,68.8601266 138.339822,61.0759658 Z" id="Fill-5" fill="#FFFFFF"></path>
                    <text id="IT" font-family="LucidaGrande, Lucida Grande" font-size="18.9669405" font-weight="normal" letter-spacing="6.41082621" fill="#FFFFFF">
                        <tspan x="0" y="100.778045">IT</tspan>
                    </text>
                    <text id="SERVISE" font-family="LucidaGrande, Lucida Grande" font-size="18.9669405" font-weight="normal" letter-spacing="6.41082621" fill="#FFFFFF">
                        <tspan x="42.4438251" y="100.778045">SERVISE</tspan>
                    </text>
                    <path d="M147.058949,21.9782702 C147.058949,20.676451 146.135331,19.5024217 144.284966,19.5933854 C135.087285,20.0453709 106.728997,19.729044 98.5109586,19.5933854 C97.2943872,19.5732412 96.1961241,20.676451 96.1961241,21.9785849 C96.1961241,23.2804041 97.2937613,24.3433256 98.5416311,24.3373453 C107.388143,24.2945388 135.791501,24.0584739 144.521269,24.3373453 C145.898089,24.381096 147.058949,23.2804041 147.058949,21.9782702 Z" id="Fill-6" fill="#FFFFFF"></path>
                    <path d="M36.322471,21.9785849 C36.322471,20.6767658 35.1309384,19.5779625 33.976964,19.6198246 C28.7507461,19.809306 24.0715002,19.8036405 19.3752279,19.6198246 C18.1875137,19.5732412 17.0297209,20.6767658 17.0297209,21.9785849 C17.0297209,23.2804041 18.4655693,24.3770042 19.3752279,24.3373453 C25.272391,24.0786182 28.55873,24.0786182 33.976964,24.3373453 C34.895887,24.381096 36.322471,23.2804041 36.322471,21.9785849 Z" id="Fill-7" fill="#FFFFFF"></path>
                    <path d="M6.24132732,17.3441591 C8.7169421,17.3441591 10.7268357,19.4205859 10.7268357,21.9782702 C10.7268357,24.5362693 8.7169421,26.612696 6.24132732,26.612696 C3.76571253,26.612696 1.75581892,24.5362693 1.75581892,21.9782702 C1.75581892,19.4205859 3.76571253,17.3441591 6.24132732,17.3441591 Z M6.24132732,20.1180789 C7.23511622,20.1180789 8.04192808,20.9515453 8.04192808,21.9782702 C8.04192808,23.0049951 7.23511622,23.8387762 6.24132732,23.8387762 C5.24756971,23.8387762 4.44075785,23.0049951 4.44075785,21.9782702 C4.44075785,20.9515453 5.24756971,20.1180789 6.24132732,20.1180789 Z" id="Fill-8" fill="#FFFFFF"></path>
                    <path d="M80.4398502,13.3873969 C69.0954081,13.3873969 63.423187,30.5694582 52.0787449,30.5694582 C46.4068369,30.5694582 42.6253562,26.2740216 42.6253562,21.9782702 C42.6253562,17.6828336 46.4068369,13.3873969 52.0787449,13.3873969 C63.423187,13.3873969 69.0954081,30.5694582 80.4398502,30.5694582 C86.1117582,30.5694582 89.8932389,26.2740216 89.8932389,21.9782702 C89.8932389,17.6828336 86.1117582,13.3873969 80.4398502,13.3873969 Z" id="Stroke-9" stroke="#FFFFFF" stroke-width="4.6117454" stroke-linecap="square" stroke-linejoin="round"></path>
                    <path d="M150.389418,15.4795613 C153.922702,15.4795613 156.791207,18.3916577 156.791207,21.9782702 C156.791207,25.5651974 153.922702,28.4772938 150.389418,28.4772938 C153.922702,28.4772938 156.791207,25.5651974 156.791207,21.9782702 C156.791207,18.3916577 153.922702,15.4795613 150.389418,15.4795613 Z" id="Stroke-10" stroke="#FFFFFF" stroke-width="4.6117454" stroke-linecap="round" stroke-linejoin="round"></path>
                </g>
            </g>
        </g>
    </g>
</svg>
