
<svg width="80px" height="54px" viewBox="0 0 80 54" version="1.1" xmlns="http://www.w3.org/2000/svg" xmlns:xlink="http://www.w3.org/1999/xlink">
    <g id="Symbols" stroke="none" stroke-width="1" fill="none" fill-rule="evenodd">
        <g id="logo" transform="translate(-1.000000, 0.000000)">
            <g transform="translate(1.000000, 0.000000)">
                <path d="M4.86492718,38.6253455 C4.81530347,36.5362499 4.81530347,34.5323581 4.81530347,32.7843763 C4.81530347,30.354167 4.81530347,28.3930973 4.86492718,27.2845366 C4.96415897,24.001661 8.88397889,22.083083 12.406856,22.083083 C13.3992208,22.083083 13.9450191,21.4436619 13.9450191,20.8467325 C13.9450191,20.2498031 13.4488445,19.6955228 12.406856,19.6955228 C11.8114496,19.6955228 7.34583141,19.9514171 5.16263819,22.5520652 C5.11301448,22.6373633 5.01378269,22.7226615 4.96415897,22.7226615 C4.96415897,22.7226615 4.9145509,22.6373633 4.9145509,22.5094162 C4.9145509,21.9126442 4.96415897,21.6141008 4.96415897,20.9746797 C4.96415897,20.164505 4.21989709,19.7808209 3.47561956,19.7808209 C2.73135769,19.7808209 1.93747209,20.2071541 1.93747209,20.8893816 L1.93747209,20.9320306 C1.98708016,22.8079596 2.03670388,25.0675726 2.03670388,27.4551329 C2.03670388,31.1216926 1.93747209,35.1292875 1.83822465,38.5827122 L1.83822465,38.6253455 C1.83822465,39.3927609 2.6321259,39.8191099 3.42601149,39.8191099 C4.17027337,39.8191099 4.86492718,39.4353943 4.86492718,38.6679788 L4.86492718,38.6253455 Z" id="Fill-1" fill="#001D32"></path>
                <path d="M27.1470252,38.4588253 C27.0972606,36.0014685 27.0476526,32.7543174 27.0476526,29.6388904 C27.0476526,25.8651572 27.0972606,22.2668989 27.1470252,20.424019 L27.1470252,20.3801109 C27.1470252,19.5902378 26.3531396,19.19538 25.6088621,19.19538 C24.8149765,19.19538 24.0210909,19.6341459 24.0210909,20.424019 L24.0210909,20.4679271 C24.0706989,21.6965661 24.0706989,23.4955379 24.0706989,25.5579581 C24.0706989,29.6388904 24.0210909,34.7728295 24.0210909,38.5027019 C24.0210909,39.3803124 24.8149765,39.8191099 25.559254,39.8191099 C26.3531396,39.8191099 27.1470252,39.3803124 27.1470252,38.5027019 L27.1470252,38.4588253 Z" id="Fill-2" fill="#001D32"></path>
                <path d="M41.782814,38.4588253 C41.7332059,36.0014685 41.6835979,32.7543174 41.6835979,29.6388904 C41.6835979,25.8651572 41.7332059,22.2668989 41.782814,20.424019 L41.782814,20.3801109 C41.782814,19.5902378 40.9889284,19.19538 40.2446509,19.19538 C39.4507653,19.19538 38.6568797,19.6341459 38.6568797,20.424019 L38.6568797,20.4679271 C38.7064877,21.6965661 38.7064877,23.4955379 38.7064877,25.5579581 C38.7064877,29.6388904 38.6568797,34.7728295 38.6568797,38.5027019 C38.6568797,39.3803124 39.4507653,39.8191099 40.1950428,39.8191099 C40.9889284,39.8191099 41.782814,39.3803124 41.782814,38.5027019 L41.782814,38.4588253 Z" id="Fill-3" fill="#001D32"></path>
                <path d="M56.2592936,30.5379829 C56.2592936,26.8456133 56.6708684,2.96528969 56.6708684,1.51821196 C56.6708684,0.470241249 55.812821,0 55.0685435,0 C54.373874,0 53.6295965,0.661296428 53.6295965,1.609333 C53.6295965,1.609333 53.4807723,28.9911284 53.4807723,32.1846141 C53.4807723,34.3801749 53.4807723,39.8191099 59.831857,39.8191099 C61.8164928,39.8191099 63.0073994,39.5696207 63.0073994,38.2722554 C63.0073994,37.6235805 62.5607703,36.9749057 61.8164928,36.9749057 L61.6180605,36.9749057 C61.1218233,37.0248098 60.6753507,37.0746982 60.2287216,37.0746982 C56.3585097,37.0746982 56.2592936,34.4300633 56.2592936,30.5379829 Z" id="Fill-4" fill="#001D32"></path>
                <path d="M69.1699109,30.5379829 C69.1699109,28.4270907 69.3038684,19.7488734 69.4185773,12.4318063 C69.504648,6.94990756 69.5797644,2.23207216 69.5797644,1.61232316 C69.5797644,0.564352449 68.7234383,0 67.9791608,0 C67.2844913,0 66.5402138,0.577414706 66.5402138,1.52545128 L66.5402138,11.6265103 C66.5402138,13.3729183 66.3913896,28.9911284 66.3913896,32.1846141 C66.3913896,34.3801749 66.3913896,39.8191099 72.7424744,39.8191099 C74.7271101,39.8191099 75.9180168,39.5696207 75.9180168,38.2722554 C75.9180168,37.6235805 75.4713876,36.9749057 74.7271101,36.9749057 L74.5286778,36.9749057 C74.0324407,37.0248098 73.585968,37.0746982 73.1393389,37.0746982 C69.2691271,37.0746982 69.1699109,34.4300633 69.1699109,30.5379829 Z" id="Fill-5" fill="#001D32"></path>
                <path d="M1.85224029,51.8890225 L1.85224029,45.0357335 L0.879814136,45.0357335 L0.879814136,51.8890225 L1.85224029,51.8890225 Z M9.42430987,51.8890225 L9.42430987,45.7627378 L11.8553752,45.7627378 L11.8553752,45.0357335 L6.02081835,45.0357335 L6.02081835,45.7627378 L8.45188372,45.7627378 L8.45188372,51.8890225 L9.42430987,51.8890225 Z" id="IT" fill="#001D32" fill-rule="nonzero"></path>
                <path d="M23.4492315,52.0603547 C24.1746923,52.0603547 24.7573762,51.8797613 25.1972833,51.5185745 C25.6371903,51.1573876 25.8571439,50.6788922 25.8571439,50.0830882 C25.8571439,49.6632471 25.7398353,49.3036038 25.5052182,49.0041583 C25.2706011,48.7047128 24.8569341,48.3867448 24.2642172,48.0502545 L24.2642172,48.0502545 L23.7733735,47.7724185 C23.3473583,47.5285402 23.0540869,47.3186196 22.8935594,47.1426568 C22.7330319,46.966694 22.6527682,46.7644911 22.6527682,46.5360481 C22.6527682,46.2643862 22.762359,46.0390303 22.9815408,45.8599804 C23.2007226,45.6809305 23.4785586,45.5914055 23.8150489,45.5914055 C24.1700617,45.5914055 24.7087549,45.7334106 25.4311286,46.0174208 L25.4311286,46.0174208 L25.4311286,45.1283455 C24.8445858,44.9523827 24.2873702,44.8644012 23.7594817,44.8644012 C23.1667648,44.8644012 22.6790082,45.0349617 22.2962119,45.3760826 C21.9134156,45.7172035 21.7220174,46.1517082 21.7220174,46.6795967 C21.7220174,47.0716542 21.8416413,47.4150905 22.080889,47.7099054 C22.3201367,48.0047203 22.7314884,48.3188294 23.3149441,48.6522326 L23.3149441,48.6522326 L23.7872653,48.9254381 C24.1978453,49.1569681 24.4795401,49.3668887 24.63235,49.5551998 C24.7851598,49.7435109 24.8615647,49.9719538 24.8615647,50.2405287 C24.8615647,50.5677578 24.7450279,50.831702 24.5119543,51.0323614 C24.2788808,51.2330208 23.9709458,51.3333504 23.5881495,51.3333504 C23.0911317,51.3333504 22.4567394,51.1543005 21.6849726,50.7962008 L21.6849726,50.7962008 L21.6849726,51.7593657 C22.4011722,51.9600251 22.9892585,52.0603547 23.4492315,52.0603547 Z M34.4479456,51.8890225 L34.4479456,51.1620182 L31.3917491,51.1620182 L31.3917491,48.6800162 L33.7857697,48.6800162 L33.7857697,47.9622731 L31.3917491,47.9622731 L31.3917491,45.7627378 L34.2488298,45.7627378 L34.2488298,45.0357335 L30.419323,45.0357335 L30.419323,51.8890225 L34.4479456,51.8890225 Z M39.7278678,51.8890225 L39.7278678,48.9902665 L40.6354656,48.9902665 L42.5849485,51.8890225 L43.7796435,51.8890225 L41.4921267,48.6800162 C42.4151598,48.2972199 42.8766763,47.6489358 42.8766763,46.7351639 C42.8766763,46.1825789 42.7014853,45.7611942 42.3511031,45.4710099 C42.000721,45.1808256 41.4967573,45.0357335 40.839212,45.0357335 L40.839212,45.0357335 L38.7647029,45.0357335 L38.7647029,51.8890225 L39.7278678,51.8890225 Z M40.0427487,48.2632622 L39.7278678,48.2632622 L39.7278678,45.7627378 L40.3391071,45.7627378 C41.3640134,45.7627378 41.8764666,46.116207 41.8764666,46.8231453 C41.8764666,47.7832232 41.2652273,48.2632622 40.0427487,48.2632622 L40.0427487,48.2632622 Z M50.7543655,51.8890225 L53.2409981,45.0357335 L52.3889676,45.0357335 L50.3422421,50.6480215 L48.221427,45.0357335 L47.2490008,45.0357335 L49.8375066,51.8890225 L50.7543655,51.8890225 Z M58.3403269,51.8890225 L58.3403269,45.0357335 L57.3679008,45.0357335 L57.3679008,51.8890225 L58.3403269,51.8890225 Z M64.6528731,52.0603547 C65.3783339,52.0603547 65.9610178,51.8797613 66.4009249,51.5185745 C66.840832,51.1573876 67.0607855,50.6788922 67.0607855,50.0830882 C67.0607855,49.6632471 66.9434769,49.3036038 66.7088598,49.0041583 C66.4742427,48.7047128 66.0605757,48.3867448 65.4678588,48.0502545 L65.4678588,48.0502545 L64.9770152,47.7724185 C64.5509999,47.5285402 64.2577285,47.3186196 64.097201,47.1426568 C63.9366735,46.966694 63.8564098,46.7644911 63.8564098,46.5360481 C63.8564098,46.2643862 63.9660007,46.0390303 64.1851824,45.8599804 C64.4043642,45.6809305 64.6822003,45.5914055 65.0186906,45.5914055 C65.3737033,45.5914055 65.9123965,45.7334106 66.6347702,46.0174208 L66.6347702,46.0174208 L66.6347702,45.1283455 C66.0482275,44.9523827 65.4910118,44.8644012 64.9631234,44.8644012 C64.3704065,44.8644012 63.8826499,45.0349617 63.4998535,45.3760826 C63.1170572,45.7172035 62.9256591,46.1517082 62.9256591,46.6795967 C62.9256591,47.0716542 63.0452829,47.4150905 63.2845306,47.7099054 C63.5237783,48.0047203 63.93513,48.3188294 64.5185857,48.6522326 L64.5185857,48.6522326 L64.990907,48.9254381 C65.4014869,49.1569681 65.6831818,49.3668887 65.8359916,49.5551998 C65.9888014,49.7435109 66.0652063,49.9719538 66.0652063,50.2405287 C66.0652063,50.5677578 65.9486696,50.831702 65.715596,51.0323614 C65.4825224,51.2330208 65.1745875,51.3333504 64.7917911,51.3333504 C64.2947733,51.3333504 63.660381,51.1543005 62.8886142,50.7962008 L62.8886142,50.7962008 L62.8886142,51.7593657 C63.6048138,51.9600251 64.1929001,52.0603547 64.6528731,52.0603547 Z M75.6515872,51.8890225 L75.6515872,51.1620182 L72.5953908,51.1620182 L72.5953908,48.6800162 L74.9894113,48.6800162 L74.9894113,47.9622731 L72.5953908,47.9622731 L72.5953908,45.7627378 L75.4524714,45.7627378 L75.4524714,45.0357335 L71.6229646,45.0357335 L71.6229646,51.8890225 L75.6515872,51.8890225 Z" id="SERVISE" fill="#001D32" fill-rule="nonzero"></path>
                <path d="M73.5294743,10.9891351 C73.5294743,10.3382255 73.0676654,9.75121084 72.1424828,9.79669268 C67.5436426,10.0226855 53.3644985,9.86452199 49.2554793,9.79669268 C48.6471936,9.78662058 48.098062,10.3382255 48.098062,10.9892925 C48.098062,11.640202 48.6468806,12.1716628 49.2708156,12.1686726 C53.6940713,12.1472694 67.8957504,12.029237 72.2606345,12.1686726 C72.9490443,12.190548 73.5294743,11.640202 73.5294743,10.9891351 Z" id="Fill-6" fill="#001D32"></path>
                <path d="M18.1612355,10.9892925 C18.1612355,10.3383829 17.5654692,9.78898123 16.988482,9.80991231 C14.375373,9.90465302 12.0357501,9.90182024 9.68761396,9.80991231 C9.09375686,9.78662058 8.51486043,10.3383829 8.51486043,10.9892925 C8.51486043,11.640202 9.23278464,12.1885021 9.68761396,12.1686726 C12.6361955,12.0393091 14.279365,12.0393091 16.988482,12.1686726 C17.4479435,12.190548 18.1612355,11.640202 18.1612355,10.9892925 Z" id="Fill-7" fill="#001D32"></path>
                <path d="M3.12066366,8.67207957 C4.35847105,8.67207957 5.36341786,9.71029293 5.36341786,10.9891351 C5.36341786,12.2681346 4.35847105,13.306348 3.12066366,13.306348 C1.88285626,13.306348 0.87790946,12.2681346 0.87790946,10.9891351 C0.87790946,9.71029293 1.88285626,8.67207957 3.12066366,8.67207957 Z M3.12066366,10.0590395 C3.61755811,10.0590395 4.02096404,10.4757727 4.02096404,10.9891351 C4.02096404,11.5024975 3.61755811,11.9193881 3.12066366,11.9193881 C2.62378486,11.9193881 2.22037892,11.5024975 2.22037892,10.9891351 C2.22037892,10.4757727 2.62378486,10.0590395 3.12066366,10.0590395 Z" id="Fill-8" fill="#004370"></path>
                <path d="M40.2199251,6.69369847 C34.547704,6.69369847 31.7115935,15.2847291 26.0393725,15.2847291 C23.2034184,15.2847291 21.3126781,13.1370108 21.3126781,10.9891351 C21.3126781,8.84141678 23.2034184,6.69369847 26.0393725,6.69369847 C31.7115935,6.69369847 34.547704,15.2847291 40.2199251,15.2847291 C43.0558791,15.2847291 44.9466195,13.1370108 44.9466195,10.9891351 C44.9466195,8.84141678 43.0558791,6.69369847 40.2199251,6.69369847 Z" id="Stroke-9" stroke="#0061A1" stroke-width="2.3058727" stroke-linecap="square" stroke-linejoin="round"></path>
                <path d="M75.1947092,7.73978066 C76.9613511,7.73978066 78.3956034,9.19582886 78.3956034,10.9891351 C78.3956034,12.7825987 76.9613511,14.2386469 75.1947092,14.2386469 C76.9613511,14.2386469 78.3956034,12.7825987 78.3956034,10.9891351 C78.3956034,9.19582886 76.9613511,7.73978066 75.1947092,7.73978066 Z" id="Stroke-10" stroke="#0B81D0" stroke-width="2.3058727" stroke-linecap="round" stroke-linejoin="round"></path>
            </g>
        </g>
    </g>
</svg>
