<svg width="78px" height="50px" viewBox="0 0 78 50" version="1.1" xmlns="http://www.w3.org/2000/svg" xmlns:xlink="http://www.w3.org/1999/xlink">
    <g id="Symbols" stroke="none" stroke-width="1" fill="none" fill-rule="evenodd">
        <g id="Footer" transform="translate(-416.000000, -27.000000)">
            <g transform="translate(-0.003191, 0.058647)" id="logo-whtie">
                <g transform="translate(416.003191, 27.816353)">
                    <path d="M4.73953637,37.3046674 C4.69119168,35.2870022 4.69119168,33.3516274 4.69119168,31.6634127 C4.69119168,29.3162971 4.69119168,27.4222803 4.73953637,26.3516236 C4.83621052,23.180996 8.65499924,21.3280181 12.0870761,21.3280181 C13.0538633,21.3280181 13.585594,20.7104601 13.585594,20.1339409 C13.585594,19.5574217 13.102208,19.0220933 12.0870761,19.0220933 C11.507016,19.0220933 7.15649667,19.2692381 5.02957405,21.7809649 C4.98122935,21.8633464 4.88455521,21.945728 4.83621052,21.945728 C4.83621052,21.945728 4.78788107,21.8633464 4.78788107,21.7397741 C4.78788107,21.1634069 4.83621052,20.8750713 4.83621052,20.2575133 C4.83621052,19.4750401 4.11113158,19.1044749 3.38603739,19.1044749 C2.66095845,19.1044749 1.88753482,19.5162309 1.88753482,20.1751317 L1.88753482,20.2163225 C1.93586426,22.0281096 1.98420896,24.210462 1.98420896,26.5163868 C1.98420896,30.0575795 1.88753482,33.9281466 1.79084543,37.2634918 L1.79084543,37.3046674 C1.79084543,38.0458434 2.56428431,38.4576145 3.33770794,38.4576145 C4.06278688,38.4576145 4.73953637,38.087019 4.73953637,37.345843 L4.73953637,37.3046674 Z" id="Fill-1" fill="#FFFFFF"></path>
                    <path d="M26.4473256,37.1438409 C26.3988437,34.7705061 26.3505143,31.6343815 26.3505143,28.6254773 C26.3505143,24.9807755 26.3988437,21.5055489 26.4473256,19.7256808 L26.4473256,19.683274 C26.4473256,18.9204083 25.673902,18.5390514 24.9488078,18.5390514 C24.1753842,18.5390514 23.4019605,18.962815 23.4019605,19.7256808 L23.4019605,19.7680875 C23.45029,20.9547169 23.45029,22.6921783 23.45029,24.6840802 C23.45029,28.6254773 23.4019605,33.5838767 23.4019605,37.1862172 C23.4019605,38.0338205 24.1753842,38.4576145 24.9004784,38.4576145 C25.673902,38.4576145 26.4473256,38.0338205 26.4473256,37.1862172 L26.4473256,37.1438409 Z" id="Fill-2" fill="#FFFFFF"></path>
                    <path d="M40.7058851,37.1438409 C40.6575556,34.7705061 40.6092262,31.6343815 40.6092262,28.6254773 C40.6092262,24.9807755 40.6575556,21.5055489 40.7058851,19.7256808 L40.7058851,19.683274 C40.7058851,18.9204083 39.9324614,18.5390514 39.2073672,18.5390514 C38.4339436,18.5390514 37.66052,18.962815 37.66052,19.7256808 L37.66052,19.7680875 C37.7088494,20.9547169 37.7088494,22.6921783 37.7088494,24.6840802 C37.7088494,28.6254773 37.66052,33.5838767 37.66052,37.1862172 C37.66052,38.0338205 38.4339436,38.4576145 39.1590378,38.4576145 C39.9324614,38.4576145 40.7058851,38.0338205 40.7058851,37.1862172 L40.7058851,37.1438409 Z" id="Fill-3" fill="#FFFFFF"></path>
                    <path d="M54.8092414,29.4938279 C54.8092414,25.9277079 55.2102081,2.86390049 55.2102081,1.46630124 C55.2102081,0.454162756 54.3742764,3.55271368e-15 53.6491822,3.55271368e-15 C52.9724174,3.55271368e-15 52.2473233,0.638685375 52.2473233,1.55430668 C52.2473233,1.55430668 52.1023349,27.9998635 52.1023349,31.0841576 C52.1023349,33.2046477 52.1023349,38.4576145 58.289724,38.4576145 C60.2232068,38.4576145 61.3834185,38.216656 61.3834185,36.9636501 C61.3834185,36.3371548 60.948301,35.7106594 60.2232068,35.7106594 L60.029889,35.7106594 C59.5464421,35.7588572 59.1114771,35.8070398 58.6763596,35.8070398 C54.9059003,35.8070398 54.8092414,33.2528303 54.8092414,29.4938279 Z" id="Fill-4" fill="#FFFFFF"></path>
                    <path d="M67.3870947,29.4938279 C67.3870947,27.4551114 67.5175995,19.0736198 67.6293518,12.0067379 C67.7132041,6.71227626 67.7863844,2.15575314 67.7863844,1.55719459 C67.7863844,0.545056106 66.9521297,3.55271368e-15 66.2270355,3.55271368e-15 C65.5502708,3.55271368e-15 64.8251766,0.557671738 64.8251766,1.47329304 L64.8251766,11.2289766 C64.8251766,12.9156714 64.6801882,27.9998635 64.6801882,31.0841576 C64.6801882,33.2046477 64.6801882,38.4576145 70.8675773,38.4576145 C72.8010602,38.4576145 73.9612718,38.216656 73.9612718,36.9636501 C73.9612718,36.3371548 73.5261543,35.7106594 72.8010602,35.7106594 L72.6077424,35.7106594 C72.1242954,35.7588572 71.6893304,35.8070398 71.2542129,35.8070398 C67.4837536,35.8070398 67.3870947,33.2528303 67.3870947,29.4938279 Z" id="Fill-5" fill="#FFFFFF"></path>
                    <text id="IT" font-family="LucidaGrande, Lucida Grande" font-size="9.39826875" font-weight="normal" letter-spacing="3.17661497" fill="#FFFFFF">
                        <tspan x="0" y="46.4168252">IT</tspan>
                    </text>
                    <text id="SERVISE" font-family="LucidaGrande, Lucida Grande" font-size="9.39826875" font-weight="normal" letter-spacing="3.17661497" fill="#FFFFFF">
                        <tspan x="20.6749295" y="46.4168252">SERVIS</tspan>
                        <tspan x="69.7466689" y="46.4168252" letter-spacing="-0.000939826843">E</tspan>
                    </text>
                    <path d="M71.6342927,10.6133945 C71.6342927,9.98474084 71.1843867,9.41779737 70.2830501,9.46172409 C65.8027426,9.67998972 51.989058,9.52723418 47.9859465,9.46172409 C47.3933391,9.45199637 46.8583611,9.98474084 46.8583611,10.6135465 C46.8583611,11.2422002 47.3930342,11.7554892 48.0008875,11.7526013 C52.3101363,11.7319299 66.1457749,11.6179332 70.3981566,11.7526013 C71.0688229,11.7737287 71.6342927,11.2422002 71.6342927,10.6133945 Z" id="Fill-6" fill="#FFFFFF"></path>
                    <path d="M17.6931397,10.6135465 C17.6931397,9.98489283 17.112729,9.45427631 16.5506133,9.47449172 C14.0048557,9.56599305 11.7255353,9.56325713 9.43792106,9.47449172 C8.8593703,9.45199637 8.2953946,9.98489283 8.2953946,10.6135465 C8.2953946,11.2422002 8.99481472,11.7717527 9.43792106,11.7526013 C12.3105046,11.6276609 13.9113223,11.6276609 16.5506133,11.7526013 C16.9982324,11.7737287 17.6931397,11.2422002 17.6931397,10.6135465 Z" id="Fill-7" fill="#FFFFFF"></path>
                    <path d="M3.04023028,8.37556376 C4.24613387,8.37556376 5.22517872,9.37827852 5.22517872,10.6133945 C5.22517872,11.8486625 4.24613387,12.8513772 3.04023028,12.8513772 C1.83432668,12.8513772 0.855281829,11.8486625 0.855281829,10.6133945 C0.855281829,9.37827852 1.83432668,8.37556376 3.04023028,8.37556376 Z M3.04023028,9.7151007 C3.52431755,9.7151007 3.91732591,10.117585 3.91732591,10.6133945 C3.91732591,11.109204 3.52431755,11.5118403 3.04023028,11.5118403 C2.55615825,11.5118403 2.16314988,11.109204 2.16314988,10.6133945 C2.16314988,10.117585 2.55615825,9.7151007 3.04023028,9.7151007 Z" id="Fill-8" fill="#FFFFFF"></path>
                    <path d="M39.1832787,6.46482748 C33.6572561,6.46482748 30.8942447,14.7621135 25.368222,14.7621135 C22.6053632,14.7621135 20.7633556,12.68783 20.7633556,10.6133945 C20.7633556,8.53911099 22.6053632,6.46482748 25.368222,6.46482748 C30.8942447,6.46482748 33.6572561,14.7621135 39.1832787,14.7621135 C41.9461376,14.7621135 43.7881452,12.68783 43.7881452,10.6133945 C43.7881452,8.53911099 41.9461376,6.46482748 39.1832787,6.46482748 Z" id="Stroke-9" stroke="#FFFFFF" stroke-width="2.28515625" stroke-linecap="square" stroke-linejoin="round"></path>
                    <path d="M73.2566071,7.47514202 C74.9777148,7.47514202 76.375,8.88140501 76.375,10.6133945 C76.375,12.345536 74.9777148,13.751799 73.2566071,13.751799 C74.9777148,13.751799 76.375,12.345536 76.375,10.6133945 C76.375,8.88140501 74.9777148,7.47514202 73.2566071,7.47514202 Z" id="Stroke-10" stroke="#FFFFFF" stroke-width="2.28515625" stroke-linecap="round" stroke-linejoin="round"></path>
                </g>
            </g>
        </g>
    </g>
</svg>
