<svg width="100%" height="100%" viewBox="0 0 1000 1000" version="1.1" xmlns="http://www.w3.org/2000/svg" xmlns:xlink="http://www.w3.org/1999/xlink">
  <g id="Desktop/index" stroke="none" stroke-width="1" fill="none" fill-rule="evenodd">
    <g id="Artboard" transform="translate(-2068.000000, -167.000000)" fill="#FAF9F7">
      <path d="M3068,167 L3068,1167 L2068,1167 L2068,167 L3068,167 Z M2568,167 C2291.85763,167 2068,390.857625 2068,667 C2068,703.981106 2072.01482,740.024502 2079.63236,774.718101 L2079.63236,774.718101 L2079.64612,774.711536 C2085.47964,774.240233 2091.37843,774 2097.33333,774 L2097.33333,774 L2099.64636,774.012091 C2175.11144,774.801409 2241.32904,814.17143 2279.51186,873.334874 L2279.51186,873.334874 L2280.666,875.144 L2281.82147,873.334874 C2320.39392,813.567722 2387.57619,774 2464,774 C2583.6617,774 2680.66667,871.004971 2680.66667,990.666667 C2680.66667,1063.04939 2645.17279,1127.14206 2590.63933,1166.49659 C2856.2745,1154.65941 3068,935.555276 3068,667 C3068,604.270626 3056.44825,544.239307 3035.35599,488.917275 L3035.35599,488.917275 L3035.34789,488.926661 C2998.47354,517.991106 2951.92868,535.333333 2901.33333,535.333333 C2781.67164,535.333333 2684.66667,438.328362 2684.66667,318.666667 C2684.66667,271.491647 2699.74342,227.837991 2725.34786,192.260926 C2675.87302,175.871505 2622.97253,167 2568,167 Z M2464,840.666667 C2381.15729,840.666667 2314,907.823954 2314,990.666667 C2314,1073.50938 2381.15729,1140.66667 2464,1140.66667 C2546.84271,1140.66667 2614,1073.50938 2614,990.666667 C2614,907.823954 2546.84271,840.666667 2464,840.666667 Z M2098.99774,840.67571 L2101.43868,847.153122 C2130.75016,923.013222 2178.03011,989.933074 2238.05952,1042.69366 L2238.05952,1042.69366 L2238.06757,1042.68687 C2244.06013,1026.48053 2247.33333,1008.95585 2247.33333,990.666667 C2247.33333,908.379468 2181.07369,841.568038 2098.99774,840.67571 L2098.99774,840.67571 Z M2901.33333,168.67 C2856.92258,168.67 2817.01962,187.970153 2789.55358,218.641653 L2789.55358,218.641653 L2788.95471,219.310896 C2770.13717,240.578902 2757.26387,267.228218 2752.93715,296.656988 C2752.93083,296.699983 2752.92453,296.742983 2752.91776,296.785962 C2752.69386,298.317907 2752.49312,299.857369 2752.31628,301.403991 C2752.3094,301.464027 2752.30256,301.524073 2752.29538,301.584045 C2751.93582,304.75581 2751.67518,307.957566 2751.51675,311.186737 C2751.51442,311.234067 2751.51212,311.281404 2751.50971,311.328107 C2751.47396,312.070254 2751.4436,312.813816 2751.41876,313.55938 C2751.41561,313.653374 2751.41255,313.747389 2751.40949,313.840818 C2751.38588,314.587844 2751.36773,315.336247 2751.35514,316.086288 C2751.35423,316.13997 2751.35335,316.193659 2751.35245,316.247103 C2751.33972,317.0521 2751.33333,317.858637 2751.33333,318.666667 L2751.33333,318.666667 C2751.33333,401.512712 2818.49062,468.67 2901.33333,468.67 L2901.33333,468.67 L2903.00497,468.657544 C2902.7528,468.660298 2902.50048,468.662429 2902.24802,468.663936 L2901.33333,468.67 L2902.40724,468.666113 C2903.12253,468.660852 2903.83642,468.650094 2904.5485,468.632892 L2904.5485,468.632892 L2905.44884,468.614633 C2905.98382,468.600222 2906.51811,468.58301 2907.05111,468.559699 C2907.34297,468.548761 2907.63462,468.536989 2907.92665,468.527693 C2908.45738,468.504738 2908.98741,468.479024 2909.51592,468.447276 L2909.51592,468.447276 L2910.47983,468.395711 C2910.93439,468.36837 2911.38841,468.339004 2911.84065,468.304373 L2911.84065,468.304373 L2912.93284,468.228156 C2913.40643,468.191936 2913.87941,468.153516 2914.35088,468.109651 C2914.63446,468.085273 2914.91782,468.060106 2915.20183,468.037404 C2915.72653,467.989304 2916.25044,467.938501 2916.7724,467.881795 C2917.08946,467.849376 2917.40624,467.81597 2917.72344,467.784834 C2918.19536,467.733549 2918.66663,467.680075 2919.13673,467.621148 C2919.50814,467.577227 2919.87913,467.531948 2920.25022,467.488587 C2920.65672,467.437434 2921.06272,467.384655 2921.46775,467.326982 L2921.46775,467.326982 L2922.49948,467.188254 C2922.97751,467.120739 2923.45481,467.050971 2923.9311,466.975671 C2924.23131,466.93031 2924.53123,466.884059 2924.83154,466.840145 C2925.31059,466.764777 2925.78889,466.687142 2926.26561,466.604051 C2926.59942,466.548207 2926.93285,466.491261 2927.26679,466.436394 C2927.71877,466.357618 2928.17007,466.276819 2928.61991,466.190811 C2928.94431,466.13119 2929.26836,466.070526 2929.59274,466.012019 C2930.0648,465.922024 2930.53609,465.829815 2931.00563,465.732261 L2931.00563,465.732261 L2932.00992,465.530485 C2932.45601,465.437782 2932.90136,465.343098 2933.3445,465.243433 C2933.59786,465.188358 2933.85098,465.132643 2934.10535,465.079291 C2934.60846,464.967168 2935.11063,464.852518 2935.61041,464.732353 C2936.04224,464.63141 2936.47335,464.528603 2936.90434,464.427123 C2937.24382,464.344564 2937.58284,464.260851 2937.92078,464.172813 C2938.19208,464.10481 2938.46309,464.036069 2938.73497,463.969627 C2939.35121,463.811465 2939.96592,463.649487 2940.57767,463.480765 C2940.87119,463.401412 2941.16436,463.321191 2941.45859,463.243044 C2941.78637,463.152268 2942.1137,463.060408 2942.43924,462.964514 L2942.43924,462.964514 L2943.68989,462.60634 C2944.03274,462.505611 2944.37508,462.40369 2944.71563,462.297633 L2944.71563,462.297633 L2945.92726,461.929868 C2946.24764,461.830249 2946.56755,461.729586 2946.8856,461.624995 C2947.32144,461.486238 2947.75642,461.345544 2948.19236,461.20565 C2948.37671,461.145081 2948.5609,461.084164 2948.74493,461.0229 L2948.74493,461.0229 L2949.16643,460.878552 L2949.16643,460.878552 L2950.37408,460.470083 C2950.83488,460.310745 2951.29465,460.149225 2951.75191,459.982732 L2951.75191,459.982732 L2952.59336,459.682977 C2952.98277,459.541388 2953.37143,459.398231 2953.75786,459.250732 C2954.10974,459.119459 2954.46099,458.986902 2954.81301,458.855868 C2955.27851,458.67818 2955.7429,458.498239 2956.20503,458.313173 C2956.45206,458.216028 2956.69878,458.118247 2956.94584,458.022899 C2957.42951,457.829705 2957.91194,457.634066 2958.39199,457.433125 C2958.6272,457.336307 2958.86211,457.238908 2959.09785,457.143789 C2959.58504,456.940321 2960.07092,456.734357 2960.55398,456.523231 C2960.76607,456.432001 2960.9779,456.340295 2961.19157,456.250542 C2961.67296,456.040806 2962.15304,455.828617 2962.62982,455.611544 C2962.88219,455.49841 2963.13419,455.384599 2963.38737,455.272742 C2963.80031,455.084855 2964.21225,454.89515 2964.62214,454.700792 C2964.90646,454.568289 2965.1903,454.43492 2965.47506,454.303354 C2965.93681,454.084604 2966.39726,453.863565 2966.85511,453.63755 C2967.08943,453.523588 2967.32341,453.409034 2967.55845,453.296528 C2967.9565,453.100351 2968.35355,452.902459 2968.74788,452.700394 L2968.74788,452.700394 L2969.65183,452.244325 C2970.08106,452.024351 2970.50908,451.80237 2970.93436,451.575867 L2970.93436,451.575867 L2971.71264,451.167867 C2972.1301,450.945663 2972.54638,450.721543 2972.96009,450.492942 C2973.23387,450.343875 2973.50712,450.19398 2973.78121,450.045849 C2974.16692,449.832693 2974.55159,449.617888 2974.93393,449.398835 L2974.93393,449.398835 L2975.74544,448.940973 C2976.18186,448.69115 2976.6169,448.439196 2977.04925,448.182555 C2977.27797,448.048558 2977.5063,447.913972 2977.73539,447.78145 C2978.12181,447.55229 2978.50711,447.321445 2978.89029,447.086196 L2978.89029,447.086196 L2979.78675,446.542668 C2980.16088,446.312638 2980.53393,446.081012 2980.90382,445.84576 C2981.1819,445.671408 2981.45937,445.496168 2981.73772,445.322426 C2982.10812,445.086792 2982.47741,444.849579 2982.84399,444.608496 L2982.84399,444.608496 L2983.69762,444.054094 C2984.04327,443.826574 2984.38793,443.597664 2984.72988,443.365178 C2985.07353,443.134892 2985.41618,442.903223 2985.75942,442.672419 C2986.05497,442.470809 2986.34976,442.26817 2986.6421,442.062339 C2986.92954,441.863239 2987.21626,441.663161 2987.50396,441.464233 C2987.84291,441.225937 2988.18083,440.986274 2988.51607,440.74309 C2988.91453,440.458012 2989.31154,440.171032 2989.70709,439.882162 L2989.70709,439.882162 L2989.92139,439.728701 C2990.07662,439.614914 2990.23162,439.500835 2990.38485,439.384278 L2990.38485,439.384278 L2991.10481,438.852297 C2991.49286,438.561968 2991.87946,438.269804 2992.26263,437.973991 C2992.62185,437.699793 2992.9798,437.42401 2993.33646,437.146652 L2993.33646,437.146652 L2993.60098,436.943811 C2993.72503,436.846893 2993.84894,436.749785 2993.97095,436.650516 C2994.26225,436.421474 2994.55269,436.191376 2994.84398,435.962183 C2995.18939,435.686439 2995.53356,435.409202 2995.8751,435.128269 L2995.8751,435.128269 L2996.65355,434.494569 C2996.96347,434.239219 2997.27235,433.98265 2997.57851,433.722927 C2997.945,433.416027 2998.31001,433.107408 2998.67516,432.799011 C2998.90628,432.601696 2999.1368,432.403692 2999.36517,432.202992 C2999.68929,431.922885 3000.01219,431.641414 3000.33514,431.36081 C3000.56711,431.156861 3000.79844,430.952207 3001.02768,430.744809 C3001.38762,430.424411 3001.74601,430.102306 3002.10445,429.780365 C3002.31038,429.593489 3002.51578,429.406048 3002.71878,429.216433 C3003.07696,428.887772 3003.43354,428.557392 3003.79051,428.226764 C3003.99604,428.034472 3004.20103,427.841609 3004.40359,427.646625 C3004.99211,427.089827 3005.57612,426.528312 3006.15556,425.962142 L3006.092,426.023 L3005.39746,426.701041 C3005.5143,426.588465 3005.63096,426.475701 3005.74744,426.36275 L3006.09632,426.023335 L3006.15556,425.962142 L3006.16516,425.952147 C3006.16497,425.951813 3006.16479,425.951479 3006.16761,425.953704 C3034.0352,398.71844 3051.33333,360.714317 3051.33333,318.67 C3051.33333,235.827288 2984.17605,168.67 2901.33333,168.67 Z" id="Combined-Shape"></path>
    </g>
  </g>
</svg>
