
<svg width="520px" height="281px" viewBox="0 0 520 281" version="1.1" xmlns="http://www.w3.org/2000/svg" xmlns:xlink="http://www.w3.org/1999/xlink">
    <g id="Mobile" stroke="none" stroke-width="1" fill="none" fill-rule="evenodd">
        <g id="Index" transform="translate(0.000000, -1022.000000)" fill="#2C4B61">
            <path d="M269.110309,1021.99669 C246.636721,1033.07598 227.216894,1049.40711 212.453075,1069.38786 C216.647937,1070.07848 216.647937,1070.07848 219.32,1073.05 C222.8,1076.92 222.8,1076.92 222.8,1083.7 C222.8,1085.6513 222.8,1085.6513 220.604159,1085.73614 L220.4,1085.74 L201.878818,1085.73979 C201.718885,1086.02465 201.55982,1086.31006 201.401628,1086.59602 C202.413567,1094.86 202.413567,1094.86 210.98,1094.86 C212.78,1094.86 212.78,1094.86 214.76,1094.41 C216.74,1093.96 216.74,1093.96 218.6,1092.76 C219.86,1092.04 219.86,1092.04 220.79,1092.25 C221.72,1092.46 221.72,1092.46 222.14,1093.27 C222.56,1094.08 222.56,1094.08 222.29,1095.07 C222.02,1096.06 222.02,1096.06 220.88,1096.78 C218.84,1098.16 218.84,1098.16 216.11,1098.85 C213.38,1099.54 213.38,1099.54 210.92,1099.54 C203.72,1099.54 203.72,1099.54 199.58,1095.49 C198.59992,1094.53123 198.59992,1094.53123 197.851859,1093.406 C189.35268,1110.73646 183.973925,1129.8758 182.44784,1150.09082 C215.815302,1155.38272 241,1179.29791 241,1208 C241,1227.07759 229.873546,1244.04036 212.613413,1254.82522 C227.354448,1274.70957 246.715842,1290.96404 269.109311,1302.00403 L0,1302 L-0.000557971202,1249.52692 C-12.9821231,1238.86557 -21,1224.19477 -21,1208 C-21,1191.80523 -12.9821231,1177.13443 -0.000557971202,1166.47308 L0,1022 L269.110309,1021.99669 Z M406.889691,1021.99669 L520,1022 L520,1302 L406.890689,1302.00403 C458.496666,1276.56227 494,1223.42756 494,1162.00061 C494,1100.57326 458.496208,1047.43826 406.889691,1021.99669 Z M168.5,1149 C144.482763,1149 123.193167,1158.50381 109.999925,1173.14229 C96.8068334,1158.50381 75.5172365,1149 51.5,1149 C31.3597097,1149 13.1375244,1155.68318 -0.000557971202,1166.47308 L-0.000557971202,1249.52692 C13.1375244,1260.31682 31.3597097,1267 51.5,1267 C75.5172365,1267 96.8068334,1257.49619 110.000075,1242.85771 C123.193167,1257.49619 144.482763,1267 168.5,1267 C185.097844,1267 200.392988,1262.46105 212.613413,1254.82522 C206.740111,1246.90929 201.601807,1238.41749 197.295447,1229.45044 C203.657741,1223.79755 207.538462,1216.26758 207.538462,1208 C207.538462,1194.5802 197.31384,1183.10381 182.858371,1178.44852 C182.290404,1173.04385 182,1167.55614 182,1162.00061 C182,1157.99359 182.151075,1154.02187 182.44784,1150.09082 C177.934616,1149.37505 173.271129,1149 168.5,1149 Z M51.5,1176.23077 C73.060347,1176.23077 90.5384615,1190.45434 90.5384615,1208 C90.5384615,1225.54566 73.060347,1239.76923 51.5,1239.76923 C29.939653,1239.76923 12.4615385,1225.54566 12.4615385,1208 C12.4615385,1190.45434 29.939653,1176.23077 51.5,1176.23077 Z M168.5,1176.23077 C173.569914,1176.23077 178.414098,1177.01727 182.858371,1178.44852 C184.753761,1196.55094 189.746274,1213.73094 197.295447,1229.45044 C190.160558,1235.79196 179.901027,1239.76923 168.5,1239.76923 C146.939653,1239.76923 129.461538,1225.54566 129.461538,1208 C129.461538,1190.45434 146.939653,1176.23077 168.5,1176.23077 Z M45.62,1056.16 C40.94,1056.16 40.94,1056.16 37.34,1057.75 C33.74,1059.34 33.74,1059.34 31.73,1062.22 C29.72,1065.1 29.72,1065.1 29.72,1068.88 C29.72,1073.56 29.72,1073.56 32.51,1076.32 C35.18375,1078.965 35.18375,1078.965 40.5300521,1080.17729 L41,1080.28 L47.42,1081.6 C51.5,1082.44 51.5,1082.44 53.24,1083.85 C54.98,1085.26 54.98,1085.26 54.98,1087.66 C54.98,1090.6 54.98,1090.6 52.55,1092.43 C50.12,1094.26 50.12,1094.26 45.02,1094.26 C41.48,1094.26 41.48,1094.26 38.48,1093.45 C35.48,1092.64 35.48,1092.64 32.78,1090.9 C31.58,1090.12 31.58,1090.12 30.65,1090.48 C29.72,1090.84 29.72,1090.84 29.27,1091.77 C28.82,1092.7 28.82,1092.7 29.06,1093.81 C29.3,1094.92 29.3,1094.92 30.44,1095.7 C33.26,1097.62 33.26,1097.62 37.07,1098.58 C40.88,1099.54 40.88,1099.54 45.02,1099.54 C50,1099.54 50,1099.54 53.6,1098.01 C57.2,1096.48 57.2,1096.48 59.18,1093.72 C61.16,1090.96 61.16,1090.96 61.16,1087.24 C61.16,1082.8 61.16,1082.8 58.22,1080.19 C55.4025,1077.68875 55.4025,1077.68875 49.7746875,1076.42734 L49.28,1076.32 L42.92,1075 C39.14,1074.22 39.14,1074.22 37.52,1072.72 C35.9,1071.22 35.9,1071.22 35.9,1068.7 C35.9,1065.4 35.9,1065.4 38.51,1063.42 C41.12,1061.44 41.12,1061.44 45.56,1061.44 C48.44,1061.44 48.44,1061.44 50.9,1062.13 C53.36,1062.82 53.36,1062.82 55.7,1064.38 C56.96,1065.16 56.96,1065.16 57.92,1064.86 C58.88,1064.56 58.88,1064.56 59.36,1063.69 C59.84,1062.82 59.84,1062.82 59.66,1061.8 C59.48,1060.78 59.48,1060.78 58.46,1060.06 C55.88,1058.08 55.88,1058.08 52.61,1057.12 C49.34,1056.16 49.34,1056.16 45.62,1056.16 Z M80.18,1069.18 C75.98,1069.18 75.98,1069.18 72.74,1071.1 C69.5,1073.02 69.5,1073.02 67.67,1076.47 C65.84,1079.92 65.84,1079.92 65.84,1084.42 C65.84,1091.44 65.84,1091.44 69.98,1095.49 C74.12,1099.54 74.12,1099.54 81.32,1099.54 C83.78,1099.54 83.78,1099.54 86.51,1098.85 C89.24,1098.16 89.24,1098.16 91.28,1096.78 C92.42,1096.06 92.42,1096.06 92.69,1095.07 C92.96,1094.08 92.96,1094.08 92.54,1093.27 C92.12,1092.46 92.12,1092.46 91.19,1092.25 C90.26,1092.04 90.26,1092.04 89,1092.76 C87.14,1093.96 87.14,1093.96 85.16,1094.41 C83.18,1094.86 83.18,1094.86 81.38,1094.86 C72.5407143,1094.86 72.5407143,1094.86 71.7462309,1086.06281 L71.72,1085.74 L90.8,1085.74 C93.2,1085.74 93.2,1085.74 93.2,1083.7 C93.2,1076.92 93.2,1076.92 89.72,1073.05 C86.24,1069.18 86.24,1069.18 80.18,1069.18 Z M182.66,1069.18 C175.94,1069.18 175.94,1069.18 171.98,1073.2 C168.02,1077.22 168.02,1077.22 168.02,1084.18 C168.02,1088.86 168.02,1088.86 169.82,1092.31 C171.62,1095.76 171.62,1095.76 174.89,1097.65 C178.16,1099.54 178.16,1099.54 182.66,1099.54 C184.76,1099.54 184.76,1099.54 187.01,1098.94 C189.26,1098.34 189.26,1098.34 191.18,1096.96 C192.14,1096.36 192.14,1096.36 192.29,1095.43 C192.44,1094.5 192.44,1094.5 192.05,1093.69 C191.66,1092.88 191.66,1092.88 190.85,1092.58 C190.04,1092.28 190.04,1092.28 188.96,1092.88 C187.46,1093.9 187.46,1093.9 185.99,1094.32 C184.52,1094.74 184.52,1094.74 183.14,1094.74 C178.88,1094.74 178.88,1094.74 176.57,1091.95 C174.26,1089.16 174.26,1089.16 174.26,1084.24 C174.26,1079.32 174.26,1079.32 176.57,1076.65 C178.88,1073.98 178.88,1073.98 183.14,1073.98 C184.52,1073.98 184.52,1073.98 186.02,1074.43 C187.52,1074.88 187.52,1074.88 188.96,1075.9 C190.04,1076.5 190.04,1076.5 190.88,1076.23 C191.72,1075.96 191.72,1075.96 192.17,1075.15 C192.62,1074.34 192.62,1074.34 192.47,1073.41 C192.32,1072.48 192.32,1072.48 191.36,1071.88 C189.38,1070.44 189.38,1070.44 187.07,1069.81 C184.76,1069.18 184.76,1069.18 182.66,1069.18 Z M115.22,1069.12 C111.74,1069.36 111.74,1069.36 109.31,1070.8 C107.031875,1072.15 107.031875,1072.15 105.834805,1074.60742 L105.68,1074.94 L105.68,1072.36 C105.68,1069.3 105.68,1069.3 102.74,1069.3 C99.905,1069.3 99.905,1069.3 99.80375,1072.14533 L99.8,1072.36 L99.8,1096.36 C99.8,1099.42 99.8,1099.42 102.86,1099.42 C105.810714,1099.42 105.810714,1099.42 105.916097,1096.57467 L105.92,1096.36 L105.92,1082.74 C105.92,1075.4488 105.92,1075.4488 113.583992,1074.55386 L113.9,1074.52 L115.04,1074.4 C117.86,1074.16 117.86,1074.16 117.62,1071.52 C117.44,1068.94 117.44,1068.94 115.22,1069.12 Z M147.02,1069.3 C145.76,1069.3 145.76,1069.3 145.07,1069.84 C144.449,1070.326 144.449,1070.326 143.9495,1071.4438 L143.84,1071.7 L135.439,1091.97869 L127.22,1071.7 C126.68,1070.38 126.68,1070.38 125.99,1069.84 C125.3,1069.3 125.3,1069.3 124.22,1069.3 C122.18,1069.3 122.18,1069.3 121.52,1070.56 C120.904,1071.736 120.904,1071.736 121.490133,1073.2256 L121.58,1073.44 L131.6,1096.72 C132.8,1099.42 132.8,1099.42 135.32,1099.42 C137.787826,1099.42 137.787826,1099.42 138.938147,1096.94968 L139.04,1096.72 L149.18,1073.38 C149.84,1071.82 149.84,1071.82 149.24,1070.56 C148.64,1069.3 148.64,1069.3 147.02,1069.3 Z M158.18,1069.42 C155.283448,1069.42 155.283448,1069.42 155.183567,1072.4404 L155.18,1072.66 L155.18,1096.06 C155.18,1099.36 155.18,1099.36 158.18,1099.36 C161.134483,1099.36 161.134483,1099.36 161.236361,1096.28366 L161.24,1096.06 L161.24,1072.66 C161.24,1069.42 161.24,1069.42 158.18,1069.42 Z M209.78,1069.18 C205.58,1069.18 205.58,1069.18 202.34,1071.1 C199.1,1073.02 199.1,1073.02 197.27,1076.47 C195.44,1079.92 195.44,1079.92 195.44,1084.42 C195.44,1089.54516 195.44,1089.54516 197.646691,1093.08727 L197.851859,1093.406 L197.851859,1093.406 C198.754821,1091.56323 199.69309,1089.74184 200.665724,1087.94192 L201.401628,1086.59602 L201.401628,1086.59602 C201.370755,1086.33436 201.370755,1086.33436 201.346231,1086.06281 L201.32,1085.74 L201.878818,1085.73979 C202.581145,1084.48886 203.300217,1083.2486 204.035729,1082.0193 L217.7,1082.02 C217.52,1077.94 217.52,1077.94 215.54,1075.69 C213.56,1073.44 213.56,1073.44 210.02,1073.44 C209.78285,1073.44 209.78285,1073.44 209.55184,1073.44921 C210.182162,1072.53593 210.822244,1071.62977 211.471762,1070.73083 L212.453075,1069.38786 L212.453075,1069.38786 C211.186924,1069.18 211.186924,1069.18 209.78,1069.18 Z M80.42,1073.44 C83.96,1073.44 83.96,1073.44 85.94,1075.69 C87.92,1077.94 87.92,1077.94 88.1,1082.02 L71.72,1082.02 C72.2,1078.12 72.2,1078.12 74.42,1075.78 C76.64,1073.44 76.64,1073.44 80.42,1073.44 Z M209.55184,1073.44921 C207.622677,1076.2412 205.782822,1079.09931 204.035729,1082.0193 L201.32,1082.02 C201.8,1078.12 201.8,1078.12 204.02,1075.78 C205.996685,1073.69647 205.996685,1073.69647 209.210154,1073.46811 L209.55184,1073.44921 L209.55184,1073.44921 Z M158.18,1056.34 C154.4,1056.34 154.4,1056.34 154.4,1059.76 C154.4,1061.38 154.4,1061.38 155.39,1062.28 C156.38,1063.18 156.38,1063.18 158.18,1063.18 C161.96,1063.18 161.96,1063.18 161.96,1059.76 C161.96,1056.34 161.96,1056.34 158.18,1056.34 Z" id="Service"></path>
        </g>
    </g>
</svg>
