<svg width="100%" height="100%" viewBox="0 0 1288 1160" version="1.1" xmlns="http://www.w3.org/2000/svg" xmlns:xlink="http://www.w3.org/1999/xlink">
  <g id="Desktop/index" stroke="none" stroke-width="1" fill="none" fill-rule="evenodd">
    <g id="Artboard" transform="translate(-575.000000, -9.000000)" fill="#D8D8D8" stroke="#979797">
      <path d="M792.333333,735.5 C793.64722,735.5 794.958369,735.511721 796.266021,735.535046 L798.224782,735.578722 L799.836047,735.629469 C807.743365,759.502196 817.404695,782.572277 828.662401,804.693627 L828.662401,804.693627 L829.191,805.713 L829.101124,805.690273 L827.92247,805.399432 C816.511277,802.632745 804.593513,801.166667 792.333333,801.166667 C750.773906,801.166667 713.148906,818.011953 685.913763,845.247096 C658.67862,872.482239 641.833333,910.107239 641.833333,951.666667 C641.833333,993.226094 658.67862,1030.85109 685.913763,1058.08624 C713.148906,1085.32138 750.773906,1102.16667 792.333333,1102.16667 C833.892761,1102.16667 871.517761,1085.32138 898.752904,1058.08624 C925.700551,1031.13859 942.476939,994.019311 942.655373,952.234846 L943.521367,953.004003 L945.059349,954.358925 C967.657381,974.185633 992.055405,992.009023 1017.97693,1007.55255 L1017.97693,1007.55255 L1019.60218,1008.52256 L1019.96022,1009.3915 C1031.38152,1036.86475 1050.71019,1060.22668 1075.10614,1076.63499 C1099.07689,1092.75732 1127.93959,1102.16667 1159,1102.16667 C1189.2936,1102.16667 1217.49667,1093.21616 1241.10918,1077.81568 L1241.10918,1077.81568 L1241.72791,1077.40947 L1244.26713,1077.57017 C1254.43104,1078.18759 1264.67904,1078.5 1275,1078.5 C1295.53018,1078.5 1315.77164,1077.26387 1335.65403,1074.86199 L1335.65403,1074.86199 L1336.75,1074.72 L1336.20729,1075.49589 C1297.12175,1131.32567 1232.32433,1167.83333 1159,1167.83333 C1083.51483,1167.83333 1017.06654,1129.14225 978.405792,1070.51196 L977.242779,1068.7292 L975.6653,1066.26096 L974.091753,1068.72733 C935.608257,1128.35666 868.580977,1167.83333 792.333333,1167.83333 C732.640557,1167.83333 678.59889,1143.63806 639.480417,1104.51958 C600.361945,1065.40111 576.166667,1011.35944 576.166667,951.666667 C576.166667,891.97389 600.361945,837.932223 639.480417,798.813751 C678.59889,759.695278 732.640557,735.5 792.333333,735.5 Z M1159,802.166667 C1200.28329,802.166667 1237.65829,818.900024 1264.71246,845.954203 C1291.76664,873.008382 1308.5,910.383382 1308.5,951.666667 C1308.5,1003.75724 1281.8588,1049.62533 1241.44965,1076.3889 C1161.07777,1071.06041 1085.90683,1046.72084 1020.39803,1007.82502 C1013.3718,990.479462 1009.5,971.525216 1009.5,951.666667 C1009.5,910.383382 1026.23336,873.008382 1053.28754,845.954203 C1080.34171,818.900024 1117.71671,802.166667 1159,802.166667 Z M1275,78.5 C1339.29617,78.5 1400.75503,90.6480165 1457.20553,112.773929 L1458.91462,113.447463 L1460.08848,113.915186 C1440.45696,146.562966 1429.16667,184.796307 1429.16667,225.666667 C1429.16667,285.635586 1453.47387,339.927252 1492.77331,379.226689 C1532.07275,418.526126 1586.36441,442.833333 1646.33333,442.833333 C1683.33722,442.833333 1718.17943,433.57816 1748.92117,416.645895 L1748.029,417.134 L1748.50934,418.548183 C1765.36483,468.621714 1774.5,522.244039 1774.5,578 C1774.5,704.543491 1727.44351,820.096372 1649.8743,908.11466 C1572.10583,996.359057 1463.66784,1056.92754 1341.23177,1073.14767 L1338.8273,1073.4568 C1362.39613,1038.72425 1376.16667,996.803616 1376.16667,951.666667 C1376.16667,891.697748 1351.85946,837.406081 1312.56002,798.106644 C1273.26059,758.807207 1218.96892,734.5 1159,734.5 C1081.90796,734.5 1014.19802,774.669939 975.665094,835.211621 L975.665094,835.211621 L974.933249,834.065743 L973.805335,832.336145 C936.320691,775.447456 872.806985,737.231346 800.218662,734.640503 L800.567,734.654 L800.371822,734.062501 C784.228967,684.965721 775.5,632.502241 775.5,578 C775.5,440.066884 831.408442,315.191884 921.800163,224.800163 C1012.19188,134.408442 1137.06688,78.5 1275,78.5 Z M831.094094,807.240254 C862.811708,815.731089 890.370726,834.392349 910.062862,859.514815 C929.568533,884.399398 941.355333,915.623739 941.819116,949.583452 L941.819116,949.583452 L941.823171,950.153398 C896.466145,909.519126 858.580691,860.714413 830.473651,806.040093 Z M1646.33333,9.5 C1706.02611,9.5 1760.06778,33.6952783 1799.18625,72.8137508 C1838.30472,111.932223 1862.5,165.97389 1862.5,225.666667 C1862.5,265.82381 1851.55019,303.423515 1832.4731,335.642709 C1812.92246,368.66169 1784.83638,396.029841 1751.25577,414.707357 L1750.2365,415.27068 L1748.73034,416.086327 C1741.50206,394.932147 1732.8967,374.416237 1723.02118,354.645521 L1723.227,355.06 L1723.69951,354.780318 C1767.07233,328.740433 1796.23956,281.461578 1796.82437,227.326005 L1796.83333,225.666667 C1796.83333,184.107239 1779.98805,146.482239 1752.7529,119.247096 C1725.51776,92.011953 1687.89276,75.1666667 1646.33333,75.1666667 C1594.48252,75.1666667 1548.75586,101.38768 1521.69036,141.293279 L1521.69036,141.293279 L1521.14279,142.108071 C1501.85843,131.195044 1481.77377,121.526215 1460.3884,113.417917 L1461.339,113.781 L1462.17366,112.413096 C1500.22412,50.6660755 1568.47126,9.5 1646.33333,9.5 Z M1521.459,143.437 L1523.63843,144.683003 L1526.16159,146.143748 C1609.27233,194.584036 1677.13244,266.330258 1720.78453,352.425638 L1720.78453,352.425638 L1721.91681,354.675862 C1699.74065,367.700928 1673.90883,375.166667 1646.33333,375.166667 C1605.05005,375.166667 1567.67505,358.433309 1540.62087,331.37913 C1513.56669,304.324952 1496.83333,266.949952 1496.83333,225.666667 C1496.83333,195.126995 1505.99042,166.726046 1521.71615,143.048214 L1521.459,143.437 Z" id="Combined-Shape"></path>
    </g>
  </g>
</svg>
