<svg width="100%" height="100" viewBox="0 0 1234 1000" version="1.1" xmlns="http://www.w3.org/2000/svg" xmlns:xlink="http://www.w3.org/1999/xlink">
  <g id="Desktop/index" stroke="none" stroke-width="1" fill="none" fill-rule="evenodd">
    <g id="Artboard" transform="translate(-629.000000, -78.000000)" fill="#D8D8D8" stroke="#979797">
      <path d="M1275,78.5 C1360.178,78.5 1440.37641,99.8202357 1510.54866,137.415089 L1512.67202,138.559303 L1514.13778,139.357516 C1462.46981,179.056421 1429.16667,241.472393 1429.16667,311.666667 C1429.16667,371.635586 1453.47387,425.927252 1492.77331,465.226689 C1532.07275,504.526126 1586.36441,528.833333 1646.33333,528.833333 C1691.3219,528.833333 1733.11526,515.153187 1768.00298,491.215869 L1767.094,491.834 L1767.36519,493.398819 C1772.0565,520.897985 1774.5,549.163635 1774.5,578 C1774.5,715.933116 1718.59156,840.808116 1628.19984,931.199837 C1537.80812,1021.59156 1412.93312,1077.5 1275,1077.5 C1173.66803,1077.5 1079.38352,1047.32611 1000.64151,995.472857 L1000.96919,995.142173 C1011.75793,984.201867 1021.38942,972.128405 1029.6682,959.121432 L1029.6682,959.121432 L1030.40006,960.267555 L1031.55664,962.040642 C1070.0006,1020.35484 1135.79907,1059.03799 1210.68175,1059.82121 L1210.68175,1059.82121 L1212.99739,1059.83333 L1214.79482,1059.82604 C1274.05325,1059.34569 1327.65358,1035.13313 1366.56002,996.226689 C1405.85946,956.927252 1430.16667,902.635586 1430.16667,842.666667 C1430.16667,782.697748 1405.85946,728.406081 1366.56002,689.106644 C1327.26059,649.807207 1272.96892,625.5 1213,625.5 C1135.90796,625.5 1068.19802,665.669939 1029.66509,726.211621 L1029.66509,726.211621 L1028.93325,725.065743 L1027.77667,723.292657 C989.332736,664.978492 923.534259,626.295345 848.651587,625.512119 L848.651587,625.512119 L846.335947,625.500007 L845.016175,625.503932 C822.156212,625.63994 800.135803,629.307344 779.470425,635.987937 L779.470425,635.987937 L778.854,636.19 L778.658222,634.483642 C776.571688,615.943977 775.5,597.097142 775.5,578 C775.5,440.066884 831.408442,315.191884 921.800163,224.800163 C1012.19188,134.408442 1137.06688,78.5 1275,78.5 Z M778.004,637.523 L778.154376,638.789321 C780.727942,660.044369 784.633809,680.8888 789.785975,701.236627 L789.785975,701.236627 L790.229555,702.973791 L788.990479,703.476536 L788.115539,703.840648 C760.744446,715.333155 737.489339,734.681693 721.17044,759.064974 C705.166565,782.977554 695.833333,811.732147 695.833333,842.666667 C695.833333,884.226094 712.67862,921.851094 739.913763,949.086237 C767.148906,976.32138 804.773906,993.166667 846.333333,993.166667 C884.407057,993.166667 919.178626,979.028556 945.684572,955.716025 L945.684572,955.716025 L946.143813,955.308199 L947.890667,956.824896 C963.644191,970.439448 980.256088,983.088515 997.634083,994.679375 L997.634083,994.679375 L999.403,995.853 L998.934973,996.313591 C959.281195,1034.98881 905.591857,1058.83333 846.333333,1058.83333 C786.640557,1058.83333 732.59889,1034.63806 693.480417,995.519583 C654.361945,956.40111 630.166667,902.359443 630.166667,842.666667 C630.166667,795.920676 645.004568,752.640229 670.227766,717.278393 C695.880246,681.314722 732.27417,653.541206 774.722867,638.643355 L776.01104,638.19585 L778.004,637.523 Z M1213,693.166667 C1254.28329,693.166667 1291.65829,709.900024 1318.71246,736.954203 C1345.76664,764.008382 1362.5,801.383382 1362.5,842.666667 C1362.5,883.949952 1345.76664,921.324952 1318.71246,948.37913 C1291.65829,975.433309 1254.28329,992.166667 1213,992.166667 C1171.71671,992.166667 1134.34171,975.433309 1107.28754,948.37913 C1080.23336,921.324952 1063.5,883.949952 1063.5,842.666667 C1063.5,801.383382 1080.23336,764.008382 1107.28754,736.954203 C1134.34171,709.900024 1171.71671,693.166667 1213,693.166667 Z M846.333333,693.166667 C887.616618,693.166667 924.991618,709.900024 952.045797,736.954203 C979.099976,764.008382 995.833333,801.383382 995.833333,842.666667 C995.833333,886.870854 976.648317,926.594114 946.140373,953.959008 C871.800292,888.895683 816.937036,802.137781 791.42273,703.576669 C808.429561,696.855111 826.950708,693.166667 846.333333,693.166667 Z M1646.33333,95.5 C1706.02611,95.5 1760.06778,119.695278 1799.18625,158.813751 C1838.30472,197.932223 1862.5,251.97389 1862.5,311.666667 C1862.5,384.78654 1826.19565,449.426997 1770.63129,488.544928 L1768.94164,489.72249 L1767.86922,490.454206 C1763.62842,466.415836 1757.67201,442.969239 1750.13098,420.245394 L1750.229,420.547 L1750.30329,420.477115 C1778.68447,393.356109 1796.47144,355.237711 1796.82787,312.962109 L1796.83333,311.666667 C1796.83333,270.107239 1779.98805,232.482239 1752.7529,205.247096 C1725.51776,178.011953 1687.89276,161.166667 1646.33333,161.166667 C1620.96716,161.166667 1597.06678,167.442336 1576.0999,178.525435 L1576.38,178.377 L1575.52708,177.733048 C1557.03975,163.831474 1537.54071,151.179425 1516.69614,139.946878 L1515.708,139.417 L1516.43764,138.864627 C1552.59947,111.638452 1597.58175,95.5 1646.33333,95.5 Z M1576.28642,179.558861 C1655.19685,239.323463 1715.80105,321.985439 1748.20748,417.654237 L1748.20748,417.654237 L1749.08146,420.259121 C1722.29245,445.617776 1686.12871,461.166667 1646.33333,461.166667 C1605.05005,461.166667 1567.67505,444.433309 1540.62087,417.37913 C1513.56669,390.324952 1496.83333,352.949952 1496.83333,311.666667 C1496.83333,283.757408 1504.48089,257.634302 1517.79508,235.278802 C1531.57536,212.140707 1551.42563,193.03849 1575.1492,180.168902 L1575.1492,180.168902 Z" id="Combined-Shape"></path>
    </g>
  </g>
</svg>
